<?xml version="1.0" encoding="utf-8"?>
<!-- Svg Vector Icons : http://www.onlinewebfonts.com/icon -->
<!DOCTYPE svg PUBLIC "-//W3C//DTD SVG 1.1//EN" "http://www.w3.org/Graphics/SVG/1.1/DTD/svg11.dtd">
<svg version="1.1" xmlns="http://www.w3.org/2000/svg" xmlns:xlink="http://www.w3.org/1999/xlink" x="0px" y="0px" viewBox="0 0 1000 1000" enable-background="new 0 0 1000 1000" xml:space="preserve">
<metadata> Svg Vector Icons : http://www.onlinewebfonts.com/icon </metadata>
<g><g transform="matrix(1 0 0 -1 0 1920)"><path d="M68.8,930v548.8H29.6v39.2l156.8,154.8v119.6H108v39.2h78.4v78.4h39.2v-78.4H304v-39.2h-78.4v-119.6L382.4,1518v-39.2h-39.2v-274.4h588V969.2h39.2V930H68.8z M382.4,1243.6v156.8h431.2l117.6-117.6v-39.2H382.4z M421.6,1008.4h39.2V1126h-39.2V1008.4z M500,1008.4h39.2V1126H500V1008.4z M578.4,1008.4h39.2V1126h-39.2V1008.4z M656.8,1008.4H696V1126h-39.2V1008.4z M735.2,1008.4h39.2V1126h-39.2V1008.4z M813.6,1008.4h39.2V1126h-39.2V1008.4z"/></g></g>
</svg>
