<?xml version="1.0" encoding="UTF-8" standalone="no"?>
<!-- Created with Inkscape (http://www.inkscape.org/) -->

<svg
   xmlns:dc="http://purl.org/dc/elements/1.1/"
   xmlns:cc="http://creativecommons.org/ns#"
   xmlns:rdf="http://www.w3.org/1999/02/22-rdf-syntax-ns#"
   xmlns:svg="http://www.w3.org/2000/svg"
   xmlns="http://www.w3.org/2000/svg"
   xmlns:sodipodi="http://sodipodi.sourceforge.net/DTD/sodipodi-0.dtd"
   xmlns:inkscape="http://www.inkscape.org/namespaces/inkscape"
   width="210mm"
   height="297mm"
   viewBox="0 0 210 297"
   version="1.1"
   id="svg4031"
   inkscape:version="0.92.2 (5c3e80d, 2017-08-06)"
   sodipodi:docname="tramwaje.svg"
   inkscape:export-filename="/home/kolendo@primesoft.local/Documents/tramwaje/tramwaje.png"
   inkscape:export-xdpi="96"
   inkscape:export-ydpi="96">
  <defs
     id="defs4025" />
  <sodipodi:namedview
     id="base"
     pagecolor="#ffffff"
     bordercolor="#666666"
     borderopacity="1.0"
     inkscape:pageopacity="0.0"
     inkscape:pageshadow="2"
     inkscape:zoom="0.49638341"
     inkscape:cx="-74.312959"
     inkscape:cy="559.42598"
     inkscape:document-units="mm"
     inkscape:current-layer="layer1"
     showgrid="false"
     inkscape:window-width="1920"
     inkscape:window-height="981"
     inkscape:window-x="1366"
     inkscape:window-y="28"
     inkscape:window-maximized="1"
     inkscape:measure-start="261.758,808.708"
     inkscape:measure-end="307.135,800.925" />
  <metadata
     id="metadata4028">
    <rdf:RDF>
      <cc:Work
         rdf:about="">
        <dc:format>image/svg+xml</dc:format>
        <dc:type
           rdf:resource="http://purl.org/dc/dcmitype/StillImage" />
        <dc:title />
      </cc:Work>
    </rdf:RDF>
  </metadata>
  <g
     inkscape:label="Layer 1"
     inkscape:groupmode="layer"
     id="layer1">
    <ellipse
       style="fill:none;stroke:#000000;stroke-width:1;stroke-miterlimit:4;stroke-dasharray:none;stroke-opacity:1"
       id="path4054"
       cx="18.177702"
       cy="19.375807"
       rx="4.0031939"
       ry="4.0031934" />
    <rect
       style="fill:#333333;stroke:#000000;stroke-width:1.000898;stroke-linecap:round;stroke-linejoin:round;stroke-miterlimit:4;stroke-dasharray:none;stroke-opacity:1;paint-order:markers fill stroke;image-rendering:auto"
       id="rect4975"
       width="23.999102"
       height="7.9991021"
       x="77.587982"
       y="10.685364" />
    <rect
       style="fill:#333333;stroke:#000000;stroke-width:1.000898;stroke-linecap:round;stroke-linejoin:round;stroke-miterlimit:4;stroke-dasharray:none;stroke-opacity:1;paint-order:markers fill stroke;image-rendering:auto"
       id="rect4975-5"
       width="23.999102"
       height="7.9991026"
       x="51.47221"
       y="10.685364" />
    <rect
       style="fill:#00ff00;stroke:#000000;stroke-width:1.000898;stroke-linecap:round;stroke-linejoin:round;stroke-miterlimit:4;stroke-dasharray:none;stroke-opacity:1;paint-order:markers fill stroke;image-rendering:auto"
       id="rect4975-9"
       width="23.999102"
       height="7.9991026"
       x="113.75771"
       y="14.918693" />
    <rect
       style="fill:#00ff00;stroke:#000000;stroke-width:1.000898;stroke-linecap:round;stroke-linejoin:round;stroke-miterlimit:4;stroke-dasharray:none;stroke-opacity:1;paint-order:markers fill stroke;image-rendering:auto"
       id="rect4975-2"
       width="23.999102"
       height="7.9991026"
       x="139.34436"
       y="14.918693" />
    <rect
       style="fill:#ff0000;stroke:#000000;stroke-width:1.000898;stroke-linecap:round;stroke-linejoin:round;stroke-miterlimit:4;stroke-dasharray:none;stroke-opacity:1;paint-order:markers fill stroke;image-rendering:auto"
       id="rect4975-3"
       width="23.999102"
       height="7.9991026"
       x="174.50044"
       y="-22.388216"
       transform="scale(1,-1)" />
    <ellipse
       style="fill:none;stroke:#000000;stroke-width:1;stroke-miterlimit:4;stroke-dasharray:none;stroke-opacity:1"
       id="path4054-2"
       cx="169.03235"
       cy="18.846806"
       rx="4.0031939"
       ry="4.0031934" />
    <ellipse
       style="fill:none;stroke:#000000;stroke-width:1;stroke-miterlimit:4;stroke-dasharray:none;stroke-opacity:1"
       id="path4054-7"
       cx="108.16383"
       cy="17.788471"
       rx="4.0031939"
       ry="4.0031934" />
    <rect
       style="fill:#00ffff;stroke:#000000;stroke-width:1.000898;stroke-linecap:round;stroke-linejoin:round;stroke-miterlimit:4;stroke-dasharray:none;stroke-opacity:1;paint-order:markers fill stroke;image-rendering:auto"
       id="rect4975-5-7"
       width="23.999102"
       height="7.9991026"
       x="29.254171"
       y="-110.58301"
       transform="rotate(86.639958)" />
    <rect
       style="fill:#00ffff;stroke:#000000;stroke-width:1.000898;stroke-linecap:round;stroke-linejoin:round;stroke-miterlimit:4;stroke-dasharray:none;stroke-opacity:1;paint-order:markers fill stroke;image-rendering:auto"
       id="rect4975-5-7-7"
       width="23.999102"
       height="7.9991026"
       x="54.807026"
       y="-109.96171"
       transform="rotate(86.639958)" />
    <rect
       style="fill:#00ffff;stroke:#000000;stroke-width:1.000898;stroke-linecap:round;stroke-linejoin:round;stroke-miterlimit:4;stroke-dasharray:none;stroke-opacity:1;paint-order:markers fill stroke;image-rendering:auto"
       id="rect4975-5-7-2"
       width="23.999102"
       height="7.9991026"
       x="80.3909"
       y="-109.86866"
       transform="rotate(86.639958)" />
    <rect
       style="fill:#00ffff;stroke:#000000;stroke-width:1.000898;stroke-linecap:round;stroke-linejoin:round;stroke-miterlimit:4;stroke-dasharray:none;stroke-opacity:1;paint-order:markers fill stroke;image-rendering:auto"
       id="rect4975-5-7-0"
       width="23.999102"
       height="7.9991026"
       x="105.97478"
       y="-109.77562"
       transform="rotate(86.639958)" />
    <ellipse
       style="fill:none;stroke:#000000;stroke-width:1;stroke-miterlimit:4;stroke-dasharray:none;stroke-opacity:1"
       id="path4054-42-5"
       cx="114.61988"
       cy="129.46019"
       rx="4.0031939"
       ry="4.0031934" />
    <rect
       style="fill:#ff00ff;stroke:#000000;stroke-width:1.000898;stroke-linecap:round;stroke-linejoin:round;stroke-miterlimit:4;stroke-dasharray:none;stroke-opacity:1;paint-order:markers fill stroke;image-rendering:auto"
       id="rect4975-5-7-0-3"
       width="23.999102"
       height="7.9991026"
       x="109.18742"
       y="-145.12881"
       transform="rotate(101.74122)" />
    <rect
       style="fill:#ff6600;stroke:#000000;stroke-width:1.000898;stroke-linecap:round;stroke-linejoin:round;stroke-miterlimit:4;stroke-dasharray:none;stroke-opacity:1;paint-order:markers fill stroke;image-rendering:auto"
       id="rect4975-5-7-0-9"
       width="23.999102"
       height="7.9991026"
       x="203.60123"
       y="-95.999367"
       transform="rotate(85.302789)" />
    <ellipse
       style="fill:none;stroke:#000000;stroke-width:1;stroke-miterlimit:4;stroke-dasharray:none;stroke-opacity:1"
       id="path4054-42-5-7"
       cx="107.74073"
       cy="189.61473"
       rx="4.0031939"
       ry="4.0031934" />
    <rect
       style="fill:#ff6600;stroke:#000000;stroke-width:1.000898;stroke-linecap:round;stroke-linejoin:round;stroke-miterlimit:4;stroke-dasharray:none;stroke-opacity:1;paint-order:markers fill stroke;image-rendering:auto"
       id="rect4975-5-7-0-9-8"
       width="23.999102"
       height="7.9991026"
       x="229.18781"
       y="-95.999367"
       transform="rotate(85.302789)" />
    <ellipse
       style="fill:none;stroke:#000000;stroke-width:1;stroke-miterlimit:4;stroke-dasharray:none;stroke-opacity:1"
       id="path4054-42-5-7-4"
       cx="115.65123"
       cy="276.08432"
       rx="4.0031939"
       ry="4.0031934" />
    <rect
       style="fill:#ffff00;stroke:#000000;stroke-width:1.000898;stroke-linecap:round;stroke-linejoin:round;stroke-miterlimit:4;stroke-dasharray:none;stroke-opacity:1;paint-order:markers fill stroke;image-rendering:auto"
       id="rect4975-5-5"
       width="23.999102"
       height="7.9991026"
       x="-20.658209"
       y="153.3532"
       transform="rotate(-29.728515)" />
    <rect
       style="fill:#ffff00;stroke:#000000;stroke-width:1.000898;stroke-linecap:round;stroke-linejoin:round;stroke-miterlimit:4;stroke-dasharray:none;stroke-opacity:1;paint-order:markers fill stroke;image-rendering:auto"
       id="rect4975-5-5-2"
       width="23.999102"
       height="7.9991026"
       x="-46.121643"
       y="153.66286"
       transform="rotate(-29.728515)" />
    <ellipse
       style="fill:none;stroke:#000000;stroke-width:1;stroke-miterlimit:4;stroke-dasharray:none;stroke-opacity:1"
       id="path4054-42-8"
       cx="35.963024"
       cy="167.90163"
       rx="4.0031939"
       ry="4.0031934" />
    <rect
       style="fill:#00ffff;stroke:#000000;stroke-width:1.000898;stroke-linecap:round;stroke-linejoin:round;stroke-miterlimit:4;stroke-dasharray:none;stroke-opacity:1;paint-order:markers fill stroke;image-rendering:auto"
       id="rect4975-5-5-2-1"
       width="23.999102"
       height="7.9991026"
       x="-241.47545"
       y="52.334778"
       transform="rotate(-81.448764)" />
    <rect
       style="fill:#00ffff;stroke:#000000;stroke-width:1.000898;stroke-linecap:round;stroke-linejoin:round;stroke-miterlimit:4;stroke-dasharray:none;stroke-opacity:1;paint-order:markers fill stroke;image-rendering:auto"
       id="rect4975-5-5-2-1-4"
       width="23.999102"
       height="7.9991026"
       x="-270.70554"
       y="40.836296"
       transform="rotate(-84.210674)" />
    <ellipse
       style="fill:none;stroke:#000000;stroke-width:1;stroke-miterlimit:4;stroke-dasharray:none;stroke-opacity:1"
       id="path4054-42-8-4"
       cx="19.152952"
       cy="280.25937"
       rx="4.0031939"
       ry="4.0031934" />
    <rect
       style="fill:#ff0000;stroke:#000000;stroke-width:1.000898;stroke-linecap:round;stroke-linejoin:round;stroke-miterlimit:4;stroke-dasharray:none;stroke-opacity:1;paint-order:markers fill stroke;image-rendering:auto"
       id="rect4975-9-5"
       width="23.999102"
       height="7.9991026"
       x="123.48505"
       y="123.39909" />
    <rect
       style="fill:#ff0000;stroke:#000000;stroke-width:1.000898;stroke-linecap:round;stroke-linejoin:round;stroke-miterlimit:4;stroke-dasharray:none;stroke-opacity:1;paint-order:markers fill stroke;image-rendering:auto"
       id="rect4975-2-9"
       width="23.999102"
       height="7.9991026"
       x="149.60081"
       y="122.34076" />
    <rect
       style="fill:#ff0000;stroke:#000000;stroke-width:1.000898;stroke-linecap:round;stroke-linejoin:round;stroke-miterlimit:4;stroke-dasharray:none;stroke-opacity:1;paint-order:markers fill stroke;image-rendering:auto"
       id="rect4975-2-9-7"
       width="23.999102"
       height="7.9991026"
       x="175.18739"
       y="121.81159" />
    <rect
       style="fill:#ffff00;stroke:#000000;stroke-width:1.000898;stroke-linecap:round;stroke-linejoin:round;stroke-miterlimit:4;stroke-dasharray:none;stroke-opacity:1;paint-order:markers fill stroke;image-rendering:auto"
       id="rect4975-9-5-0"
       width="23.999102"
       height="7.9991026"
       x="123.66637"
       y="271.50046" />
    <rect
       style="fill:#ffff00;stroke:#000000;stroke-width:1.000898;stroke-linecap:round;stroke-linejoin:round;stroke-miterlimit:4;stroke-dasharray:none;stroke-opacity:1;paint-order:markers fill stroke;image-rendering:auto"
       id="rect4975-2-9-0"
       width="23.999102"
       height="7.9991026"
       x="149.25278"
       y="271.50046" />
    <rect
       style="fill:#ffff00;stroke:#000000;stroke-width:1.000898;stroke-linecap:round;stroke-linejoin:round;stroke-miterlimit:4;stroke-dasharray:none;stroke-opacity:1;paint-order:markers fill stroke;image-rendering:auto"
       id="rect4975-2-9-7-1"
       width="23.999102"
       height="7.9991026"
       x="174.83936"
       y="271.50046" />
    <rect
       style="fill:#333333;fill-opacity:1;stroke:#000000;stroke-width:1.000898;stroke-linecap:round;stroke-linejoin:round;stroke-miterlimit:4;stroke-dasharray:none;stroke-opacity:1;paint-order:markers fill stroke;image-rendering:auto"
       id="rect4975-5-2"
       width="23.999102"
       height="7.9991026"
       x="25.356441"
       y="10.685369" />
    <text
       xml:space="preserve"
       style="font-style:normal;font-weight:normal;font-size:10.58333302px;line-height:1.25;font-family:sans-serif;letter-spacing:0px;word-spacing:0px;fill:#000000;fill-opacity:1;stroke:none;stroke-width:0.26458332"
       x="114.83818"
       y="189.91924"
       id="text5378"><tspan
         sodipodi:role="line"
         id="tspan5376"
         x="114.83818"
         y="189.91924"
         style="font-style:normal;font-variant:normal;font-weight:normal;font-stretch:normal;font-size:4.93888903px;font-family:sans-serif;-inkscape-font-specification:'sans-serif, Normal';font-variant-ligatures:normal;font-variant-caps:normal;font-variant-numeric:normal;font-feature-settings:normal;text-align:start;writing-mode:lr-tb;text-anchor:start;stroke-width:0.26458332">Arena</tspan></text>
    <text
       xml:space="preserve"
       style="font-style:normal;font-variant:normal;font-weight:normal;font-stretch:normal;font-size:4.93888903px;line-height:1.25;font-family:sans-serif;-inkscape-font-specification:'sans-serif, Normal';font-variant-ligatures:normal;font-variant-caps:normal;font-variant-numeric:normal;font-feature-settings:normal;text-align:start;letter-spacing:0px;word-spacing:0px;writing-mode:lr-tb;text-anchor:start;fill:#000000;fill-opacity:1;stroke:none;stroke-width:0.26458332"
       x="81.00251"
       y="150.46111"
       id="text5378-0"
       transform="rotate(-16.519491)"><tspan
         sodipodi:role="line"
         id="tspan5400"
         x="81.00251"
         y="150.46111">Rondo Nowaka-Jeziorańskiego</tspan></text>
    <text
       xml:space="preserve"
       style="font-style:normal;font-variant:normal;font-weight:normal;font-stretch:normal;font-size:4.93888903px;line-height:1.25;font-family:sans-serif;-inkscape-font-specification:'sans-serif, Normal';font-variant-ligatures:normal;font-variant-caps:normal;font-variant-numeric:normal;font-feature-settings:normal;text-align:start;letter-spacing:0px;word-spacing:0px;writing-mode:lr-tb;text-anchor:start;fill:#000000;fill-opacity:1;stroke:none;stroke-width:0.26458332"
       x="39.670204"
       y="290.51764"
       id="text5378-0-7"
       transform="rotate(-16.519491)"><tspan
         sodipodi:role="line"
         id="tspan5420"
         x="39.670204"
         y="290.51764">Arciszewskiego</tspan></text>
    <text
       xml:space="preserve"
       style="font-style:normal;font-variant:normal;font-weight:normal;font-stretch:normal;font-size:4.93888903px;line-height:1.25;font-family:sans-serif;-inkscape-font-specification:'sans-serif, Normal';font-variant-ligatures:normal;font-variant-caps:normal;font-variant-numeric:normal;font-feature-settings:normal;text-align:start;letter-spacing:0px;word-spacing:0px;writing-mode:lr-tb;text-anchor:start;fill:#000000;fill-opacity:1;stroke:none;stroke-width:0.26458332"
       x="26.489658"
       y="281.46075"
       id="text5378-7"><tspan
         sodipodi:role="line"
         id="tspan5440"
         x="26.489658"
         y="281.46075">Junikowo</tspan></text>
    <text
       xml:space="preserve"
       style="font-style:normal;font-variant:normal;font-weight:normal;font-stretch:normal;font-size:4.93888903px;line-height:1.25;font-family:sans-serif;-inkscape-font-specification:'sans-serif, Normal';font-variant-ligatures:normal;font-variant-caps:normal;font-variant-numeric:normal;font-feature-settings:normal;text-align:start;letter-spacing:0px;word-spacing:0px;writing-mode:lr-tb;text-anchor:start;fill:#000000;fill-opacity:1;stroke:none;stroke-width:0.26458332"
       x="-104.33649"
       y="146.73584"
       id="text5378-7-9"
       transform="rotate(-40.284787)"><tspan
         sodipodi:role="line"
         id="tspan5460"
         x="-104.33649"
         y="146.73584">Stadion</tspan></text>
    <text
       xml:space="preserve"
       style="font-style:normal;font-variant:normal;font-weight:normal;font-stretch:normal;font-size:4.93888903px;line-height:1.25;font-family:sans-serif;-inkscape-font-specification:'sans-serif, Normal';font-variant-ligatures:normal;font-variant-caps:normal;font-variant-numeric:normal;font-feature-settings:normal;text-align:start;letter-spacing:0px;word-spacing:0px;writing-mode:lr-tb;text-anchor:start;fill:#000000;fill-opacity:1;stroke:none;stroke-width:0.26458332"
       x="141.66693"
       y="32.356026"
       id="text5378-7-2-8"><tspan
         sodipodi:role="line"
         id="tspan5500"
         x="141.66693"
         y="32.356026">Rynek</tspan><tspan
         sodipodi:role="line"
         id="tspan5502"
         x="141.66693"
         y="38.529636">Jeżycki</tspan></text>
    <ellipse
       style="fill:none;stroke:#000000;stroke-width:1;stroke-miterlimit:4;stroke-dasharray:none;stroke-opacity:1"
       id="path4054-20"
       cx="168.62367"
       cy="79.861221"
       rx="4.0031939"
       ry="4.0031934" />
    <rect
       style="fill:none;stroke:#000000;stroke-width:1.000898;stroke-linecap:round;stroke-linejoin:round;stroke-miterlimit:4;stroke-dasharray:none;stroke-opacity:1;paint-order:markers fill stroke;image-rendering:auto"
       id="rect4975-5-7-21"
       width="23.999102"
       height="7.9991026"
       x="24.966223"
       y="-168.79544"
       transform="rotate(90)" />
    <rect
       style="fill:none;stroke:#000000;stroke-width:1.000898;stroke-linecap:round;stroke-linejoin:round;stroke-miterlimit:4;stroke-dasharray:none;stroke-opacity:1;paint-order:markers fill stroke;image-rendering:auto"
       id="rect4975-5-7-7-8"
       width="23.999102"
       height="7.9991026"
       x="50.552826"
       y="-168.79544"
       transform="rotate(90)" />
    <rect
       style="fill:#00ffff;stroke:#000000;stroke-width:1.000898;stroke-linecap:round;stroke-linejoin:round;stroke-miterlimit:4;stroke-dasharray:none;stroke-opacity:1;paint-order:markers fill stroke;image-rendering:auto"
       id="rect4975-3-4"
       width="23.999102"
       height="7.9991026"
       x="174.50044"
       y="-84.393219"
       transform="scale(1,-1)" />
    <text
       xml:space="preserve"
       style="font-style:normal;font-variant:normal;font-weight:normal;font-stretch:normal;font-size:4.93888903px;line-height:1.25;font-family:sans-serif;-inkscape-font-specification:'sans-serif, Normal';font-variant-ligatures:normal;font-variant-caps:normal;font-variant-numeric:normal;font-feature-settings:normal;text-align:start;letter-spacing:0px;word-spacing:0px;writing-mode:lr-tb;text-anchor:start;fill:#000000;fill-opacity:1;stroke:none;stroke-width:0.26458332"
       x="145.94044"
       y="89.314331"
       id="text5378-7-2-8-1"><tspan
         sodipodi:role="line"
         id="tspan5599"
         x="145.94044"
         y="89.314331">Kraszewskiego</tspan></text>
    <rect
       style="fill:none;stroke:#000000;stroke-width:0.372;stroke-linecap:round;stroke-linejoin:round;stroke-miterlimit:4;stroke-dasharray:0.372,2.232;stroke-opacity:1;paint-order:markers fill stroke;stroke-dashoffset:0"
       id="rect5601"
       width="188.92807"
       height="278.92807"
       x="10.535962"
       y="7.5359664" />
    <rect
       style="fill:#ff00ff;stroke:#000000;stroke-width:1.000898;stroke-linecap:round;stroke-linejoin:round;stroke-miterlimit:4;stroke-dasharray:none;stroke-opacity:1;paint-order:markers fill stroke;image-rendering:auto"
       id="rect4975-5-7-0-3-1"
       width="23.999102"
       height="7.9991026"
       x="134.77399"
       y="-145.12881"
       transform="rotate(101.74122)" />
    <rect
       style="fill:#ff6600;stroke:#000000;stroke-width:1.000898;stroke-linecap:round;stroke-linejoin:round;stroke-miterlimit:4;stroke-dasharray:none;stroke-opacity:1;paint-order:markers fill stroke;image-rendering:auto"
       id="rect4975-5-7-0-9-8-3"
       width="23.999102"
       height="7.9991026"
       x="254.77438"
       y="-95.999367"
       transform="rotate(85.302789)" />
    <rect
       style="fill:#00ffff;stroke:#000000;stroke-width:1.000898;stroke-linecap:round;stroke-linejoin:round;stroke-miterlimit:4;stroke-dasharray:none;stroke-opacity:1;paint-order:markers fill stroke;image-rendering:auto"
       id="rect4975-5-5-2-1-7"
       width="23.999102"
       height="7.9991026"
       x="-215.8278"
       y="52.622017"
       transform="rotate(-81.448764)" />
    <rect
       style="fill:#00ffff;stroke:#000000;stroke-width:1.000898;stroke-linecap:round;stroke-linejoin:round;stroke-miterlimit:4;stroke-dasharray:none;stroke-opacity:1;paint-order:markers fill stroke;image-rendering:auto"
       id="rect4975-5-5-2-1-7-4"
       width="23.999102"
       height="7.9991026"
       x="-190.18016"
       y="52.909256"
       transform="rotate(-81.448764)" />
    <rect
       style="fill:#ffff00;stroke:#000000;stroke-width:1.000898;stroke-linecap:round;stroke-linejoin:round;stroke-miterlimit:4;stroke-dasharray:none;stroke-opacity:1;paint-order:markers fill stroke;image-rendering:auto"
       id="rect4975-5-5-1"
       width="23.999102"
       height="7.9991026"
       x="5.2487121"
       y="153.33218"
       transform="rotate(-29.728514)" />
    <rect
       style="fill:#ff6600;stroke:#000000;stroke-width:1.000898;stroke-linecap:round;stroke-linejoin:round;stroke-miterlimit:4;stroke-dasharray:none;stroke-opacity:1;paint-order:markers fill stroke;image-rendering:auto"
       id="rect4975-5-5-2-1-3"
       width="23.999102"
       height="7.9991026"
       x="-241.76266"
       y="61.982418"
       transform="rotate(-81.448764)" />
    <rect
       style="fill:#ff6600;stroke:#000000;stroke-width:1.000898;stroke-linecap:round;stroke-linejoin:round;stroke-miterlimit:4;stroke-dasharray:none;stroke-opacity:1;paint-order:markers fill stroke;image-rendering:auto"
       id="rect4975-5-5-2-1-4-9"
       width="23.999102"
       height="7.9991026"
       x="-270.9928"
       y="50.483936"
       transform="rotate(-84.210674)" />
    <rect
       style="fill:#ff6600;stroke:#000000;stroke-width:1.000898;stroke-linecap:round;stroke-linejoin:round;stroke-miterlimit:4;stroke-dasharray:none;stroke-opacity:1;paint-order:markers fill stroke;image-rendering:auto"
       id="rect4975-5-5-2-1-7-0"
       width="23.999102"
       height="7.9991026"
       x="-216.11502"
       y="62.269657"
       transform="rotate(-81.448764)" />
    <rect
       style="fill:#ff6600;stroke:#000000;stroke-width:1.000898;stroke-linecap:round;stroke-linejoin:round;stroke-miterlimit:4;stroke-dasharray:none;stroke-opacity:1;paint-order:markers fill stroke;image-rendering:auto"
       id="rect4975-5-5-2-1-7-4-7"
       width="23.999102"
       height="7.9991026"
       x="-190.46738"
       y="62.556896"
       transform="rotate(-81.448764)" />
    <rect
       style="fill:#00ff00;stroke:#000000;stroke-width:1.000898;stroke-linecap:round;stroke-linejoin:round;stroke-miterlimit:4;stroke-dasharray:none;stroke-opacity:1;paint-order:markers fill stroke;image-rendering:auto"
       id="rect4975-5-5-20"
       width="23.999102"
       height="7.9991026"
       x="-20.637238"
       y="163.26012"
       transform="rotate(-29.728514)" />
    <rect
       style="fill:#00ff00;stroke:#000000;stroke-width:1.000898;stroke-linecap:round;stroke-linejoin:round;stroke-miterlimit:4;stroke-dasharray:none;stroke-opacity:1;paint-order:markers fill stroke;image-rendering:auto"
       id="rect4975-5-5-2-6"
       width="23.999102"
       height="7.9991026"
       x="-46.54417"
       y="163.28111"
       transform="rotate(-29.728514)" />
    <rect
       style="fill:#00ff00;stroke:#000000;stroke-width:1.000898;stroke-linecap:round;stroke-linejoin:round;stroke-miterlimit:4;stroke-dasharray:none;stroke-opacity:1;paint-order:markers fill stroke;image-rendering:auto"
       id="rect4975-5-5-1-5"
       width="23.999102"
       height="7.9991026"
       x="4.8261924"
       y="162.95044"
       transform="rotate(-29.728514)" />
    <rect
       style="fill:#ff00ff;stroke:#000000;stroke-width:1.000898;stroke-linecap:round;stroke-linejoin:round;stroke-miterlimit:4;stroke-dasharray:none;stroke-opacity:1;paint-order:markers fill stroke;image-rendering:auto"
       id="rect4975-5-7-21-2"
       width="23.999102"
       height="7.9991026"
       x="24.966223"
       y="-178.38202"
       transform="rotate(90)" />
    <rect
       style="fill:#ff00ff;stroke:#000000;stroke-width:1.000898;stroke-linecap:round;stroke-linejoin:round;stroke-miterlimit:4;stroke-dasharray:none;stroke-opacity:1;paint-order:markers fill stroke;image-rendering:auto"
       id="rect4975-5-7-7-8-7"
       width="23.999102"
       height="7.9991026"
       x="50.552826"
       y="-178.38202"
       transform="rotate(90)" />
    <rect
       style="fill:#ff0000;stroke:#000000;stroke-width:1.000898;stroke-linecap:round;stroke-linejoin:round;stroke-miterlimit:4;stroke-dasharray:none;stroke-opacity:1;paint-order:markers fill stroke;image-rendering:auto"
       id="rect4975-25"
       width="23.999102"
       height="7.9991026"
       x="77.587975"
       y="20.271965" />
    <rect
       style="fill:#ff0000;stroke:#000000;stroke-width:1.000898;stroke-linecap:round;stroke-linejoin:round;stroke-miterlimit:4;stroke-dasharray:none;stroke-opacity:1;paint-order:markers fill stroke;image-rendering:auto"
       id="rect4975-5-6"
       width="23.999102"
       height="7.9991026"
       x="51.472214"
       y="20.271965" />
    <rect
       style="fill:#ff0000;fill-opacity:1;stroke:#000000;stroke-width:1.000898;stroke-linecap:round;stroke-linejoin:round;stroke-miterlimit:4;stroke-dasharray:none;stroke-opacity:1;paint-order:markers fill stroke;image-rendering:auto"
       id="rect4975-5-2-4"
       width="23.999102"
       height="7.9991026"
       x="25.356441"
       y="20.271969" />
    <text
       xml:space="preserve"
       style="font-style:normal;font-variant:normal;font-weight:normal;font-stretch:normal;font-size:4.93888889px;line-height:1.25;font-family:sans-serif;-inkscape-font-specification:'sans-serif, Normal';font-variant-ligatures:normal;font-variant-caps:normal;font-variant-numeric:normal;font-feature-settings:normal;text-align:start;letter-spacing:0px;word-spacing:0px;writing-mode:lr;text-anchor:start;fill:#000000;fill-opacity:1;stroke:none;stroke-width:0.26458332;"
       x="17.984486"
       y="89.431633"
       id="text5378-7-2-8-1-0"
       transform="rotate(-41.045968)"><tspan
         sodipodi:role="line"
         id="tspan3321">Żeromskiego</tspan></text>
    <rect
       style="opacity:1;vector-effect:none;fill:#cccccc;fill-opacity:1;stroke:#000000;stroke-width:1.000898;stroke-linecap:round;stroke-linejoin:round;stroke-miterlimit:4;stroke-dasharray:none;stroke-dashoffset:0;stroke-opacity:1;paint-order:markers fill stroke;image-rendering:auto"
       id="rect4975-4-8-0-1-1-4-6-13-6-1-2-9-5-5-8"
       width="23.999102"
       height="7.9991026"
       x="-85.237259"
       y="19.203051"
       transform="rotate(-97.475304)" />
    <path
       inkscape:connector-curvature="0"
       style="fill:#000000;fill-rule:evenodd;stroke:none;stroke-width:0.11538438"
       d="m 33.855486,64.334626 a 1.2980743,1.2980743 0 0 0 -0.843198,2.084246 1.2980743,1.2980743 0 0 0 1.203341,0.486812 l 0.740304,5.284971 a 1.2980743,1.2980743 0 0 0 -0.843199,2.084247 1.2980743,1.2980743 0 0 0 1.203341,0.486807 l 0.260104,1.856879 a 0.57692192,0.57692192 0 0 1 -0.491322,0.651391 l -1.594012,0.223287 a 0.86538284,0.86538284 0 0 1 -0.240068,-1e-6 l -2.122969,-0.297271 a 0.57692192,0.57692192 0 0 1 -0.491333,-0.491313 l -1.817528,-12.97532 a 0.14423048,0.14423048 0 0 1 0.122848,-0.162806 l 0.285656,-0.04005 a 0.14423048,0.14423048 0 0 1 0.155846,0.09437 l 5e-6,-1.3e-5 a 0.14423048,0.14423048 0 0 0 0.202729,0.07932 l 1.971094,-1.031664 a 0.86538284,0.86538284 0 0 1 0.281239,-0.09031 l 1.451322,-0.2033 a 0.28846095,0.28846095 0 0 1 0.325692,0.245657 l 0.2401,1.714044 z m -2.462894,-0.947048 0.239526,1.70995 a 0.21634572,0.21634572 0 0 1 -0.184242,0.244273 l -1.571218,0.220097 a 0.21634572,0.21634572 0 0 1 -0.244267,-0.184255 l -0.16093,-1.148813 a 0.21634572,0.21634572 0 0 1 0.113943,-0.221689 l 1.492612,-0.781207 a 0.21634572,0.21634572 0 0 1 0.314585,0.161663 z m 0.351566,2.509845 0.210316,1.50142 a 0.21634572,0.21634572 0 0 1 -0.244256,0.244264 l -1.634092,-0.228818 a 0.21634572,0.21634572 0 0 1 -0.184252,-0.184245 l -0.147432,-1.05251 a 0.21634572,0.21634572 0 0 1 0.184248,-0.244276 l 1.571213,-0.220084 a 0.21634572,0.21634572 0 0 1 0.244264,0.184245 z m 0.324757,2.318453 0.201694,1.439798 a 0.21634572,0.21634572 0 0 1 -0.24426,0.244264 l -1.634094,-0.228827 a 0.21634572,0.21634572 0 0 1 -0.184253,-0.184246 l -0.201679,-1.439793 a 0.21634572,0.21634572 0 0 1 0.244265,-0.244267 l 1.634096,0.228827 a 0.21634572,0.21634572 0 0 1 0.184248,0.184236 z m 0.316133,2.256832 0.201679,1.439793 a 0.21634572,0.21634572 0 0 1 -0.244256,0.244263 l -1.634093,-0.228818 a 0.21634572,0.21634572 0 0 1 -0.184252,-0.184245 l -0.201689,-1.439789 a 0.21634572,0.21634572 0 0 1 0.24427,-0.244281 l 1.634094,0.228818 a 0.21634572,0.21634572 0 0 1 0.184257,0.184254 z m 0.316126,2.256821 0.201681,1.439794 a 0.21634572,0.21634572 0 0 1 -0.244252,0.244272 L 31.024506,74.184768 A 0.21634572,0.21634572 0 0 1 30.840254,74.000523 L 30.638575,72.56073 a 0.21634572,0.21634572 0 0 1 0.244274,-0.244271 l 1.634087,0.228829 a 0.21634572,0.21634572 0 0 1 0.184248,0.184237 z m 0.316137,2.256838 0.201673,1.439779 a 0.21634572,0.21634572 0 0 1 -0.244258,0.24426 l -1.634099,-0.228807 a 0.21634572,0.21634572 0 0 1 -0.184251,-0.184243 l -0.201682,-1.439799 a 0.21634572,0.21634572 0 0 1 0.244265,-0.244268 l 1.634101,0.228835 a 0.21634572,0.21634572 0 0 1 0.184251,0.184243 z m 2.258751,-0.510331 a 1.0096134,1.0096134 0 0 1 -1.075993,-1.378481 1.0096134,1.0096134 0 0 1 1.731802,-0.242584 1.0096134,1.0096134 0 0 1 -0.655809,1.621065 m -1.100445,-7.856024 a 1.0096134,1.0096134 0 0 1 -1.07599,-1.378499 1.0096134,1.0096134 0 0 1 1.731802,-0.242584 1.0096134,1.0096134 0 0 1 -0.655812,1.621083 z"
       id="path6-7-6" />
    <rect
       style="fill:#cccccc;stroke:#000000;stroke-width:1.000898;stroke-linecap:round;stroke-linejoin:round;stroke-miterlimit:4;stroke-dasharray:none;stroke-opacity:1;paint-order:markers fill stroke;image-rendering:auto"
       id="rect4975-5-7-7-8-4-6-6-4-7-9-6-9-5-2"
       width="23.999102"
       height="7.9991026"
       x="111.55638"
       y="-34.97924"
       transform="rotate(89.526797)" />
    <rect
       style="opacity:1;vector-effect:none;fill:#cccccc;fill-opacity:1;stroke:#000000;stroke-width:1.000898;stroke-linecap:round;stroke-linejoin:round;stroke-miterlimit:4;stroke-dasharray:none;stroke-dashoffset:0;stroke-opacity:1;paint-order:markers fill stroke;image-rendering:auto"
       id="rect4975-4-8-0-1-1-4-6-13-6-1-2-9-5-5-8-3"
       width="23.999102"
       height="7.9991026"
       x="-61.574108"
       y="7.5070977"
       transform="rotate(-108.57282)"
       inkscape:transform-center-x="-9.0613759"
       inkscape:transform-center-y="9.594398" />
    <path
       inkscape:connector-curvature="0"
       style="fill:#000000;fill-rule:evenodd;stroke:none;stroke-width:0.11538438"
       d="m 26.981779,37.909837 a 1.2980743,1.2980743 0 0 0 -0.426256,2.207572 1.2980743,1.2980743 0 0 0 1.274541,0.24609 l 1.743709,5.043653 a 1.2980743,1.2980743 0 0 0 -0.426257,2.207573 1.2980743,1.2980743 0 0 0 1.274541,0.246088 l 0.612659,1.772103 a 0.57692192,0.57692192 0 0 1 -0.356756,0.733781 l -1.521229,0.525922 a 0.86538284,0.86538284 0 0 1 -0.235578,0.04621 l -2.140494,0.11691 A 0.57692192,0.57692192 0 0 1 26.203943,50.668181 L 21.922918,38.28532 a 0.14423048,0.14423048 0 0 1 0.08921,-0.183407 l 0.272606,-0.09428 a 0.14423048,0.14423048 0 0 1 0.171095,0.0626 l 4e-6,-1.3e-5 a 0.14423048,0.14423048 0 0 0 0.214205,0.03881 L 24.4057,36.717262 a 0.86538284,0.86538284 0 0 1 0.258597,-0.142752 l 1.385052,-0.47885 a 0.28846095,0.28846095 0 0 1 0.366886,0.178375 l 0.565529,1.635779 z m -2.599127,-0.455282 0.564177,1.631871 a 0.21634572,0.21634572 0 0 1 -0.13378,0.275168 l -1.499474,0.518409 a 0.21634572,0.21634572 0 0 1 -0.275163,-0.133794 l -0.379045,-1.096354 a 0.21634572,0.21634572 0 0 1 0.06914,-0.239476 l 1.314336,-1.053896 a 0.21634572,0.21634572 0 0 1 0.33982,0.09809 z m 0.828086,2.395244 0.495375,1.432864 a 0.21634572,0.21634572 0 0 1 -0.192673,0.28671 l -1.647578,0.08999 a 0.21634572,0.21634572 0 0 1 -0.216271,-0.145336 l -0.347262,-1.004451 a 0.21634572,0.21634572 0 0 1 0.133786,-0.275173 l 1.499471,-0.518394 a 0.21634572,0.21634572 0 0 1 0.27516,0.133784 z m 0.764938,2.212591 0.475054,1.374053 a 0.21634572,0.21634572 0 0 1 -0.192676,0.286712 l -1.647584,0.08998 A 0.21634572,0.21634572 0 0 1 24.3942,43.667799 l -0.475039,-1.374051 a 0.21634572,0.21634572 0 0 1 0.192682,-0.286716 l 1.647584,-0.08998 a 0.21634572,0.21634572 0 0 1 0.216265,0.145328 z m 0.744615,2.153782 0.475039,1.374051 a 0.21634572,0.21634572 0 0 1 -0.192673,0.286711 l -1.64758,0.08999 a 0.21634572,0.21634572 0 0 1 -0.21627,-0.145335 l -0.475048,-1.374046 a 0.21634572,0.21634572 0 0 1 0.192684,-0.28673 l 1.647581,-0.08999 a 0.21634572,0.21634572 0 0 1 0.216276,0.145344 z m 0.744607,2.153773 0.475041,1.374052 a 0.21634572,0.21634572 0 0 1 -0.192668,0.286718 l -1.647586,0.08998 a 0.21634572,0.21634572 0 0 1 -0.216271,-0.145333 l -0.475038,-1.374051 a 0.21634572,0.21634572 0 0 1 0.19269,-0.286722 l 1.647576,-0.08998 a 0.21634572,0.21634572 0 0 1 0.216265,0.145327 z m 0.74462,2.153788 0.475034,1.374043 a 0.21634572,0.21634572 0 0 1 -0.192674,0.28671 l -1.647587,0.09 A 0.21634572,0.21634572 0 0 1 26.62802,50.12915 l -0.475043,-1.374057 a 0.21634572,0.21634572 0 0 1 0.192682,-0.286716 l 1.647591,-0.08997 a 0.21634572,0.21634572 0 0 1 0.216268,0.145333 z m 2.118289,-0.935549 a 1.0096134,1.0096134 0 0 1 -1.321204,-1.145601 1.0096134,1.0096134 0 0 1 1.652727,-0.571384 1.0096134,1.0096134 0 0 1 -0.331523,1.716985 M 27.735814,40.09087 a 1.0096134,1.0096134 0 0 1 -1.321204,-1.145616 1.0096134,1.0096134 0 0 1 1.652727,-0.571384 1.0096134,1.0096134 0 0 1 -0.331523,1.717 z"
       id="path6-7-6-8"
       inkscape:transform-center-x="-8.8547137"
       inkscape:transform-center-y="9.8348752" />
    <rect
       style="fill:#cccccc;stroke:#000000;stroke-width:1.000898;stroke-linecap:round;stroke-linejoin:round;stroke-miterlimit:4;stroke-dasharray:none;stroke-opacity:1;paint-order:markers fill stroke;image-rendering:auto"
       id="rect4975-5-7-7-8-4-6-6-4-7-9-6-9-5-2-6"
       width="23.999102"
       height="7.9991026"
       x="84.939224"
       y="-36.799767"
       transform="rotate(89.526797)" />
    <rect
       style="fill:#cccccc;stroke:#000000;stroke-width:1.000898;stroke-linecap:round;stroke-linejoin:round;stroke-miterlimit:4;stroke-dasharray:none;stroke-opacity:1;paint-order:markers fill stroke;image-rendering:auto"
       id="rect4975-5-7-7-8-4-6-6-4-7-9-6-9-5-2-66"
       width="23.999102"
       height="7.9991026"
       x="137.99266"
       y="-32.599442"
       transform="rotate(89.526797)" />
    <text
       xml:space="preserve"
       style="font-style:normal;font-variant:normal;font-weight:normal;font-stretch:normal;font-size:4.93888903px;line-height:1.25;font-family:sans-serif;-inkscape-font-specification:'sans-serif, Normal';font-variant-ligatures:normal;font-variant-caps:normal;font-variant-numeric:normal;font-feature-settings:normal;text-align:start;letter-spacing:0px;word-spacing:0px;writing-mode:lr-tb;text-anchor:start;fill:#000000;fill-opacity:1;stroke:none;stroke-width:0.26458332"
       x="-39.027512"
       y="23.018118"
       id="text5378-7-2-8-1-0-9"
       transform="rotate(-77.885664)"
       inkscape:transform-center-x="-36.245504"
       inkscape:transform-center-y="25.585061"><tspan
         sodipodi:role="line"
         id="tspan12824"
         x="-39.027512"
         y="23.018118">Ogrody</tspan></text>
  </g>
</svg>
