<?xml version="1.0" encoding="UTF-8" standalone="no"?>
<!-- Created with Inkscape (http://www.inkscape.org/) -->

<svg
   xmlns:dc="http://purl.org/dc/elements/1.1/"
   xmlns:cc="http://creativecommons.org/ns#"
   xmlns:rdf="http://www.w3.org/1999/02/22-rdf-syntax-ns#"
   xmlns:svg="http://www.w3.org/2000/svg"
   xmlns="http://www.w3.org/2000/svg"
   xmlns:sodipodi="http://sodipodi.sourceforge.net/DTD/sodipodi-0.dtd"
   xmlns:inkscape="http://www.inkscape.org/namespaces/inkscape"
   width="210mm"
   height="297mm"
   viewBox="0 0 210 297"
   version="1.1"
   id="svg135"
   inkscape:version="0.92.2 (5c3e80d, 2017-08-06)"
   sodipodi:docname="tramwaje 6.svg"
   inkscape:export-filename="/home/kolendo@primesoft.local/Documents/tramwaje/tramwaje 6.png"
   inkscape:export-xdpi="96"
   inkscape:export-ydpi="96">
  <defs
     id="defs129" />
  <sodipodi:namedview
     id="base"
     pagecolor="#ffffff"
     bordercolor="#666666"
     borderopacity="1.0"
     inkscape:pageopacity="0.0"
     inkscape:pageshadow="2"
     inkscape:zoom="0.49497475"
     inkscape:cx="-150.003"
     inkscape:cy="544.25405"
     inkscape:document-units="mm"
     inkscape:current-layer="layer1"
     showgrid="false"
     inkscape:window-width="1920"
     inkscape:window-height="981"
     inkscape:window-x="1366"
     inkscape:window-y="28"
     inkscape:window-maximized="1" />
  <metadata
     id="metadata132">
    <rdf:RDF>
      <cc:Work
         rdf:about="">
        <dc:format>image/svg+xml</dc:format>
        <dc:type
           rdf:resource="http://purl.org/dc/dcmitype/StillImage" />
        <dc:title />
      </cc:Work>
    </rdf:RDF>
  </metadata>
  <g
     inkscape:label="Layer 1"
     inkscape:groupmode="layer"
     id="layer1">
    <path
       style="fill:none;stroke:#000000;stroke-width:1.965;stroke-linecap:butt;stroke-linejoin:miter;stroke-opacity:1;stroke-miterlimit:4;stroke-dasharray:5.895,1.965;stroke-dashoffset:0"
       d="M 91.406177,246.21879 32.606882,219.49184 h -22.45064"
       id="path6001"
       inkscape:connector-curvature="0" />
    <ellipse
       style="fill:none;stroke:#000000;stroke-width:1;stroke-miterlimit:4;stroke-dasharray:none;stroke-opacity:1"
       id="path4054"
       cx="46.399624"
       cy="40.883331"
       rx="4.0031939"
       ry="4.0031934" />
    <ellipse
       style="fill:none;stroke:#000000;stroke-width:1;stroke-miterlimit:4;stroke-dasharray:none;stroke-opacity:1"
       id="path4054-2"
       cx="98.560402"
       cy="192.45216"
       rx="4.0031939"
       ry="4.0031934" />
    <rect
       style="fill:#00ffff;stroke:#000000;stroke-width:1.000898;stroke-linecap:round;stroke-linejoin:round;stroke-miterlimit:4;stroke-dasharray:none;stroke-opacity:1;paint-order:markers fill stroke;image-rendering:auto"
       id="rect4975-5-7-7-8"
       width="23.999102"
       height="7.9991026"
       x="183.96094"
       y="-45.557884"
       transform="rotate(90)" />
    <rect
       style="fill:#00ffff;stroke:#000000;stroke-width:1.000898;stroke-linecap:round;stroke-linejoin:round;stroke-miterlimit:4;stroke-dasharray:none;stroke-opacity:1;paint-order:markers fill stroke;image-rendering:auto"
       id="rect4975-5-7-7-8-4"
       width="23.999102"
       height="7.9991026"
       x="209.54752"
       y="-45.557884"
       transform="rotate(90)" />
    <rect
       style="fill:#00ffff;stroke:#000000;stroke-width:1.000898;stroke-linecap:round;stroke-linejoin:round;stroke-miterlimit:4;stroke-dasharray:none;stroke-opacity:1;paint-order:markers fill stroke;image-rendering:auto"
       id="rect4975-5-7-7-8-4-6-6"
       width="23.999102"
       height="7.9991026"
       x="158.37436"
       y="-45.557884"
       transform="rotate(90)" />
    <rect
       style="fill:#ff0000;stroke:#000000;stroke-width:1.000898;stroke-linecap:round;stroke-linejoin:round;stroke-miterlimit:4;stroke-dasharray:none;stroke-opacity:1;paint-order:markers fill stroke;image-rendering:auto"
       id="rect4975-5-7-7-8-4-6-6-4"
       width="23.999102"
       height="7.9991026"
       x="95.232758"
       y="-44.49955"
       transform="rotate(90)" />
    <rect
       style="fill:#ff0000;stroke:#000000;stroke-width:1.000898;stroke-linecap:round;stroke-linejoin:round;stroke-miterlimit:4;stroke-dasharray:none;stroke-opacity:1;paint-order:markers fill stroke;image-rendering:auto"
       id="rect4975-5-7-7-8-4-6-6-4-7"
       width="23.999102"
       height="7.9991026"
       x="70.723381"
       y="-44.49955"
       transform="rotate(90)" />
    <rect
       style="fill:#ff0000;stroke:#000000;stroke-width:1.000898;stroke-linecap:round;stroke-linejoin:round;stroke-miterlimit:4;stroke-dasharray:none;stroke-opacity:1;paint-order:markers fill stroke;image-rendering:auto"
       id="rect4975-5-7-7-8-4-6-6-4-7-2"
       width="23.999102"
       height="7.9991026"
       x="46.724285"
       y="-44.499546"
       transform="rotate(90)" />
    <rect
       style="fill:#00ffff;stroke:#000000;stroke-width:1.000898;stroke-linecap:round;stroke-linejoin:round;stroke-miterlimit:4;stroke-dasharray:none;stroke-opacity:1;paint-order:markers fill stroke;image-rendering:auto"
       id="rect4975-5-7-7-8-4-6-6-4-7-9"
       width="23.999102"
       height="7.9991026"
       x="260.72079"
       y="-45.557884"
       transform="rotate(90)" />
    <rect
       style="fill:#00ffff;stroke:#000000;stroke-width:1.000898;stroke-linecap:round;stroke-linejoin:round;stroke-miterlimit:4;stroke-dasharray:none;stroke-opacity:1;paint-order:markers fill stroke;image-rendering:auto"
       id="rect4975-5-7-7-8-4-6-6-4-7-9-6"
       width="23.999102"
       height="7.9991026"
       x="235.13409"
       y="-45.557884"
       transform="rotate(90)" />
    <rect
       style="fill:#ffff00;stroke:#000000;stroke-width:1.000898;stroke-linecap:round;stroke-linejoin:round;stroke-miterlimit:4;stroke-dasharray:none;stroke-opacity:1;paint-order:markers fill stroke;image-rendering:auto"
       id="rect4975-5-7-7-8-4-6-6-4-7-9-6-6-3"
       width="23.999102"
       height="7.9991026"
       x="188.23225"
       y="-173.86638"
       transform="rotate(114.30623)" />
    <rect
       style="fill:#ffff00;stroke:#000000;stroke-width:1.000898;stroke-linecap:round;stroke-linejoin:round;stroke-miterlimit:4;stroke-dasharray:none;stroke-opacity:1;paint-order:markers fill stroke;image-rendering:auto"
       id="rect4975-5-7-7-8-4-6-6-4-7-9-6-6-3-7"
       width="23.999102"
       height="7.9991026"
       x="210.42303"
       y="-176.15442"
       transform="rotate(114.92661)" />
    <rect
       style="fill:none;stroke:#000000;stroke-width:1.000898;stroke-linecap:round;stroke-linejoin:round;stroke-miterlimit:4;stroke-dasharray:none;stroke-opacity:1;paint-order:markers fill stroke;image-rendering:auto"
       id="rect4975-5-7-7-8-4-6-6-4-7-9-6-6-3-7-9-3"
       width="23.999102"
       height="7.9991026"
       x="-30443.055"
       y="-30696.027"
       transform="rotate(134.89914)" />
    <ellipse
       style="fill:none;stroke:#000000;stroke-width:1;stroke-miterlimit:4;stroke-dasharray:none;stroke-opacity:1"
       id="path4054-2-4-8"
       cx="196.23198"
       cy="202.73866"
       rx="4.0031939"
       ry="4.0031934"
       inkscape:transform-center-x="-0.53453905"
       inkscape:transform-center-y="-0.53453905" />
    <ellipse
       style="fill:none;stroke:#000000;stroke-width:1;stroke-miterlimit:4;stroke-dasharray:none;stroke-opacity:1"
       id="path4054-2-4-8-0"
       cx="125.18597"
       cy="79.210091"
       rx="4.0031939"
       ry="4.0031934" />
    <ellipse
       style="fill:none;stroke:#000000;stroke-width:1;stroke-miterlimit:4;stroke-dasharray:none;stroke-opacity:1"
       id="path4054-2-4-8-0-3"
       cx="45.416889"
       cy="126.15476"
       rx="4.0031939"
       ry="4.0031934" />
    <rect
       style="fill:#00ffff;stroke:#000000;stroke-width:1.000898;stroke-linecap:round;stroke-linejoin:round;stroke-miterlimit:4;stroke-dasharray:none;stroke-opacity:1;paint-order:markers fill stroke;image-rendering:auto"
       id="rect4975-4-85-0"
       width="23.999102"
       height="7.9991026"
       x="-156.92667"
       y="34.567245"
       transform="rotate(-91.063983)" />
    <rect
       style="fill:#ff0000;stroke:#000000;stroke-width:1.000898;stroke-linecap:round;stroke-linejoin:round;stroke-miterlimit:4;stroke-dasharray:none;stroke-opacity:1;paint-order:markers fill stroke;image-rendering:auto"
       id="rect4975-5-7-0-9-8-1"
       width="23.999102"
       height="7.9991026"
       x="0.68480635"
       y="-300.78918"
       transform="rotate(150.69299)" />
    <rect
       style="fill:#ff0000;stroke:#000000;stroke-width:1.000898;stroke-linecap:round;stroke-linejoin:round;stroke-miterlimit:4;stroke-dasharray:none;stroke-opacity:1;paint-order:markers fill stroke;image-rendering:auto"
       id="rect4975-4-8"
       width="23.999102"
       height="7.9991026"
       x="-214.32649"
       y="206.58835"
       transform="rotate(-84.789198)"
       inkscape:transform-center-x="12.828937"
       inkscape:transform-center-y="-22.45064" />
    <rect
       style="fill:#00ff00;stroke:#000000;stroke-width:1.000898;stroke-linecap:round;stroke-linejoin:round;stroke-miterlimit:4;stroke-dasharray:none;stroke-opacity:1;paint-order:markers fill stroke;image-rendering:auto"
       id="rect4975-4-8-0-1-6"
       width="23.999102"
       height="7.9991026"
       x="11.448381"
       y="187.50044" />
    <rect
       style="fill:#00ff00;stroke:#000000;stroke-width:1.000898;stroke-linecap:round;stroke-linejoin:round;stroke-miterlimit:4;stroke-dasharray:none;stroke-opacity:1;paint-order:markers fill stroke;image-rendering:auto"
       id="rect4975-4-8-0-1-6-0-3"
       width="23.999102"
       height="7.9991026"
       x="63.748238"
       y="187.50044" />
    <rect
       style="fill:#ffff00;stroke:#000000;stroke-width:1.000898;stroke-linecap:round;stroke-linejoin:round;stroke-miterlimit:4;stroke-dasharray:none;stroke-opacity:1;paint-order:markers fill stroke;image-rendering:auto"
       id="rect4975-5-7-7-8-4-6-6-4-7-9-6-6-3-5-9"
       width="23.9991"
       height="7.9991026"
       x="164.23315"
       y="-173.86638"
       transform="rotate(114.30623)" />
    <rect
       style="fill:none;stroke:#000000;stroke-width:1.000898;stroke-linecap:round;stroke-linejoin:round;stroke-miterlimit:4;stroke-dasharray:none;stroke-opacity:1;paint-order:markers fill stroke;image-rendering:auto"
       id="rect4975-5-7-7-8-4-6-6-4-7-9-6-6-3-5-7"
       width="23.9991"
       height="7.9991026"
       x="28.919022"
       y="-202.38821"
       transform="rotate(130.7114)" />
    <rect
       style="fill:none;stroke:#000000;stroke-width:1.000898;stroke-linecap:round;stroke-linejoin:round;stroke-miterlimit:4;stroke-dasharray:none;stroke-opacity:1;paint-order:markers fill stroke;image-rendering:auto"
       id="rect4975-5-7-7-8-4-6-6-4-7-9-6-6-3-5-7-3"
       width="23.9991"
       height="7.9991026"
       x="52.918125"
       y="-202.38821"
       transform="rotate(130.7114)" />
    <rect
       style="fill:#ffff00;stroke:#000000;stroke-width:1.000898;stroke-linecap:round;stroke-linejoin:round;stroke-miterlimit:4;stroke-dasharray:none;stroke-opacity:1;paint-order:markers fill stroke;image-rendering:auto"
       id="rect4975-5-7-7-8-4-6-6-4-7-9-6-6-3-5-7-3-3"
       width="23.9991"
       height="7.9991026"
       x="140.23405"
       y="-173.86638"
       transform="rotate(114.30623)" />
    <rect
       style="fill:#333333;stroke:#000000;stroke-width:1.000898;stroke-linecap:round;stroke-linejoin:round;stroke-miterlimit:4;stroke-dasharray:none;stroke-opacity:1;paint-order:markers fill stroke;image-rendering:auto;fill-opacity:1"
       id="rect4975-4-8-0-1-1-4-7"
       width="23.999102"
       height="7.9991026"
       x="131.46677"
       y="72.002106" />
    <rect
       style="fill:#333333;stroke:#000000;stroke-width:1.000898;stroke-linecap:round;stroke-linejoin:round;stroke-miterlimit:4;stroke-dasharray:none;stroke-opacity:1;paint-order:markers fill stroke;image-rendering:auto;fill-opacity:1"
       id="rect4975-4-8-0-1-1-4-7-8"
       width="23.999102"
       height="7.9991026"
       x="157.05334"
       y="72.002106" />
    <rect
       style="fill:#ffffff;stroke:#000000;stroke-width:1.000898;stroke-linecap:round;stroke-linejoin:round;stroke-miterlimit:4;stroke-dasharray:none;stroke-opacity:1;paint-order:markers fill stroke;image-rendering:auto"
       id="rect4975-4-8-0-1-1-4-7-8-3-6"
       width="23.999102"
       height="7.9991026"
       x="162.68718"
       y="143.32646" />
    <rect
       style="fill:#ffffff;stroke:#000000;stroke-width:1.000898;stroke-linecap:round;stroke-linejoin:round;stroke-miterlimit:4;stroke-dasharray:none;stroke-opacity:1;paint-order:markers fill stroke;image-rendering:auto"
       id="rect4975-4-8-0-1-1-4-7-8-3-6-3"
       width="23.999102"
       height="7.9991026"
       x="136.57144"
       y="143.32646" />
    <ellipse
       style="fill:none;stroke:#000000;stroke-width:1;stroke-miterlimit:4;stroke-dasharray:none;stroke-opacity:1"
       id="path4054-2-4-8-0-6-2-3"
       cx="192.44916"
       cy="147.03026"
       rx="4.0031939"
       ry="4.0031934" />
    <rect
       style="fill:none;stroke:#000000;stroke-width:1.000898;stroke-linecap:round;stroke-linejoin:round;stroke-miterlimit:4;stroke-dasharray:none;stroke-opacity:1;paint-order:markers fill stroke;image-rendering:auto"
       id="rect4975-5-7-7-8-4-6-6-4-5"
       width="23.999102"
       height="7.9991026"
       x="114.5648"
       y="-199.63474"
       transform="rotate(90)" />
    <rect
       style="fill:none;stroke:#000000;stroke-width:1.000898;stroke-linecap:round;stroke-linejoin:round;stroke-miterlimit:4;stroke-dasharray:none;stroke-opacity:1;paint-order:markers fill stroke;image-rendering:auto"
       id="rect4975-5-7-7-8-4-6-6-4-7-5"
       width="23.999102"
       height="7.9991026"
       x="90.584564"
       y="-199.63475"
       transform="rotate(90)" />
    <ellipse
       style="fill:none;stroke:#000000;stroke-width:1;stroke-miterlimit:4;stroke-dasharray:none;stroke-opacity:1"
       id="path4054-2-4-8-0-6-2-8"
       cx="188.98831"
       cy="80.563454"
       rx="4.0031939"
       ry="4.0031934" />
    <rect
       style="fill:#ff0000;stroke:#000000;stroke-width:1.000898;stroke-linecap:round;stroke-linejoin:round;stroke-miterlimit:4;stroke-dasharray:none;stroke-opacity:1;paint-order:markers fill stroke;image-rendering:auto"
       id="rect4975-5-7-0-9-8-1-0"
       width="23.999102"
       height="7.9991026"
       x="-23.314342"
       y="-300.78922"
       transform="rotate(150.69299)" />
    <rect
       style="fill:#ff0000;stroke:#000000;stroke-width:1.000898;stroke-linecap:round;stroke-linejoin:round;stroke-miterlimit:4;stroke-dasharray:none;stroke-opacity:1;paint-order:markers fill stroke;image-rendering:auto"
       id="rect4975-5-7-0-9-8-1-3"
       width="23.999102"
       height="7.9991026"
       x="-47.313286"
       y="-300.78922"
       transform="rotate(150.69299)" />
    <text
       xml:space="preserve"
       style="font-style:normal;font-variant:normal;font-weight:normal;font-stretch:normal;font-size:4.93888903px;line-height:1.25;font-family:sans-serif;-inkscape-font-specification:'sans-serif, Normal';font-variant-ligatures:normal;font-variant-caps:normal;font-variant-numeric:normal;font-feature-settings:normal;text-align:start;letter-spacing:0px;word-spacing:0px;writing-mode:lr-tb;text-anchor:start;fill:#000000;fill-opacity:1;stroke:none;stroke-width:0.15985431"
       x="173.5197"
       y="178.14919"
       id="text5378"
       transform="scale(0.88247545,1.133176)"><tspan
         sodipodi:role="line"
         id="tspan1023"
         x="173.5197"
         y="178.14919"
         style="font-style:normal;font-variant:normal;font-weight:normal;font-stretch:normal;font-size:4.93888903px;font-family:sans-serif;-inkscape-font-specification:'sans-serif, Normal';font-variant-ligatures:normal;font-variant-caps:normal;font-variant-numeric:normal;font-feature-settings:normal;text-align:start;writing-mode:lr-tb;text-anchor:start;stroke-width:0.15985431">plac Wielkopolski</tspan></text>
    <text
       xml:space="preserve"
       style="font-style:normal;font-variant:normal;font-weight:normal;font-stretch:normal;font-size:4.93888903px;line-height:1.25;font-family:sans-serif;-inkscape-font-specification:'sans-serif, Normal';font-variant-ligatures:normal;font-variant-caps:normal;font-variant-numeric:normal;font-feature-settings:normal;text-align:start;letter-spacing:0px;word-spacing:0px;writing-mode:lr-tb;text-anchor:start;fill:#000000;fill-opacity:1;stroke:none;stroke-width:0.15392512"
       x="135.25468"
       y="130.12012"
       id="text5378-8"
       transform="matrix(0.85791985,0.33334045,-0.39348815,1.0127222,0,0)"><tspan
         sodipodi:role="line"
         id="tspan6289"
         x="135.25468"
         y="130.12012">Wielkopolska </tspan></text>
    <text
       xml:space="preserve"
       style="font-style:normal;font-variant:normal;font-weight:normal;font-stretch:normal;font-size:4.93888903px;line-height:1.25;font-family:sans-serif;-inkscape-font-specification:'sans-serif, Normal';font-variant-ligatures:normal;font-variant-caps:normal;font-variant-numeric:normal;font-feature-settings:normal;text-align:start;letter-spacing:0px;word-spacing:0px;writing-mode:lr-tb;text-anchor:start;fill:#000000;fill-opacity:1;stroke:none;stroke-width:0.15392512"
       x="57.03904"
       y="117.90164"
       id="text5378-8-3"
       transform="scale(0.92040333,1.0864802)"><tspan
         sodipodi:role="line"
         id="tspan1063"
         x="57.03904"
         y="117.90164">Plaza </tspan></text>
    <text
       xml:space="preserve"
       style="font-style:normal;font-variant:normal;font-weight:normal;font-stretch:normal;font-size:4.93888903px;line-height:1.25;font-family:sans-serif;-inkscape-font-specification:'sans-serif, Normal';font-variant-ligatures:normal;font-variant-caps:normal;font-variant-numeric:normal;font-feature-settings:normal;text-align:start;letter-spacing:0px;word-spacing:0px;writing-mode:lr-tb;text-anchor:start;fill:#000000;fill-opacity:1;stroke:none;stroke-width:0.15392512"
       x="58.194736"
       y="35.281792"
       id="text5378-8-5"
       transform="scale(0.92040333,1.0864802)"><tspan
         sodipodi:role="line"
         id="tspan1073"
         x="58.194736"
         y="35.281792">osiedle Sobieskiego </tspan></text>
    <text
       xml:space="preserve"
       style="font-style:normal;font-variant:normal;font-weight:normal;font-stretch:normal;font-size:4.93888903px;line-height:1.25;font-family:sans-serif;-inkscape-font-specification:'sans-serif, Normal';font-variant-ligatures:normal;font-variant-caps:normal;font-variant-numeric:normal;font-feature-settings:normal;text-align:start;letter-spacing:0px;word-spacing:0px;writing-mode:lr-tb;text-anchor:start;fill:#000000;fill-opacity:1;stroke:none;stroke-width:0.15392512"
       x="225.19835"
       y="28.301125"
       id="text5378-8-1"
       transform="matrix(0.79343187,0.4664849,-0.55065708,0.93659811,0,0)"><tspan
         sodipodi:role="line"
         id="tspan1085"
         x="225.19835"
         y="28.301125">Murawa </tspan></text>
    <text
       xml:space="preserve"
       style="font-style:normal;font-variant:normal;font-weight:normal;font-stretch:normal;font-size:4.93888903px;line-height:1.25;font-family:sans-serif;-inkscape-font-specification:'sans-serif, Normal';font-variant-ligatures:normal;font-variant-caps:normal;font-variant-numeric:normal;font-feature-settings:normal;text-align:start;letter-spacing:0px;word-spacing:0px;writing-mode:lr-tb;text-anchor:start;fill:#000000;fill-opacity:1;stroke:none;stroke-width:0.15392512"
       x="184.88344"
       y="56.346016"
       id="text5378-8-59"
       transform="scale(0.92040333,1.0864802)"><tspan
         sodipodi:role="line"
         id="tspan1097"
         x="184.88344"
         y="56.346016">Rondo </tspan><tspan
         sodipodi:role="line"
         id="tspan1099"
         x="184.88344"
         y="62.519627">Solidarności </tspan></text>
    <text
       xml:space="preserve"
       style="font-style:normal;font-variant:normal;font-weight:normal;font-stretch:normal;font-size:4.93888903px;line-height:1.25;font-family:sans-serif;-inkscape-font-specification:'sans-serif, Normal';font-variant-ligatures:normal;font-variant-caps:normal;font-variant-numeric:normal;font-feature-settings:normal;text-align:start;letter-spacing:0px;word-spacing:0px;writing-mode:lr-tb;text-anchor:start;fill:#000000;fill-opacity:1;stroke:none;stroke-width:0.15392512"
       x="105.47027"
       y="74.505188"
       id="text5378-8-7"
       transform="scale(0.92040333,1.0864802)"><tspan
         sodipodi:role="line"
         id="tspan1109"
         x="105.47027"
         y="74.505188">Połabska </tspan></text>
    <rect
       style="fill:#ff6600;stroke:#000000;stroke-width:1.000898;stroke-linecap:round;stroke-linejoin:round;stroke-miterlimit:4;stroke-dasharray:none;stroke-opacity:1;paint-order:markers fill stroke;image-rendering:auto"
       id="rect4975-4-8-0-1-1-4-7-5"
       width="23.999102"
       height="7.9991026"
       x="131.46677"
       y="81.588722" />
    <rect
       style="fill:#ff6600;stroke:#000000;stroke-width:1.000898;stroke-linecap:round;stroke-linejoin:round;stroke-miterlimit:4;stroke-dasharray:none;stroke-opacity:1;paint-order:markers fill stroke;image-rendering:auto"
       id="rect4975-4-8-0-1-1-4-7-8-3"
       width="23.999102"
       height="7.9991026"
       x="157.05334"
       y="81.588722" />
    <rect
       style="fill:#ff00ff;stroke:#000000;stroke-width:1.000898;stroke-linecap:round;stroke-linejoin:round;stroke-miterlimit:4;stroke-dasharray:none;stroke-opacity:1;paint-order:markers fill stroke;image-rendering:auto"
       id="rect4975-5-7-7-8-4-6-6-4-5-2"
       width="23.999102"
       height="7.9991026"
       x="114.5837"
       y="-190.04817"
       transform="rotate(90)" />
    <rect
       style="fill:#ff00ff;stroke:#000000;stroke-width:1.000898;stroke-linecap:round;stroke-linejoin:round;stroke-miterlimit:4;stroke-dasharray:none;stroke-opacity:1;paint-order:markers fill stroke;image-rendering:auto"
       id="rect4975-5-7-7-8-4-6-6-4-7-5-5"
       width="23.999102"
       height="7.9991026"
       x="90.603477"
       y="-190.04819"
       transform="rotate(90)" />
    <rect
       style="fill:none;stroke:#000000;stroke-width:0.37200001;stroke-linecap:round;stroke-linejoin:round;stroke-miterlimit:4;stroke-dasharray:0.372, 2.23200002;stroke-dashoffset:0;stroke-opacity:1;paint-order:markers fill stroke"
       id="rect5601"
       width="188.92807"
       height="278.92807"
       x="10.53865"
       y="7.5359116" />
    <rect
       style="fill:#ff0000;stroke:#000000;stroke-width:1.000898;stroke-linecap:round;stroke-linejoin:round;stroke-miterlimit:4;stroke-dasharray:none;stroke-opacity:1;paint-order:markers fill stroke;image-rendering:auto"
       id="rect4975-5-7-0-9-8-1-5"
       width="23.999102"
       height="7.9991026"
       x="24.683905"
       y="-300.78918"
       transform="rotate(150.69299)" />
    <rect
       style="fill:#ff0000;stroke:#000000;stroke-width:1.000898;stroke-linecap:round;stroke-linejoin:round;stroke-miterlimit:4;stroke-dasharray:none;stroke-opacity:1;paint-order:markers fill stroke;image-rendering:auto"
       id="rect4975-5-7-7-8-4-6-6-4-7-9-6-6-3-5-7-2"
       width="23.9991"
       height="7.9991026"
       x="29.030954"
       y="-211.87984"
       transform="rotate(130.7114)" />
    <rect
       style="fill:#ff0000;stroke:#000000;stroke-width:1.000898;stroke-linecap:round;stroke-linejoin:round;stroke-miterlimit:4;stroke-dasharray:none;stroke-opacity:1;paint-order:markers fill stroke;image-rendering:auto"
       id="rect4975-5-7-7-8-4-6-6-4-7-9-6-6-3-5-7-3-8"
       width="23.9991"
       height="7.9991026"
       x="53.030052"
       y="-211.87984"
       transform="rotate(130.7114)" />
    <rect
       transform="rotate(90)"
       y="-45.557884"
       x="183.96094"
       height="7.9991026"
       width="23.999102"
       id="rect139"
       style="fill:#00ffff;stroke:#000000;stroke-width:1.000898;stroke-linecap:round;stroke-linejoin:round;stroke-miterlimit:4;stroke-dasharray:none;stroke-opacity:1;paint-order:markers fill stroke;image-rendering:auto" />
    <rect
       transform="rotate(90)"
       y="-45.557884"
       x="209.54752"
       height="7.9991026"
       width="23.999102"
       id="rect141"
       style="fill:#00ffff;stroke:#000000;stroke-width:1.000898;stroke-linecap:round;stroke-linejoin:round;stroke-miterlimit:4;stroke-dasharray:none;stroke-opacity:1;paint-order:markers fill stroke;image-rendering:auto" />
    <rect
       transform="rotate(90)"
       y="-45.557884"
       x="158.37436"
       height="7.9991026"
       width="23.999102"
       id="rect145"
       style="fill:#00ffff;stroke:#000000;stroke-width:1.000898;stroke-linecap:round;stroke-linejoin:round;stroke-miterlimit:4;stroke-dasharray:none;stroke-opacity:1;paint-order:markers fill stroke;image-rendering:auto" />
    <rect
       transform="rotate(90)"
       y="-45.557884"
       x="260.72079"
       height="7.9991026"
       width="23.999102"
       id="rect147"
       style="fill:#00ffff;stroke:#000000;stroke-width:1.000898;stroke-linecap:round;stroke-linejoin:round;stroke-miterlimit:4;stroke-dasharray:none;stroke-opacity:1;paint-order:markers fill stroke;image-rendering:auto" />
    <rect
       transform="rotate(90)"
       y="-45.557884"
       x="235.13409"
       height="7.9991026"
       width="23.999102"
       id="rect149"
       style="fill:#00ffff;stroke:#000000;stroke-width:1.000898;stroke-linecap:round;stroke-linejoin:round;stroke-miterlimit:4;stroke-dasharray:none;stroke-opacity:1;paint-order:markers fill stroke;image-rendering:auto" />
    <rect
       transform="rotate(-91.063983)"
       y="34.567245"
       x="-156.92667"
       height="7.9991026"
       width="23.999102"
       id="rect151"
       style="fill:#00ffff;stroke:#000000;stroke-width:1.000898;stroke-linecap:round;stroke-linejoin:round;stroke-miterlimit:4;stroke-dasharray:none;stroke-opacity:1;paint-order:markers fill stroke;image-rendering:auto" />
    <rect
       style="fill:none;stroke:#000000;stroke-width:1.000898;stroke-linecap:round;stroke-linejoin:round;stroke-miterlimit:4;stroke-dasharray:none;stroke-opacity:1;paint-order:markers fill stroke;image-rendering:auto"
       id="rect4975-5-7-7-8-44"
       width="23.999102"
       height="7.9991026"
       x="183.96094"
       y="-53.556988"
       transform="rotate(90)" />
    <rect
       style="fill:#ffffff;stroke:#000000;stroke-width:1.000898;stroke-linecap:round;stroke-linejoin:round;stroke-miterlimit:4;stroke-dasharray:none;stroke-opacity:1;paint-order:markers fill stroke;image-rendering:auto"
       id="rect4975-5-7-7-8-4-0"
       width="23.999102"
       height="7.9991026"
       x="209.5475"
       y="-53.556988"
       transform="rotate(90)" />
    <rect
       style="fill:none;stroke:#000000;stroke-width:1.000898;stroke-linecap:round;stroke-linejoin:round;stroke-miterlimit:4;stroke-dasharray:none;stroke-opacity:1;paint-order:markers fill stroke;image-rendering:auto"
       id="rect4975-5-7-7-8-4-6-6-6"
       width="23.999102"
       height="7.9991026"
       x="158.37436"
       y="-53.556988"
       transform="rotate(90)" />
    <rect
       style="fill:none;stroke:#000000;stroke-width:1.000898;stroke-linecap:round;stroke-linejoin:round;stroke-miterlimit:4;stroke-dasharray:none;stroke-opacity:1;paint-order:markers fill stroke;image-rendering:auto"
       id="rect4975-5-7-7-8-4-6-6-4-7-9-9"
       width="23.999102"
       height="7.9991026"
       x="260.72079"
       y="-53.556988"
       transform="rotate(90)" />
    <rect
       style="fill:none;stroke:#000000;stroke-width:1.000898;stroke-linecap:round;stroke-linejoin:round;stroke-miterlimit:4;stroke-dasharray:none;stroke-opacity:1;paint-order:markers fill stroke;image-rendering:auto"
       id="rect4975-5-7-7-8-4-6-6-4-7-9-6-7"
       width="23.999102"
       height="7.9991026"
       x="235.13409"
       y="-53.556988"
       transform="rotate(90)" />
    <rect
       style="fill:none;stroke:#000000;stroke-width:1.000898;stroke-linecap:round;stroke-linejoin:round;stroke-miterlimit:4;stroke-dasharray:none;stroke-opacity:1;paint-order:markers fill stroke;image-rendering:auto"
       id="rect4975-4-85-0-0"
       width="23.999102"
       height="7.9991026"
       x="-157.0752"
       y="42.564968"
       transform="rotate(-91.063983)" />
    <rect
       style="fill:#ff00ff;stroke:#000000;stroke-width:1.000898;stroke-linecap:round;stroke-linejoin:round;stroke-miterlimit:4;stroke-dasharray:none;stroke-opacity:1;paint-order:markers fill stroke;image-rendering:auto"
       id="rect4975-5-7-7-8-4-6-6-4-53"
       width="23.999102"
       height="7.9991026"
       x="95.23278"
       y="-54.086151"
       transform="rotate(90)" />
    <rect
       style="fill:#ff00ff;stroke:#000000;stroke-width:1.000898;stroke-linecap:round;stroke-linejoin:round;stroke-miterlimit:4;stroke-dasharray:none;stroke-opacity:1;paint-order:markers fill stroke;image-rendering:auto"
       id="rect4975-5-7-7-8-4-6-6-4-7-90"
       width="23.999102"
       height="7.9991026"
       x="70.723389"
       y="-54.086151"
       transform="rotate(90)" />
    <rect
       style="fill:#ff00ff;stroke:#000000;stroke-width:1.000898;stroke-linecap:round;stroke-linejoin:round;stroke-miterlimit:4;stroke-dasharray:none;stroke-opacity:1;paint-order:markers fill stroke;image-rendering:auto"
       id="rect4975-5-7-7-8-4-6-6-4-7-2-2"
       width="23.999102"
       height="7.9991026"
       x="46.724285"
       y="-54.086151"
       transform="rotate(90)" />
    <rect
       style="fill:#ff0000;stroke:#000000;stroke-width:1.000898;stroke-linecap:round;stroke-linejoin:round;stroke-miterlimit:4;stroke-dasharray:none;stroke-opacity:1;paint-order:markers fill stroke;image-rendering:auto"
       id="rect4975-4-8-0-1-1-4-7-8-3-6-2"
       width="23.999102"
       height="7.9991026"
       x="167.83987"
       y="152.97273" />
    <rect
       style="fill:#ff0000;stroke:#000000;stroke-width:1.000898;stroke-linecap:round;stroke-linejoin:round;stroke-miterlimit:4;stroke-dasharray:none;stroke-opacity:1;paint-order:markers fill stroke;image-rendering:auto"
       id="rect4975-4-8-0-1-1-4-7-8-3-6-3-7"
       width="23.999102"
       height="7.9991026"
       x="141.72415"
       y="152.97273" />
    <rect
       style="opacity:1;vector-effect:none;fill:#cccccc;fill-opacity:1;stroke:#000000;stroke-width:1.000898;stroke-linecap:round;stroke-linejoin:round;stroke-miterlimit:4;stroke-dasharray:none;stroke-dashoffset:0;stroke-opacity:1;paint-order:markers fill stroke;image-rendering:auto"
       id="rect4975-4-8-0-1-1-4-6-13-6-1-2-9-5-9"
       width="23.999102"
       height="7.9991026"
       x="0.8989293"
       y="130.58678"
       transform="rotate(-30.051637)" />
    <path
       inkscape:connector-curvature="0"
       style="fill:#000000;fill-rule:evenodd;stroke:none;stroke-width:0.11538438"
       d="m 83.929821,109.23534 a 1.2980743,1.2980743 0 0 0 -2.24823,0.0216 1.2980743,1.2980743 0 0 0 0.0125,1.29803 l -4.59577,2.71255 a 1.2980743,1.2980743 0 0 0 -2.24824,0.0216 1.2980743,1.2980743 0 0 0 0.0125,1.29802 l -1.61474,0.95307 a 0.57692192,0.57692192 0 0 1 -0.79007,-0.20361 l -0.81814,-1.38613 a 0.86538284,0.86538284 0 0 1 -0.0922,-0.22166 l -0.54053,-2.07441 a 0.57692192,0.57692192 0 0 1 0.26503,-0.64231 l 11.28324,-6.65967 a 0.14423048,0.14423048 0 0 1 0.19751,0.0509 l 0.14663,0.24843 a 0.14423048,0.14423048 0 0 1 -0.0273,0.18013 l 1e-5,-1e-5 a 0.14423048,0.14423048 0 0 0 0.005,0.21764 l 1.70933,1.42398 a 0.86538284,0.86538284 0 0 1 0.19136,0.22503 l 0.7449,1.26206 a 0.28846095,0.28846095 0 0 1 -0.10185,0.39504 l -1.49051,0.87974 z m -0.071,-2.63775 -1.48697,0.87765 a 0.21634572,0.21634572 0 0 1 -0.29628,-0.0763 l -0.80644,-1.36631 a 0.21634572,0.21634572 0 0 1 0.0763,-0.29629 l 0.999,-0.58964 a 0.21634572,0.21634572 0 0 1 0.24841,0.0204 l 1.2944,1.07831 a 0.21634572,0.21634572 0 0 1 -0.0285,0.35253 z m -2.18255,1.2882 -1.30562,0.77061 a 0.21634572,0.21634572 0 0 1 -0.31931,-0.13179 l -0.41608,-1.59672 a 0.21634572,0.21634572 0 0 1 0.0994,-0.24087 l 0.91526,-0.54021 a 0.21634572,0.21634572 0 0 1 0.29629,0.0763 l 0.80643,1.36631 a 0.21634572,0.21634572 0 0 1 -0.0764,0.29628 z m -2.0161,1.18996 -1.25204,0.73899 a 0.21634572,0.21634572 0 0 1 -0.31932,-0.1318 l -0.41606,-1.59673 a 0.21634572,0.21634572 0 0 1 0.0994,-0.24086 l 1.25204,-0.73898 a 0.21634572,0.21634572 0 0 1 0.31931,0.13179 l 0.41606,1.59672 a 0.21634572,0.21634572 0 0 1 -0.0994,0.24087 z m -1.96252,1.15833 -1.25203,0.73899 a 0.21634572,0.21634572 0 0 1 -0.31932,-0.1318 l -0.41607,-1.59672 a 0.21634572,0.21634572 0 0 1 0.0994,-0.24086 l 1.25203,-0.73899 a 0.21634572,0.21634572 0 0 1 0.31932,0.13179 l 0.41607,1.59672 a 0.21634572,0.21634572 0 0 1 -0.0994,0.24087 z m -1.96252,1.15833 -1.25204,0.73898 a 0.21634572,0.21634572 0 0 1 -0.31932,-0.13179 l -0.41606,-1.59672 a 0.21634572,0.21634572 0 0 1 0.0994,-0.24087 l 1.25204,-0.73898 a 0.21634572,0.21634572 0 0 1 0.31932,0.13179 l 0.41606,1.59673 a 0.21634572,0.21634572 0 0 1 -0.0994,0.24086 z m -1.96253,1.15834 -1.25202,0.73897 a 0.21634572,0.21634572 0 0 1 -0.31932,-0.13179 l -0.41612,-1.59672 a 0.21634572,0.21634572 0 0 1 0.0994,-0.24087 l 1.25204,-0.73898 a 0.21634572,0.21634572 0 0 1 0.31932,0.13179 l 0.41606,1.59672 a 0.21634572,0.21634572 0 0 1 -0.0994,0.24087 z m 1.33838,1.88973 a 1.0096134,1.0096134 0 0 1 0.85977,-1.52276 1.0096134,1.0096134 0 0 1 0.88886,1.50598 1.0096134,1.0096134 0 0 1 -1.74863,0.0168 m 6.83154,-4.03216 a 1.0096134,1.0096134 0 0 1 0.85978,-1.52276 1.0096134,1.0096134 0 0 1 0.88886,1.50596 1.0096134,1.0096134 0 0 1 -1.74864,0.0168 z"
       id="path6-6" />
    <rect
       style="opacity:1;vector-effect:none;fill:#cccccc;fill-opacity:1;stroke:#000000;stroke-width:1.000898;stroke-linecap:round;stroke-linejoin:round;stroke-miterlimit:4;stroke-dasharray:none;stroke-dashoffset:0;stroke-opacity:1;paint-order:markers fill stroke;image-rendering:auto"
       id="rect4975-4-8-0-1-1-4-6-13-6-1-2-9-5-9-9"
       width="23.999102"
       height="7.9991026"
       x="28.971281"
       y="129.8866"
       transform="rotate(-30.051637)" />
    <path
       inkscape:connector-curvature="0"
       style="fill:#000000;fill-rule:evenodd;stroke:none;stroke-width:0.11538438"
       d="m 107.87796,94.571157 a 1.2980743,1.2980743 0 0 0 -2.24822,0.0216 1.2980743,1.2980743 0 0 0 0.0125,1.298016 l -4.59575,2.712546 a 1.2980743,1.2980743 0 0 0 -2.248238,0.0216 1.2980743,1.2980743 0 0 0 0.0125,1.298014 l -1.61474,0.953057 a 0.57692192,0.57692192 0 0 1 -0.79008,-0.20359 l -0.81814,-1.386144 a 0.86538284,0.86538284 0 0 1 -0.0922,-0.22165 l -0.54053,-2.074414 a 0.57692192,0.57692192 0 0 1 0.26503,-0.64231 l 11.283218,-6.659626 a 0.14423048,0.14423048 0 0 1 0.19751,0.05089 l 0.14663,0.248418 a 0.14423048,0.14423048 0 0 1 -0.0272,0.180145 v -5e-6 a 0.14423048,0.14423048 0 0 0 0.005,0.217642 l 1.70933,1.423965 a 0.86538284,0.86538284 0 0 1 0.19135,0.22503 l 0.7449,1.262051 a 0.28846095,0.28846095 0 0 1 -0.10175,0.39504 z m -0.0711,-2.637716 -1.48696,0.877624 a 0.21634572,0.21634572 0 0 1 -0.29628,-0.0763 l -0.80644,-1.366311 a 0.21634572,0.21634572 0 0 1 0.0763,-0.296278 l 0.99898,-0.589633 a 0.21634572,0.21634572 0 0 1 0.24844,0.02005 l 1.29439,1.078301 a 0.21634572,0.21634572 0 0 1 -0.0285,0.352537 z m -2.18255,1.288174 -1.30561,0.770614 a 0.21634572,0.21634572 0 0 1 -0.31931,-0.13179 l -0.41606,-1.596711 a 0.21634572,0.21634572 0 0 1 0.0994,-0.240866 l 0.91525,-0.540198 a 0.21634572,0.21634572 0 0 1 0.29628,0.0764 l 0.80643,1.366301 a 0.21634572,0.21634572 0 0 1 -0.0763,0.296281 z m -2.01608,1.189951 -1.25204,0.738988 a 0.21634572,0.21634572 0 0 1 -0.31932,-0.131801 l -0.41606,-1.59671 a 0.21634572,0.21634572 0 0 1 0.0994,-0.240868 l 1.25203,-0.738967 a 0.21634572,0.21634572 0 0 1 0.31933,0.131761 l 0.41605,1.596711 a 0.21634572,0.21634572 0 0 1 -0.0994,0.240857 z m -1.96252,1.158327 -1.25205,0.73898 a 0.21634572,0.21634572 0 0 1 -0.31931,-0.13179 l -0.416068,-1.596717 a 0.21634572,0.21634572 0 0 1 0.0994,-0.24087 l 1.252018,-0.738973 a 0.21634572,0.21634572 0 0 1 0.31932,0.13179 l 0.41607,1.5967 a 0.21634572,0.21634572 0 0 1 -0.0994,0.24087 z m -1.962528,1.15833 -1.25203,0.73899 a 0.21634572,0.21634572 0 0 1 -0.31933,-0.13179 l -0.41605,-1.59673 a 0.21634572,0.21634572 0 0 1 0.0994,-0.24086 l 1.25202,-0.738987 a 0.21634572,0.21634572 0 0 1 0.31933,0.131788 l 0.41606,1.596719 a 0.21634572,0.21634572 0 0 1 -0.0994,0.24087 z m -1.96251,1.15834 -1.25204,0.738976 a 0.21634572,0.21634572 0 0 1 -0.31931,-0.13179 l -0.41607,-1.596716 a 0.21634572,0.21634572 0 0 1 0.0994,-0.24088 l 1.25202,-0.73898 a 0.21634572,0.21634572 0 0 1 0.31933,0.1318 l 0.41606,1.59673 a 0.21634572,0.21634572 0 0 1 -0.0994,0.24086 z m 1.33836,1.88972 a 1.0096134,1.0096134 0 0 1 0.85978,-1.52274 1.0096134,1.0096134 0 0 1 0.888868,1.50595 1.0096134,1.0096134 0 0 1 -1.748648,0.0168 m 6.831528,-4.03214 a 1.0096134,1.0096134 0 0 1 0.85978,-1.522753 1.0096134,1.0096134 0 0 1 0.88885,1.505953 1.0096134,1.0096134 0 0 1 -1.74863,0.0168 z"
       id="path6-6-6" />
    <rect
       style="opacity:1;vector-effect:none;fill:#cccccc;fill-opacity:1;stroke:#000000;stroke-width:1.000898;stroke-linecap:round;stroke-linejoin:round;stroke-miterlimit:4;stroke-dasharray:none;stroke-dashoffset:0;stroke-opacity:1;paint-order:markers fill stroke;image-rendering:auto"
       id="rect4975-4-8-0-1-1-4-6-13-6-1-2-9-5-9-3"
       width="23.999102"
       height="7.9991026"
       x="80.047363"
       y="8.9391747"
       transform="rotate(26.843291)" />
    <path
       inkscape:connector-curvature="0"
       style="fill:#000000;fill-rule:evenodd;stroke:none;stroke-width:0.11538438"
       d="m 79.88723,57.167417 a 1.2980743,1.2980743 0 0 0 -1.24602,-1.87147 1.2980743,1.2980743 0 0 0 -1.0805,0.71942 l -4.78232,-2.36821 a 1.2980743,1.2980743 0 0 0 -1.24603,-1.87149 1.2980743,1.2980743 0 0 0 -1.08048,0.71942 l -1.68029,-0.83208 a 0.57692192,0.57692192 0 0 1 -0.26096,-0.77302 l 0.71427,-1.442403 a 0.86538284,0.86538284 0 0 1 0.13532,-0.198299 l 1.44245,-1.585779 a 0.57692192,0.57692192 0 0 1 0.68279,-0.128807 l 11.74125,5.814288 a 0.14423048,0.14423048 0 0 1 0.0652,0.19324 l -0.12802,0.25852 a 0.14423048,0.14423048 0 0 1 -0.1658,0.0755 l 10e-6,1e-5 a 0.14423048,0.14423048 0 0 0 -0.17958,0.12305 l -0.25923,2.2096 a 0.86538284,0.86538284 0 0 1 -0.084,0.28321 l -0.65035,1.31328 a 0.28846095,0.28846095 0 0 1 -0.38654,0.13045 l -1.55101,-0.76807 z m 2.17079,-1.50015 -1.54733,-0.76624 a 0.21634572,0.21634572 0 0 1 -0.0979,-0.28985 l 0.70406,-1.42178 a 0.21634572,0.21634572 0 0 1 0.28987,-0.0979 l 1.03955,0.51478 a 0.21634572,0.21634572 0 0 1 0.11859,0.21923 l -0.1963,1.67323 a 0.21634572,0.21634572 0 0 1 -0.31087,0.16867 z m -2.27115,-1.12467 -1.35861,-0.67279 a 0.21634572,0.21634572 0 0 1 -0.064,-0.33946 l 1.11027,-1.22063 a 0.21634572,0.21634572 0 0 1 0.25606,-0.0483 l 0.95241,0.47164 a 0.21634572,0.21634572 0 0 1 0.0979,0.28986 l -0.70406,1.42177 a 0.21634572,0.21634572 0 0 1 -0.28992,0.0978 z m -2.09793,-1.0389 -1.30287,-0.64518 a 0.21634572,0.21634572 0 0 1 -0.064,-0.33947 l 1.11029,-1.22062 a 0.21634572,0.21634572 0 0 1 0.25605,-0.0483 l 1.30286,0.64518 a 0.21634572,0.21634572 0 0 1 0.064,0.33946 l -1.11028,1.22061 a 0.21634572,0.21634572 0 0 1 -0.25606,0.0483 z m -2.04219,-1.01129 -1.30285,-0.64517 a 0.21634572,0.21634572 0 0 1 -0.064,-0.33947 l 1.11027,-1.220623 a 0.21634572,0.21634572 0 0 1 0.25605,-0.04829 l 1.30286,0.645171 a 0.21634572,0.21634572 0 0 1 0.064,0.33946 l -1.11028,1.22062 a 0.21634572,0.21634572 0 0 1 -0.25606,0.0483 z m -2.04218,-1.0113 -1.30285,-0.64518 a 0.21634572,0.21634572 0 0 1 -0.064,-0.339464 L 73.348,49.275851 a 0.21634572,0.21634572 0 0 1 0.25606,-0.04829 l 1.30286,0.645184 a 0.21634572,0.21634572 0 0 1 0.064,0.339465 l -1.11029,1.22062 a 0.21634572,0.21634572 0 0 1 -0.25606,0.0483 z m -2.04219,-1.011291 -1.30284,-0.645172 a 0.21634572,0.21634572 0 0 1 -0.064,-0.339466 l 1.11025,-1.220661 a 0.21634572,0.21634572 0 0 1 0.25606,-0.04829 l 1.30285,0.645183 a 0.21634572,0.21634572 0 0 1 0.064,0.339466 l -1.11028,1.220611 a 0.21634572,0.21634572 0 0 1 -0.25606,0.04829 z m -0.85198,2.153251 a 1.0096134,1.0096134 0 0 1 1.74516,-0.1115 1.0096134,1.0096134 0 0 1 -0.77604,1.56711 1.0096134,1.0096134 0 0 1 -0.96914,-1.4556 m 7.10885,3.52031 a 1.0096134,1.0096134 0 0 1 1.74516,-0.11149 1.0096134,1.0096134 0 0 1 -0.77602,1.56709 1.0096134,1.0096134 0 0 1 -0.96914,-1.4556 z"
       id="path6-6-68" />
    <rect
       style="opacity:1;vector-effect:none;fill:#cccccc;fill-opacity:1;stroke:#000000;stroke-width:1.000898;stroke-linecap:round;stroke-linejoin:round;stroke-miterlimit:4;stroke-dasharray:none;stroke-dashoffset:0;stroke-opacity:1;paint-order:markers fill stroke;image-rendering:auto"
       id="rect4975-4-8-0-1-1-4-6-13-6-1-2-9-5-9-9-6"
       width="23.999102"
       height="7.9991026"
       x="108.11972"
       y="8.2389946"
       transform="rotate(26.843291)" />
    <path
       inkscape:connector-curvature="0"
       style="fill:#000000;fill-rule:evenodd;stroke:none;stroke-width:0.11538438"
       d="m 105.25089,69.218837 a 1.2980743,1.2980743 0 0 0 -1.24602,-1.87147 1.2980743,1.2980743 0 0 0 -1.08048,0.71942 l -4.78231,-2.36819 a 1.2980743,1.2980743 0 0 0 -1.24603,-1.87148 1.2980743,1.2980743 0 0 0 -1.08047,0.71941 l -1.68029,-0.83208 a 0.57692192,0.57692192 0 0 1 -0.26098,-0.77302 l 0.71429,-1.44242 a 0.86538284,0.86538284 0 0 1 0.13531,-0.19829 l 1.44245,-1.58578 a 0.57692192,0.57692192 0 0 1 0.6828,-0.12881 l 11.7412,5.81429 a 0.14423048,0.14423048 0 0 1 0.0652,0.19325 l -0.12801,0.2585 a 0.14423048,0.14423048 0 0 1 -0.16575,0.0756 v 0 a 0.14423048,0.14423048 0 0 0 -0.17958,0.12306 l -0.25922,2.20959 a 0.86538284,0.86538284 0 0 1 -0.084,0.28319 l -0.65034,1.31329 a 0.28846095,0.28846095 0 0 1 -0.38648,0.13052 z m 2.1707,-1.50021 -1.5473,-0.76625 a 0.21634572,0.21634572 0 0 1 -0.0979,-0.28986 l 0.70406,-1.42177 a 0.21634572,0.21634572 0 0 1 0.28986,-0.0979 l 1.03954,0.51478 a 0.21634572,0.21634572 0 0 1 0.11889,0.21905 l -0.19629,1.67323 a 0.21634572,0.21634572 0 0 1 -0.31087,0.16867 z m -2.27112,-1.12469 -1.35862,-0.67278 a 0.21634572,0.21634572 0 0 1 -0.064,-0.33946 l 1.11028,-1.22061 a 0.21634572,0.21634572 0 0 1 0.25605,-0.0483 l 0.9524,0.47163 a 0.21634572,0.21634572 0 0 1 0.0978,0.28991 l -0.70405,1.42177 a 0.21634572,0.21634572 0 0 1 -0.28985,0.0979 z m -2.09792,-1.03889 -1.30286,-0.64518 a 0.21634572,0.21634572 0 0 1 -0.064,-0.33947 l 1.11027,-1.22061 a 0.21634572,0.21634572 0 0 1 0.25606,-0.0483 l 1.30284,0.64518 a 0.21634572,0.21634572 0 0 1 0.064,0.33947 l -1.11029,1.22059 a 0.21634572,0.21634572 0 0 1 -0.25604,0.0483 z m -2.04218,-1.01129 -1.30286,-0.64519 a 0.21634572,0.21634572 0 0 1 -0.064,-0.33946 l 1.11027,-1.22062 a 0.21634572,0.21634572 0 0 1 0.25606,-0.0483 l 1.30284,0.64517 a 0.21634572,0.21634572 0 0 1 0.064,0.33946 l -1.11026,1.22061 a 0.21634572,0.21634572 0 0 1 -0.25606,0.0483 z m -2.04218,-1.0113 -1.30286,-0.64517 a 0.21634572,0.21634572 0 0 1 -0.064,-0.33947 l 1.11029,-1.22061 a 0.21634572,0.21634572 0 0 1 0.25606,-0.0483 l 1.30285,0.64517 a 0.21634572,0.21634572 0 0 1 0.064,0.33947 l -1.11028,1.22061 a 0.21634572,0.21634572 0 0 1 -0.25606,0.0483 z m -2.04218,-1.01127 -1.30286,-0.64519 a 0.21634572,0.21634572 0 0 1 -0.064,-0.33945 l 1.11028,-1.22062 a 0.21634572,0.21634572 0 0 1 0.25606,-0.0483 l 1.30285,0.64516 a 0.21634572,0.21634572 0 0 1 0.064,0.33948 l -1.11029,1.22062 a 0.21634572,0.21634572 0 0 1 -0.25605,0.0483 z m -0.85199,2.15322 a 1.0096134,1.0096134 0 0 1 1.74515,-0.11147 1.0096134,1.0096134 0 0 1 -0.77602,1.56708 1.0096134,1.0096134 0 0 1 -0.96913,-1.4556 m 7.10881,3.5203 a 1.0096134,1.0096134 0 0 1 1.74516,-0.11148 1.0096134,1.0096134 0 0 1 -0.77602,1.56708 1.0096134,1.0096134 0 0 1 -0.96914,-1.4556 z"
       id="path6-6-6-7" />
    <rect
       style="opacity:1;vector-effect:none;fill:#cccccc;fill-opacity:1;stroke:#000000;stroke-width:1.000898;stroke-linecap:round;stroke-linejoin:round;stroke-miterlimit:4;stroke-dasharray:none;stroke-dashoffset:0;stroke-opacity:1;paint-order:markers fill stroke;image-rendering:auto"
       id="rect4975-4-8-0-1-1-4-6-13-6-1-2-9-5-9-9-2"
       width="23.999102"
       height="7.9991026"
       x="10.000881"
       y="37.102528"
       transform="rotate(-1.6331603)"
       inkscape:transform-center-x="-98.889725"
       inkscape:transform-center-y="8.0180858" />
    <path
       inkscape:connector-curvature="0"
       style="fill:#000000;fill-rule:evenodd;stroke:none;stroke-width:0.11538438"
       d="m 28.263588,42.309135 a 1.2980743,1.2980743 0 0 0 -1.987568,-1.050949 1.2980743,1.2980743 0 0 0 -0.606747,1.147551 l -5.33282,0.198526 a 1.2980743,1.2980743 0 0 0 -1.987588,-1.050958 1.2980743,1.2980743 0 0 0 -0.606737,1.147543 l -1.873711,0.06974 a 0.57692192,0.57692192 0 0 1 -0.597974,-0.555062 l -0.0599,-1.608471 a 0.86538284,0.86538284 0 0 1 0.0244,-0.238819 L 15.74678,38.28656 a 0.57692192,0.57692192 0 0 1 0.538767,-0.438779 l 13.092835,-0.487339 a 0.14423048,0.14423048 0 0 1 0.14948,0.138763 l 0.0107,0.288266 a 0.14423048,0.14423048 0 0 1 -0.10966,0.145497 l 10e-6,-9e-6 a 0.14423048,0.14423048 0 0 0 -0.0992,0.193793 l 0.825664,2.065858 a 0.86538284,0.86538284 0 0 1 0.0612,0.288978 l 0.0545,1.46447 a 0.28846095,0.28846095 0 0 1 -0.277487,0.299013 z m 1.192764,-2.35369 -1.725431,0.06421 a 0.21634572,0.21634572 0 0 1 -0.22426,-0.208107 l -0.059,-1.585454 a 0.21634572,0.21634572 0 0 1 0.208107,-0.224266 l 1.159217,-0.04315 a 0.21634572,0.21634572 0 0 1 0.20897,0.13582 l 0.625244,1.564374 a 0.21634572,0.21634572 0 0 1 -0.192837,0.296494 z m -2.532575,0.09425 -1.515014,0.05641 a 0.21634572,0.21634572 0 0 1 -0.218117,-0.267871 l 0.393967,-1.602305 a 0.21634572,0.21634572 0 0 1 0.20205,-0.164539 l 1.062044,-0.03953 a 0.21634572,0.21634572 0 0 1 0.224207,0.208195 l 0.059,1.585445 a 0.21634572,0.21634572 0 0 1 -0.208107,0.224265 z m -2.339428,0.08709 -1.452851,0.05408 a 0.21634572,0.21634572 0 0 1 -0.21811,-0.267885 l 0.393957,-1.602305 a 0.21634572,0.21634572 0 0 1 0.20206,-0.164539 l 1.452821,-0.05406 a 0.21634572,0.21634572 0 0 1 0.21815,0.267858 l -0.393977,1.602296 a 0.21634572,0.21634572 0 0 1 -0.20205,0.164521 z m -2.277278,0.08477 -1.452841,0.05407 a 0.21634572,0.21634572 0 0 1 -0.21812,-0.267871 l 0.39396,-1.602318 a 0.21634572,0.21634572 0 0 1 0.202057,-0.164539 l 1.452814,-0.05407 a 0.21634572,0.21634572 0 0 1 0.218127,0.267875 l -0.393957,1.602301 a 0.21634572,0.21634572 0 0 1 -0.20205,0.164539 z m -2.277265,0.08477 -1.452844,0.05409 a 0.21634572,0.21634572 0 0 1 -0.218127,-0.26788 l 0.393987,-1.602318 a 0.21634572,0.21634572 0 0 1 0.20205,-0.16453 l 1.452821,-0.05409 a 0.21634572,0.21634572 0 0 1 0.218127,0.26788 l -0.393967,1.602314 a 0.21634572,0.21634572 0 0 1 -0.202047,0.164539 z m -2.277268,0.08478 -1.452841,0.05407 a 0.21634572,0.21634572 0 0 1 -0.21811,-0.267871 l 0.393957,-1.602318 a 0.21634572,0.21634572 0 0 1 0.20206,-0.164548 l 1.452821,-0.05408 a 0.21634572,0.21634572 0 0 1 0.21812,0.267889 l -0.393967,1.602323 a 0.21634572,0.21634572 0 0 1 -0.20205,0.16453 z m 0.277747,2.298936 a 1.0096134,1.0096134 0 0 1 1.480844,-0.930066 1.0096134,1.0096134 0 0 1 0.0651,1.747491 1.0096134,1.0096134 0 0 1 -1.545911,-0.817416 M 25.9575,42.394976 a 1.0096134,1.0096134 0 0 1 1.480854,-0.930075 1.0096134,1.0096134 0 0 1 0.065,1.747487 1.0096134,1.0096134 0 0 1 -1.545894,-0.817412 z"
       id="path6-6-6-6"
       inkscape:transform-center-x="-98.467746"
       inkscape:transform-center-y="8.0709479" />
    <path
       style="fill:none;stroke:#000000;stroke-width:1.965;stroke-linecap:butt;stroke-linejoin:miter;stroke-opacity:1;stroke-miterlimit:4;stroke-dasharray:5.895,1.965;stroke-dashoffset:0"
       d="M 60.946492,286.82685 149.13639,171.38332 h 50.24667"
       id="path5999"
       inkscape:connector-curvature="0" />
  </g>
</svg>
