<?xml version="1.0" encoding="UTF-8" standalone="no"?>
<!-- Created with Inkscape (http://www.inkscape.org/) -->

<svg
   xmlns:dc="http://purl.org/dc/elements/1.1/"
   xmlns:cc="http://creativecommons.org/ns#"
   xmlns:rdf="http://www.w3.org/1999/02/22-rdf-syntax-ns#"
   xmlns:svg="http://www.w3.org/2000/svg"
   xmlns="http://www.w3.org/2000/svg"
   xmlns:sodipodi="http://sodipodi.sourceforge.net/DTD/sodipodi-0.dtd"
   xmlns:inkscape="http://www.inkscape.org/namespaces/inkscape"
   width="210mm"
   height="297mm"
   viewBox="0 0 210 297"
   version="1.1"
   id="svg4031"
   inkscape:version="0.92.2 (5c3e80d, 2017-08-06)"
   sodipodi:docname="tramwaje-3.svg"
   inkscape:export-filename="/home/kolendo@primesoft.local/Documents/tramwaje/tramwaje-3.png"
   inkscape:export-xdpi="96"
   inkscape:export-ydpi="96">
  <defs
     id="defs4025" />
  <sodipodi:namedview
     id="base"
     pagecolor="#ffffff"
     bordercolor="#666666"
     borderopacity="1.0"
     inkscape:pageopacity="0.0"
     inkscape:pageshadow="2"
     inkscape:zoom="0.49638341"
     inkscape:cx="-80.940469"
     inkscape:cy="757.69688"
     inkscape:document-units="mm"
     inkscape:current-layer="layer1"
     showgrid="false"
     inkscape:window-width="1920"
     inkscape:window-height="981"
     inkscape:window-x="1366"
     inkscape:window-y="28"
     inkscape:window-maximized="1"
     inkscape:measure-start="261.758,808.708"
     inkscape:measure-end="307.135,800.925" />
  <metadata
     id="metadata4028">
    <rdf:RDF>
      <cc:Work
         rdf:about="">
        <dc:format>image/svg+xml</dc:format>
        <dc:type
           rdf:resource="http://purl.org/dc/dcmitype/StillImage" />
        <dc:title />
      </cc:Work>
    </rdf:RDF>
  </metadata>
  <g
     inkscape:label="Layer 1"
     inkscape:groupmode="layer"
     id="layer1">
    <path
       style="fill:none;stroke:#5599ff;stroke-width:11;stroke-linecap:butt;stroke-linejoin:miter;stroke-opacity:1;stroke-miterlimit:4;stroke-dasharray:none;opacity:1"
       d="M 148.18015,7.5689933 149.24619,286.33954"
       id="path12425"
       inkscape:connector-curvature="0" />
    <rect
       style="fill:none;stroke:#000000;stroke-width:1.000898;stroke-linecap:round;stroke-linejoin:round;stroke-miterlimit:4;stroke-dasharray:none;stroke-opacity:1;paint-order:markers fill stroke;image-rendering:auto"
       id="rect4975-5-7-7"
       width="23.999102"
       height="7.9991021"
       x="-250.03435"
       y="-1268.1871"
       transform="rotate(90)" />
    <ellipse
       style="fill:none;stroke:#000000;stroke-width:1;stroke-miterlimit:4;stroke-dasharray:none;stroke-opacity:1"
       id="path4054-42-5"
       cx="66.10331"
       cy="136.96884"
       rx="4.0031939"
       ry="4.0031934" />
    <rect
       style="fill:none;stroke:#000000;stroke-width:1.000898;stroke-linecap:round;stroke-linejoin:round;stroke-miterlimit:4;stroke-dasharray:none;stroke-opacity:1;paint-order:markers fill stroke;image-rendering:auto"
       id="rect4975-5-7-0-9-8"
       width="23.999102"
       height="7.9991026"
       x="49.793995"
       y="-159.00731"
       transform="rotate(149.43051)"
       inkscape:transform-center-y="-1.4691644"
       inkscape:transform-center-x="-0.63130585" />
    <ellipse
       style="fill:none;stroke:#000000;stroke-width:1;stroke-miterlimit:4;stroke-dasharray:none;stroke-opacity:1"
       id="path4054-42-8-4"
       cx="128.21394"
       cy="135.71101"
       rx="4.0031939"
       ry="4.0031934" />
    <rect
       style="fill:#ffff00;stroke:#000000;stroke-width:1.000898;stroke-linecap:round;stroke-linejoin:round;stroke-miterlimit:4;stroke-dasharray:none;stroke-opacity:1;paint-order:markers fill stroke;image-rendering:auto"
       id="rect4975-5-2"
       width="23.999102"
       height="7.9991026"
       x="175.0296"
       y="274.44653" />
    <rect
       style="fill:none;stroke:#000000;stroke-width:0.372;stroke-linecap:round;stroke-linejoin:round;stroke-miterlimit:4;stroke-dasharray:0.372,2.232;stroke-opacity:1;paint-order:markers fill stroke;stroke-dashoffset:0"
       id="rect5601"
       width="188.92807"
       height="278.92807"
       x="10.535962"
       y="7.5359664" />
    <ellipse
       style="fill:none;stroke:#000000;stroke-width:1;stroke-miterlimit:4;stroke-dasharray:none;stroke-opacity:1"
       id="path4054-42-8-7"
       cx="164.56477"
       cy="-46.50275"
       rx="4.0031939"
       ry="4.0031934"
       transform="scale(1,-1)" />
    <rect
       style="fill:#ffff00;stroke:#000000;stroke-width:1.000898;stroke-linecap:round;stroke-linejoin:round;stroke-miterlimit:4;stroke-dasharray:none;stroke-opacity:1;paint-order:markers fill stroke;image-rendering:auto"
       id="rect4975-5-7-0-9-8-1-7-9-7"
       width="23.999102"
       height="7.9991026"
       x="135.33955"
       y="-83.400475"
       transform="rotate(73.285932)" />
    <ellipse
       style="fill:none;stroke:#000000;stroke-width:1;stroke-miterlimit:4;stroke-dasharray:none;stroke-opacity:1"
       id="path4054-42-8-1-6"
       cx="40.026772"
       cy="-41.299747"
       rx="4.0031939"
       ry="4.0031934"
       transform="scale(1,-1)" />
    <rect
       style="fill:#ff0000;stroke:#000000;stroke-width:1.000898;stroke-linecap:round;stroke-linejoin:round;stroke-miterlimit:4;stroke-dasharray:none;stroke-opacity:1;paint-order:markers fill stroke;image-rendering:auto"
       id="rect4975-5-1-6-7-5"
       width="23.999102"
       height="7.9991026"
       x="11.381341"
       y="133.11394" />
    <rect
       style="fill:#ff0000;stroke:#000000;stroke-width:1.000898;stroke-linecap:round;stroke-linejoin:round;stroke-miterlimit:4;stroke-dasharray:none;stroke-opacity:1;paint-order:markers fill stroke;image-rendering:auto"
       id="rect4975-5-1-6-7-7-5-2"
       width="23.999102"
       height="7.9991026"
       x="36.967945"
       y="133.11394" />
    <rect
       style="fill:#333333;stroke:#000000;stroke-width:1.000898;stroke-linecap:round;stroke-linejoin:round;stroke-miterlimit:4;stroke-dasharray:none;stroke-opacity:1;paint-order:markers fill stroke;image-rendering:auto"
       id="rect4975-5-1-6-7-5-9"
       width="23.999102"
       height="7.9991026"
       x="36.781342"
       y="274.8667" />
    <rect
       style="fill:#333333;stroke:#000000;stroke-width:1.000898;stroke-linecap:round;stroke-linejoin:round;stroke-miterlimit:4;stroke-dasharray:none;stroke-opacity:1;paint-order:markers fill stroke;image-rendering:auto"
       id="rect4975-5-1-6-7-7-5-7"
       width="23.999102"
       height="7.9991026"
       x="11.194749"
       y="274.8667" />
    <rect
       style="fill:#333333;stroke:#000000;stroke-width:1.000898;stroke-linecap:round;stroke-linejoin:round;stroke-miterlimit:4;stroke-dasharray:none;stroke-opacity:1;paint-order:markers fill stroke;image-rendering:auto"
       id="rect4975-5-1-6-7-5-5-6"
       width="23.999102"
       height="7.9991026"
       x="87.954605"
       y="274.8667" />
    <rect
       style="fill:#333333;stroke:#000000;stroke-width:1.000898;stroke-linecap:round;stroke-linejoin:round;stroke-miterlimit:4;stroke-dasharray:none;stroke-opacity:1;paint-order:markers fill stroke;image-rendering:auto"
       id="rect4975-5-1-6-7-7-5-2-9"
       width="23.999102"
       height="7.9991026"
       x="62.367943"
       y="274.8667" />
    <rect
       style="fill:#333333;stroke:#000000;stroke-width:1.000898;stroke-linecap:round;stroke-linejoin:round;stroke-miterlimit:4;stroke-dasharray:none;stroke-opacity:1;paint-order:markers fill stroke;image-rendering:auto"
       id="rect4975-5-1-6-7-5-5-0"
       width="23.999102"
       height="7.9991026"
       x="72.188606"
       y="133.11897" />
    <rect
       style="fill:#333333;stroke:#000000;stroke-width:1.000898;stroke-linecap:round;stroke-linejoin:round;stroke-miterlimit:4;stroke-dasharray:none;stroke-opacity:1;paint-order:markers fill stroke;image-rendering:auto"
       id="rect4975-5-1-6-7-5-5-6-1"
       width="23.999102"
       height="7.9991026"
       x="139.12819"
       y="274.8667" />
    <rect
       style="fill:#333333;stroke:#000000;stroke-width:1.000898;stroke-linecap:round;stroke-linejoin:round;stroke-miterlimit:4;stroke-dasharray:none;stroke-opacity:1;paint-order:markers fill stroke;image-rendering:auto"
       id="rect4975-5-1-6-7-7-5-2-9-5"
       width="23.999102"
       height="7.9991026"
       x="113.54139"
       y="274.8667" />
    <ellipse
       style="fill:none;stroke:#000000;stroke-width:1;stroke-miterlimit:4;stroke-dasharray:none;stroke-opacity:1"
       id="path4054-42-8-1-6-8"
       cx="167.82089"
       cy="-137.28619"
       rx="4.0031939"
       ry="4.0031934"
       transform="scale(1,-1)" />
    <text
       xml:space="preserve"
       style="font-style:normal;font-variant:normal;font-weight:normal;font-stretch:normal;font-size:4.93888903px;line-height:1.25;font-family:sans-serif;-inkscape-font-specification:'sans-serif, Normal';font-variant-ligatures:normal;font-variant-caps:normal;font-variant-numeric:normal;font-feature-settings:normal;text-align:start;letter-spacing:0px;word-spacing:0px;writing-mode:lr-tb;text-anchor:start;fill:#000000;fill-opacity:1;stroke:none;stroke-width:0.26458332"
       x="4.6572433"
       y="145.32213"
       id="text5378-7-4"
       transform="rotate(-25.433855)"><tspan
         sodipodi:role="line"
         id="tspan7175"
         x="4.6572433"
         y="145.32213">Półwiejska</tspan></text>
    <rect
       style="fill:#ff00ff;stroke:#000000;stroke-width:1.000898;stroke-linecap:round;stroke-linejoin:round;stroke-miterlimit:4;stroke-dasharray:none;stroke-opacity:1;paint-order:markers fill stroke;image-rendering:auto"
       id="rect4975-5-1-6-7-5-5-0-2"
       width="23.999102"
       height="7.9991026"
       x="136.28526"
       y="129.15045" />
    <rect
       style="fill:#ffff00;stroke:#000000;stroke-width:1.000898;stroke-linecap:round;stroke-linejoin:round;stroke-miterlimit:4;stroke-dasharray:none;stroke-opacity:1;paint-order:markers fill stroke;image-rendering:auto"
       id="rect4975-5-1-6-7-5-5-0-1-9"
       width="23.999096"
       height="7.9991021"
       x="100.67909"
       y="-50.72176"
       transform="rotate(57.700418)"
       inkscape:transform-center-x="-13.694344"
       inkscape:transform-center-y="4.3444865" />
    <rect
       style="fill:none;stroke:#000000;stroke-width:1.000898;stroke-linecap:round;stroke-linejoin:round;stroke-miterlimit:4;stroke-dasharray:none;stroke-opacity:1;paint-order:markers fill stroke;image-rendering:auto"
       id="rect4975-5-7-0-9-8-0"
       width="23.999102"
       height="7.9991026"
       x="242.46674"
       y="316.20929"
       transform="rotate(12.677668)" />
    <rect
       style="fill:#ff6600;stroke:#000000;stroke-width:1.000898;stroke-linecap:round;stroke-linejoin:round;stroke-miterlimit:4;stroke-dasharray:none;stroke-opacity:1;paint-order:markers fill stroke;image-rendering:auto"
       id="rect4975-5-7-0-9-8-11"
       width="23.999102"
       height="7.9991026"
       x="144.82956"
       y="-171.84602"
       transform="rotate(90)" />
    <rect
       style="fill:#00ffff;stroke:#000000;stroke-width:1.000898;stroke-linecap:round;stroke-linejoin:round;stroke-miterlimit:4;stroke-dasharray:none;stroke-opacity:1;paint-order:markers fill stroke;image-rendering:auto"
       id="rect4975-5-7-0-9-8-4"
       width="23.999102"
       height="7.9991026"
       x="105.43465"
       y="-171.76054"
       transform="rotate(90)" />
    <rect
       style="fill:#ff6600;stroke:#000000;stroke-width:1.000898;stroke-linecap:round;stroke-linejoin:round;stroke-miterlimit:4;stroke-dasharray:none;stroke-opacity:1;paint-order:markers fill stroke;image-rendering:auto"
       id="rect4975-5-7-0-9-8-13"
       width="23.999102"
       height="7.9991026"
       x="249.3891"
       y="-173.44212"
       transform="rotate(90)" />
    <ellipse
       style="fill:none;stroke:#000000;stroke-width:1;stroke-miterlimit:4;stroke-dasharray:none;stroke-opacity:1"
       id="path4054-42-8-1-6-8-6"
       cx="168.91006"
       cy="-278.87723"
       rx="4.0031939"
       ry="4.0031934"
       transform="scale(1,-1)" />
    <text
       xml:space="preserve"
       style="font-style:normal;font-variant:normal;font-weight:normal;font-stretch:normal;font-size:4.93888903px;line-height:1.25;font-family:sans-serif;-inkscape-font-specification:'sans-serif, Normal';font-variant-ligatures:normal;font-variant-caps:normal;font-variant-numeric:normal;font-feature-settings:normal;text-align:start;letter-spacing:0px;word-spacing:0px;writing-mode:lr-tb;text-anchor:start;fill:#000000;fill-opacity:1;stroke:none;stroke-width:0.26458332"
       x="121.49123"
       y="147.45523"
       id="text5378-7-0-9"><tspan
         sodipodi:role="line"
         id="tspan7286"
         x="121.49123"
         y="147.45523">AWF</tspan></text>
    <rect
       style="fill:none;stroke:#000000;stroke-width:1.000898;stroke-linecap:round;stroke-linejoin:round;stroke-miterlimit:4;stroke-dasharray:none;stroke-opacity:1;paint-order:markers fill stroke;image-rendering:auto"
       id="rect4975-4"
       width="23.999102"
       height="7.9991026"
       x="174.96968"
       y="41.926807" />
    <rect
       style="fill:#333333;stroke:#000000;stroke-width:1.000898;stroke-linecap:round;stroke-linejoin:round;stroke-miterlimit:4;stroke-dasharray:none;stroke-opacity:1;paint-order:markers fill stroke;image-rendering:auto"
       id="rect4975-5-1-6-7-4"
       width="23.999102"
       height="7.9991026"
       x="98.304375"
       y="133.11897" />
    <rect
       style="fill:none;stroke:#000000;stroke-width:1.000898;stroke-linecap:round;stroke-linejoin:round;stroke-miterlimit:4;stroke-dasharray:none;stroke-opacity:1;paint-order:markers fill stroke;image-rendering:auto"
       id="rect4975-5-7-0-9-8-04"
       width="23.999102"
       height="7.9991026"
       x="19.874477"
       y="-161.26407"
       transform="rotate(150.14457)"
       inkscape:transform-center-y="-1.461179"
       inkscape:transform-center-x="-0.64958028" />
    <rect
       style="fill:#ffff00;stroke:#000000;stroke-width:1.000898;stroke-linecap:round;stroke-linejoin:round;stroke-miterlimit:4;stroke-dasharray:none;stroke-opacity:1;paint-order:markers fill stroke;image-rendering:auto"
       id="rect4975-5-1-6-7-5-5-0-1-9-0"
       width="23.999096"
       height="7.9991026"
       x="45.60688"
       y="41.238495"
       transform="rotate(-0.6186638)"
       inkscape:transform-center-x="-10.889205"
       inkscape:transform-center-y="-9.3720221" />
    <rect
       style="fill:#ffff00;stroke:#000000;stroke-width:1.000898;stroke-linecap:round;stroke-linejoin:round;stroke-miterlimit:4;stroke-dasharray:none;stroke-opacity:1;paint-order:markers fill stroke;image-rendering:auto"
       id="rect4975-5-7-0-9-8-1-7-9-7-5"
       width="23.999102"
       height="7.9991026"
       x="109.51566"
       y="-82.843399"
       transform="rotate(73.285932)" />
    <rect
       style="fill:#ff6600;stroke:#000000;stroke-width:1.000898;stroke-linecap:round;stroke-linejoin:round;stroke-miterlimit:4;stroke-dasharray:none;stroke-opacity:1;paint-order:markers fill stroke;image-rendering:auto"
       id="rect4975-5-7-0-9-8-13-0"
       width="23.999102"
       height="7.9991026"
       x="223.70593"
       y="-173.4335"
       transform="rotate(90)" />
    <rect
       style="fill:#ff6600;stroke:#000000;stroke-width:1.000898;stroke-linecap:round;stroke-linejoin:round;stroke-miterlimit:4;stroke-dasharray:none;stroke-opacity:1;paint-order:markers fill stroke;image-rendering:auto"
       id="rect4975-5-7-0-9-8-13-4"
       width="23.999102"
       height="7.9991026"
       x="171.47446"
       y="-173.4335"
       transform="rotate(90)" />
    <rect
       style="fill:#ff6600;stroke:#000000;stroke-width:1.000898;stroke-linecap:round;stroke-linejoin:round;stroke-miterlimit:4;stroke-dasharray:none;stroke-opacity:1;paint-order:markers fill stroke;image-rendering:auto"
       id="rect4975-5-7-0-9-8-13-0-4"
       width="23.999102"
       height="7.9991026"
       x="197.59019"
       y="-173.4335"
       transform="rotate(90)" />
    <rect
       style="fill:#00ffff;stroke:#000000;stroke-width:1.000898;stroke-linecap:round;stroke-linejoin:round;stroke-miterlimit:4;stroke-dasharray:none;stroke-opacity:1;paint-order:markers fill stroke;image-rendering:auto"
       id="rect4975-5-7-0-9-8-4-8"
       width="23.999102"
       height="7.9991026"
       x="78.789719"
       y="-170.70222"
       transform="rotate(90)" />
    <rect
       style="fill:#00ffff;stroke:#000000;stroke-width:1.000898;stroke-linecap:round;stroke-linejoin:round;stroke-miterlimit:4;stroke-dasharray:none;stroke-opacity:1;paint-order:markers fill stroke;image-rendering:auto"
       id="rect4975-5-7-0-9-8-4-7"
       width="23.999102"
       height="7.9991026"
       x="53.203102"
       y="-169.64391"
       transform="rotate(90)" />
    <rect
       style="fill:#333333;stroke:#000000;stroke-width:1.000898;stroke-linecap:round;stroke-linejoin:round;stroke-miterlimit:4;stroke-dasharray:none;stroke-opacity:1;paint-order:markers fill stroke;image-rendering:auto;fill-opacity:1"
       id="rect4975-4-6-0"
       width="23.999102"
       height="7.9991026"
       x="112.75803"
       y="22.308128"
       transform="rotate(6.7798518)"
       inkscape:transform-center-x="-5.5897848"
       inkscape:transform-center-y="4.8567572" />
    <rect
       style="fill:#ff00ff;stroke:#000000;stroke-width:1.000898;stroke-linecap:round;stroke-linejoin:round;stroke-miterlimit:4;stroke-dasharray:none;stroke-opacity:1;paint-order:markers fill stroke;image-rendering:auto"
       id="rect4975-4-6-2"
       width="23.999102"
       height="7.9991026"
       x="46.584183"
       y="29.989725"
       transform="rotate(0.94796756)" />
    <rect
       style="fill:#333333;stroke:#000000;stroke-width:1.000898;stroke-linecap:round;stroke-linejoin:round;stroke-miterlimit:4;stroke-dasharray:none;stroke-opacity:1;paint-order:markers fill stroke;image-rendering:auto;fill-opacity:1"
       id="rect4975-4-6-0-4"
       width="23.999102"
       height="7.9991031"
       x="138.64587"
       y="22.578705"
       transform="rotate(6.7798518)"
       inkscape:transform-center-x="-5.5897696"
       inkscape:transform-center-y="4.8567554" />
    <rect
       style="fill:#ff00ff;stroke:#000000;stroke-width:1.000898;stroke-linecap:round;stroke-linejoin:round;stroke-miterlimit:4;stroke-dasharray:none;stroke-opacity:1;paint-order:markers fill stroke;image-rendering:auto"
       id="rect4975-4-6-2-1"
       width="23.999102"
       height="7.9991026"
       x="73.770073"
       y="27.829779"
       transform="rotate(2.6103017)" />
    <text
       xml:space="preserve"
       style="font-style:normal;font-variant:normal;font-weight:normal;font-stretch:normal;font-size:4.93888903px;line-height:1.25;font-family:sans-serif;-inkscape-font-specification:'sans-serif, Normal';font-variant-ligatures:normal;font-variant-caps:normal;font-variant-numeric:normal;font-feature-settings:normal;text-align:start;letter-spacing:0px;word-spacing:0px;writing-mode:lr-tb;text-anchor:start;fill:#000000;fill-opacity:1;stroke:none;stroke-width:0.26458332"
       x="73.086685"
       y="-4.8428063"
       id="text5378-7-4-5"
       transform="rotate(52.72574)"
       inkscape:transform-center-x="-5.6710545"
       inkscape:transform-center-y="2.6013998"><tspan
         sodipodi:role="line"
         id="tspan7264"
         x="73.086685"
         y="-4.8428063">Marcinkowskiego </tspan></text>
    <text
       xml:space="preserve"
       style="font-style:normal;font-variant:normal;font-weight:normal;font-stretch:normal;font-size:4.93888903px;line-height:1.25;font-family:sans-serif;-inkscape-font-specification:'sans-serif, Normal';font-variant-ligatures:normal;font-variant-caps:normal;font-variant-numeric:normal;font-feature-settings:normal;text-align:start;letter-spacing:0px;word-spacing:0px;writing-mode:lr-tb;text-anchor:start;fill:#000000;fill-opacity:1;stroke:none;stroke-width:0.26458332"
       x="173.20958"
       y="53.34911"
       id="text5378-7-4-5-0"
       transform="rotate(1.6740005)"
       inkscape:transform-center-x="-5.7951293"
       inkscape:transform-center-y="-2.6336095"><tspan
         sodipodi:role="line"
         id="tspan7284"
         x="173.20958"
         y="53.34911">Kórnicka </tspan></text>
    <text
       xml:space="preserve"
       style="font-style:normal;font-variant:normal;font-weight:normal;font-stretch:normal;font-size:4.93888903px;line-height:1.25;font-family:sans-serif;-inkscape-font-specification:'sans-serif, Normal';font-variant-ligatures:normal;font-variant-caps:normal;font-variant-numeric:normal;font-feature-settings:normal;text-align:start;letter-spacing:0px;word-spacing:0px;writing-mode:lr-tb;text-anchor:start;fill:#000000;fill-opacity:1;stroke:none;stroke-width:0.26458332"
       x="-9.7413807"
       y="217.09247"
       id="text5378-7-4-5-3"
       transform="rotate(-57.052562)"
       inkscape:transform-center-x="-0.38958309"
       inkscape:transform-center-y="-6.2680182"><tspan
         sodipodi:role="line"
         id="tspan7314"
         x="-9.7413807"
         y="217.09247">Rondo Rataje </tspan></text>
    <text
       xml:space="preserve"
       style="font-style:normal;font-variant:normal;font-weight:normal;font-stretch:normal;font-size:4.93888903px;line-height:1.25;font-family:sans-serif;-inkscape-font-specification:'sans-serif, Normal';font-variant-ligatures:normal;font-variant-caps:normal;font-variant-numeric:normal;font-feature-settings:normal;text-align:start;letter-spacing:0px;word-spacing:0px;writing-mode:lr-tb;text-anchor:start;fill:#000000;fill-opacity:1;stroke:none;stroke-width:0.26458332"
       x="-144.64069"
       y="291.28021"
       id="text5378-7-4-5-3-9"
       transform="rotate(-59.611198)"
       inkscape:transform-center-x="-0.16001335"
       inkscape:transform-center-y="-6.1744846"><tspan
         sodipodi:role="line"
         id="tspan7324"
         x="-144.64069"
         y="291.28021">Rondo Starołęka </tspan></text>
    <rect
       style="fill:#00ffff;stroke:#000000;stroke-width:1.000898;stroke-linecap:round;stroke-linejoin:round;stroke-miterlimit:4;stroke-dasharray:none;stroke-opacity:1;paint-order:markers fill stroke;image-rendering:auto"
       id="rect4975-5-1-6-7-5-5-0-2-9"
       width="23.999102"
       height="7.9991026"
       x="136.28526"
       y="138.73703" />
    <rect
       style="fill:#ff6600;stroke:#000000;stroke-width:1.000898;stroke-linecap:round;stroke-linejoin:round;stroke-miterlimit:4;stroke-dasharray:none;stroke-opacity:1;paint-order:markers fill stroke;image-rendering:auto"
       id="rect4975-5-7-0-9-8-4-7-8"
       width="23.999102"
       height="7.9991026"
       x="9.397172"
       y="-170.29472"
       transform="rotate(90)" />
    <rect
       style="fill:#ff6600;stroke:#000000;stroke-width:1.000898;stroke-linecap:round;stroke-linejoin:round;stroke-miterlimit:4;stroke-dasharray:none;stroke-opacity:1;paint-order:markers fill stroke;image-rendering:auto"
       id="rect4975-5-1-6-7-5-4"
       width="23.999102"
       height="7.9991026"
       x="9.8879185"
       y="63.414852" />
    <rect
       style="fill:#ff6600;stroke:#000000;stroke-width:1.000898;stroke-linecap:round;stroke-linejoin:round;stroke-miterlimit:4;stroke-dasharray:none;stroke-opacity:1;paint-order:markers fill stroke;image-rendering:auto"
       id="rect4975-5-1-6-7-5-4-8"
       width="23.999102"
       height="7.9991026"
       x="-71.008873"
       y="36.066181"
       transform="rotate(-90)" />
    <rect
       style="fill:#00ff00;stroke:#000000;stroke-width:1.000898;stroke-linecap:round;stroke-linejoin:round;stroke-miterlimit:4;stroke-dasharray:none;stroke-opacity:1;paint-order:markers fill stroke;image-rendering:auto"
       id="rect4975-5-1-6-7-5-4-0"
       width="23.999102"
       height="7.9991026"
       x="10.535962"
       y="11.769297" />
    <rect
       style="fill:#00ff00;stroke:#000000;stroke-width:1.000898;stroke-linecap:round;stroke-linejoin:round;stroke-miterlimit:4;stroke-dasharray:none;stroke-opacity:1;paint-order:markers fill stroke;image-rendering:auto"
       id="rect4975-5-1-6-7-5-4-8-7"
       width="23.999102"
       height="7.9991026"
       x="-35.768402"
       y="36.122566"
       transform="rotate(-90)" />
    <rect
       style="fill:#ffff00;stroke:#000000;stroke-width:1.000898;stroke-linecap:round;stroke-linejoin:round;stroke-miterlimit:4;stroke-dasharray:none;stroke-opacity:1;paint-order:markers fill stroke;image-rendering:auto"
       id="rect4975-5-1-6-7-5-5-0-1-9-3"
       width="23.999096"
       height="7.9991026"
       x="84.727295"
       y="5.3804388"
       transform="rotate(25.859024)"
       inkscape:transform-center-x="-13.925523"
       inkscape:transform-center-y="-3.5340298" />
    <ellipse
       style="fill:none;stroke:#000000;stroke-width:1;stroke-miterlimit:4;stroke-dasharray:none;stroke-opacity:1"
       id="path4054-42-8-7-0"
       cx="102.85783"
       cy="-39.423107"
       rx="4.0031939"
       ry="4.0031934"
       transform="scale(1,-1)" />
    <rect
       style="fill:#cccccc;stroke:#000000;stroke-width:1.000898;stroke-linecap:round;stroke-linejoin:round;stroke-miterlimit:4;stroke-dasharray:none;stroke-opacity:1;paint-order:markers fill stroke;image-rendering:auto"
       id="rect4975-5-7-0-9-8-4-7-8-1"
       width="23.999102"
       height="7.9991026"
       x="7.7252984"
       y="-107.04522"
       transform="rotate(90)" />
    <text
       xml:space="preserve"
       style="font-style:normal;font-variant:normal;font-weight:normal;font-stretch:normal;font-size:4.93888903px;line-height:1.25;font-family:sans-serif;-inkscape-font-specification:'sans-serif, Normal';font-variant-ligatures:normal;font-variant-caps:normal;font-variant-numeric:normal;font-feature-settings:normal;text-align:start;letter-spacing:0px;word-spacing:0px;writing-mode:lr-tb;text-anchor:start;fill:#000000;fill-opacity:1;stroke:none;stroke-width:0.26458332"
       x="105.93507"
       y="-60.523342"
       id="text5378-7-4-5-8"
       transform="rotate(52.72574)"
       inkscape:transform-center-x="-5.6710545"
       inkscape:transform-center-y="2.6013998"><tspan
         sodipodi:role="line"
         id="tspan12502"
         x="105.93507"
         y="-60.523342">Pl. Bernardyński</tspan></text>
    <rect
       style="opacity:1;vector-effect:none;fill:#cccccc;fill-opacity:1;stroke:#000000;stroke-width:1.000898;stroke-linecap:round;stroke-linejoin:round;stroke-miterlimit:4;stroke-dasharray:none;stroke-dashoffset:0;stroke-opacity:1;paint-order:markers fill stroke;image-rendering:auto"
       id="rect4975-4-8-0-1-1-4-6-13-6-1-2-9-5-5"
       width="23.999102"
       height="7.9991026"
       x="-107.38276"
       y="77.722023"
       transform="rotate(-111.09014)" />
    <path
       inkscape:connector-curvature="0"
       style="fill:#000000;fill-rule:evenodd;stroke:none;stroke-width:0.11538438"
       d="m 110.61642,54.162305 a 1.2980743,1.2980743 0 0 0 -0.32889,2.22416 1.2980743,1.2980743 0 0 0 1.28413,0.189876 l 1.96356,4.962203 a 1.2980743,1.2980743 0 0 0 -0.32889,2.224161 1.2980743,1.2980743 0 0 0 1.28414,0.189876 l 0.6899,1.743485 a 0.57692192,0.57692192 0 0 1 -0.32418,0.748734 l -1.49668,0.592232 a 0.86538284,0.86538284 0 0 1 -0.23332,0.05651 l -2.1333,0.210804 a 0.57692192,0.57692192 0 0 1 -0.59318,-0.361847 l -4.8208,-12.182879 a 0.14423048,0.14423048 0 0 1 0.081,-0.18718 l 0.26823,-0.106137 a 0.14423048,0.14423048 0 0 1 0.17368,0.05504 v -1.3e-5 a 0.14423048,0.14423048 0 0 0 0.2157,0.02936 l 1.67287,-1.466652 a 0.86538284,0.86538284 0 0 1 0.2521,-0.153957 l 1.36269,-0.539215 a 0.28846095,0.28846095 0 0 1 0.37437,0.162084 l 0.63683,1.609363 z m -2.61663,-0.340685 0.63531,1.605523 a 0.21634572,0.21634572 0 0 1 -0.12156,0.280773 l -1.47527,0.583762 a 0.21634572,0.21634572 0 0 1 -0.28078,-0.121568 l -0.42683,-1.078653 a 0.21634572,0.21634572 0 0 1 0.0586,-0.24228 l 1.26677,-1.110629 a 0.21634572,0.21634572 0 0 1 0.3438,0.08307 z m 0.9325,2.356562 0.55783,1.409725 a 0.21634572,0.21634572 0 0 1 -0.1799,0.294898 l -1.64204,0.162268 a 0.21634572,0.21634572 0 0 1 -0.22245,-0.13569 l -0.39105,-0.988234 a 0.21634572,0.21634572 0 0 1 0.12157,-0.280777 l 1.47527,-0.583763 a 0.21634572,0.21634572 0 0 1 0.28077,0.121573 z m 0.86139,2.17686 0.53493,1.35186 a 0.21634572,0.21634572 0 0 1 -0.17989,0.294899 l -1.64205,0.162258 a 0.21634572,0.21634572 0 0 1 -0.22246,-0.135691 l -0.53493,-1.35186 a 0.21634572,0.21634572 0 0 1 0.1799,-0.294902 l 1.64205,-0.162257 a 0.21634572,0.21634572 0 0 1 0.22245,0.135693 z m 0.83849,2.118995 0.53494,1.351861 a 0.21634572,0.21634572 0 0 1 -0.1799,0.294898 l -1.64205,0.162267 a 0.21634572,0.21634572 0 0 1 -0.22245,-0.13569 l -0.53493,-1.351861 a 0.21634572,0.21634572 0 0 1 0.1799,-0.29491 l 1.64204,-0.162267 a 0.21634572,0.21634572 0 0 1 0.22245,0.135702 z m 0.83849,2.118995 0.53494,1.351861 a 0.21634572,0.21634572 0 0 1 -0.17989,0.294907 l -1.64206,0.162249 a 0.21634572,0.21634572 0 0 1 -0.22245,-0.13569 l -0.53494,-1.351861 a 0.21634572,0.21634572 0 0 1 0.17991,-0.294901 l 1.64205,-0.162258 a 0.21634572,0.21634572 0 0 1 0.22244,0.135693 z m 0.8385,2.119005 0.53493,1.351851 a 0.21634572,0.21634572 0 0 1 -0.1799,0.294898 l -1.64204,0.162268 a 0.21634572,0.21634572 0 0 1 -0.22245,-0.13569 l -0.53494,-1.35187 a 0.21634572,0.21634572 0 0 1 0.1799,-0.294902 l 1.64205,-0.162248 a 0.21634572,0.21634572 0 0 1 0.22245,0.135693 z m 2.07517,-1.02768 a 1.0096134,1.0096134 0 0 1 -1.37026,-1.086478 1.0096134,1.0096134 0 0 1 1.62605,-0.643423 1.0096134,1.0096134 0 0 1 -0.25579,1.729901 m -2.9188,-7.37624 a 1.0096134,1.0096134 0 0 1 -1.37025,-1.086477 1.0096134,1.0096134 0 0 1 1.62604,-0.643424 1.0096134,1.0096134 0 0 1 -0.25579,1.729901 z"
       id="path6-7" />
    <rect
       style="opacity:1;vector-effect:none;fill:#cccccc;fill-opacity:1;stroke:#000000;stroke-width:1.000898;stroke-linecap:round;stroke-linejoin:round;stroke-miterlimit:4;stroke-dasharray:none;stroke-dashoffset:0;stroke-opacity:1;paint-order:markers fill stroke;image-rendering:auto"
       id="rect4975-4-8-0-1-1-4-6-13-6-1-2-9-5-5-9"
       width="23.999102"
       height="7.9991026"
       x="-138.61853"
       y="79.793182"
       transform="rotate(-111.09014)" />
    <path
       inkscape:connector-curvature="0"
       style="fill:#000000;fill-rule:evenodd;stroke:none;stroke-width:0.11538438"
       d="m 123.7886,82.560633 a 1.2980743,1.2980743 0 0 0 -0.32889,2.22416 1.2980743,1.2980743 0 0 0 1.28413,0.189876 l 1.96356,4.962203 a 1.2980743,1.2980743 0 0 0 -0.32889,2.224161 1.2980743,1.2980743 0 0 0 1.28414,0.189876 l 0.6899,1.743485 a 0.57692192,0.57692192 0 0 1 -0.32418,0.748734 l -1.49668,0.592232 a 0.86538284,0.86538284 0 0 1 -0.23332,0.05651 l -2.1333,0.210804 a 0.57692192,0.57692192 0 0 1 -0.59318,-0.361847 l -4.8208,-12.182879 a 0.14423048,0.14423048 0 0 1 0.081,-0.18718 l 0.26823,-0.106137 a 0.14423048,0.14423048 0 0 1 0.17368,0.05504 v -1.3e-5 a 0.14423048,0.14423048 0 0 0 0.2157,0.02936 l 1.67287,-1.466652 a 0.86538284,0.86538284 0 0 1 0.2521,-0.153957 l 1.36269,-0.539215 a 0.28846095,0.28846095 0 0 1 0.37437,0.162084 l 0.63683,1.609363 z m -2.61663,-0.340685 0.63531,1.605523 a 0.21634572,0.21634572 0 0 1 -0.12156,0.280773 l -1.47527,0.583762 a 0.21634572,0.21634572 0 0 1 -0.28078,-0.121568 l -0.42683,-1.078653 a 0.21634572,0.21634572 0 0 1 0.0586,-0.24228 l 1.26677,-1.110629 a 0.21634572,0.21634572 0 0 1 0.3438,0.08307 z m 0.9325,2.356562 0.55783,1.409725 a 0.21634572,0.21634572 0 0 1 -0.1799,0.294898 l -1.64204,0.162268 a 0.21634572,0.21634572 0 0 1 -0.22245,-0.13569 l -0.39105,-0.988234 a 0.21634572,0.21634572 0 0 1 0.12157,-0.280777 l 1.47527,-0.583763 a 0.21634572,0.21634572 0 0 1 0.28077,0.121573 z m 0.86139,2.17686 0.53493,1.35186 a 0.21634572,0.21634572 0 0 1 -0.17989,0.294899 l -1.64205,0.162258 a 0.21634572,0.21634572 0 0 1 -0.22246,-0.135691 l -0.53493,-1.35186 a 0.21634572,0.21634572 0 0 1 0.1799,-0.294902 l 1.64205,-0.162257 a 0.21634572,0.21634572 0 0 1 0.22245,0.135693 z m 0.83849,2.118995 0.53494,1.351861 a 0.21634572,0.21634572 0 0 1 -0.1799,0.294898 l -1.64205,0.162267 a 0.21634572,0.21634572 0 0 1 -0.22245,-0.13569 l -0.53493,-1.351861 a 0.21634572,0.21634572 0 0 1 0.1799,-0.29491 l 1.64204,-0.162267 a 0.21634572,0.21634572 0 0 1 0.22245,0.135702 z m 0.83849,2.118995 0.53494,1.351861 a 0.21634572,0.21634572 0 0 1 -0.17989,0.294907 l -1.64206,0.162249 a 0.21634572,0.21634572 0 0 1 -0.22245,-0.13569 l -0.53494,-1.351861 a 0.21634572,0.21634572 0 0 1 0.17991,-0.294901 l 1.64205,-0.162258 a 0.21634572,0.21634572 0 0 1 0.22244,0.135693 z m 0.8385,2.119005 0.53493,1.351851 a 0.21634572,0.21634572 0 0 1 -0.1799,0.294898 l -1.64204,0.162268 a 0.21634572,0.21634572 0 0 1 -0.22245,-0.13569 l -0.53494,-1.35187 a 0.21634572,0.21634572 0 0 1 0.1799,-0.294902 l 1.64205,-0.162248 a 0.21634572,0.21634572 0 0 1 0.22245,0.135693 z m 2.07517,-1.02768 a 1.0096134,1.0096134 0 0 1 -1.37026,-1.086478 1.0096134,1.0096134 0 0 1 1.62605,-0.643423 1.0096134,1.0096134 0 0 1 -0.25579,1.729901 m -2.9188,-7.37624 a 1.0096134,1.0096134 0 0 1 -1.37025,-1.086477 1.0096134,1.0096134 0 0 1 1.62604,-0.643424 1.0096134,1.0096134 0 0 1 -0.25579,1.729901 z"
       id="path6-7-4" />
    <rect
       style="fill:#cccccc;stroke:#000000;stroke-width:1.000898;stroke-linecap:round;stroke-linejoin:round;stroke-miterlimit:4;stroke-dasharray:none;stroke-opacity:1;paint-order:markers fill stroke;image-rendering:auto"
       id="rect4975-5-7-7-8-4-6-6-4-7-9-6-9-5-2-5"
       width="23.999102"
       height="7.9991026"
       x="121.45924"
       y="-114.43509"
       transform="rotate(81.438418)" />
    <rect
       style="opacity:1;vector-effect:none;fill:#cccccc;fill-opacity:1;stroke:#000000;stroke-width:1.000898;stroke-linecap:round;stroke-linejoin:round;stroke-miterlimit:4;stroke-dasharray:none;stroke-dashoffset:0;stroke-opacity:1;paint-order:markers fill stroke;image-rendering:auto"
       id="rect4975-4-8-0-1-1-4-6-13-6-1-2-9-5-5-8-0"
       width="23.999102"
       height="7.9991026"
       x="156.44981"
       y="150.03276"
       transform="rotate(-7.1366385)" />
    <path
       inkscape:connector-curvature="0"
       style="fill:#000000;fill-rule:evenodd;stroke:none;stroke-width:0.11538438"
       d="m 191.53464,133.26454 a 1.2980743,1.2980743 0 0 0 -2.07923,-0.85551 1.2980743,1.2980743 0 0 0 -0.49391,1.20044 l -5.28926,0.70906 a 1.2980743,1.2980743 0 0 0 -2.07922,-0.85551 1.2980743,1.2980743 0 0 0 -0.49392,1.20045 l -1.85839,0.24912 a 0.57692192,0.57692192 0 0 1 -0.64848,-0.49516 l -0.21386,-1.5953 a 0.86538284,0.86538284 0 0 1 0.001,-0.24007 l 0.30982,-2.12118 a 0.57692192,0.57692192 0 0 1 0.49421,-0.48842 l 12.98585,-1.7408 a 0.14423048,0.14423048 0 0 1 0.16208,0.12381 l 0.0384,0.28588 a 0.14423048,0.14423048 0 0 1 -0.0953,0.15529 l 1e-5,1e-5 a 0.14423048,0.14423048 0 0 0 -0.0805,0.20225 l 1.01999,1.97716 a 0.86538284,0.86538284 0 0 1 0.0887,0.28177 l 0.19472,1.4525 a 0.28846095,0.28846095 0 0 1 -0.24758,0.32423 l -1.71543,0.22997 z m 0.96158,-2.45726 -1.71133,0.22941 a 0.21634572,0.21634572 0 0 1 -0.24318,-0.18568 l -0.21081,-1.57249 a 0.21634572,0.21634572 0 0 1 0.1857,-0.24317 l 1.14974,-0.15414 a 0.21634572,0.21634572 0 0 1 0.22101,0.11525 l 0.77238,1.4972 a 0.21634572,0.21634572 0 0 1 -0.16352,0.31363 z m -2.51187,0.33672 -1.50264,0.20144 a 0.21634572,0.21634572 0 0 1 -0.24281,-0.24569 l 0.23847,-1.63271 a 0.21634572,0.21634572 0 0 1 0.18533,-0.18316 l 1.05336,-0.14121 a 0.21634572,0.21634572 0 0 1 0.24318,0.18569 l 0.2108,1.57248 a 0.21634572,0.21634572 0 0 1 -0.18569,0.24317 z m -2.32033,0.31105 -1.44097,0.19318 a 0.21634572,0.21634572 0 0 1 -0.24281,-0.2457 l 0.23848,-1.63271 a 0.21634572,0.21634572 0 0 1 0.18533,-0.18316 l 1.44096,-0.19317 a 0.21634572,0.21634572 0 0 1 0.24282,0.24571 l -0.23848,1.63271 a 0.21634572,0.21634572 0 0 1 -0.18532,0.18316 z m -2.25866,0.30279 -1.44096,0.19316 a 0.21634572,0.21634572 0 0 1 -0.24282,-0.24569 l 0.23848,-1.63271 a 0.21634572,0.21634572 0 0 1 0.18533,-0.18316 l 1.44095,-0.19318 a 0.21634572,0.21634572 0 0 1 0.24284,0.24571 l -0.23848,1.63271 a 0.21634572,0.21634572 0 0 1 -0.18534,0.18317 z m -2.25865,0.30278 -1.44096,0.19317 a 0.21634572,0.21634572 0 0 1 -0.24283,-0.24569 l 0.23848,-1.63272 a 0.21634572,0.21634572 0 0 1 0.18534,-0.18316 l 1.44096,-0.19317 a 0.21634572,0.21634572 0 0 1 0.24282,0.24572 l -0.23849,1.6327 a 0.21634572,0.21634572 0 0 1 -0.18532,0.18316 z m -2.25867,0.30279 -1.44095,0.19316 a 0.21634572,0.21634572 0 0 1 -0.24282,-0.24569 l 0.23847,-1.63272 a 0.21634572,0.21634572 0 0 1 0.18533,-0.18316 l 1.44097,-0.19317 a 0.21634572,0.21634572 0 0 1 0.24282,0.2457 l -0.23849,1.63272 a 0.21634572,0.21634572 0 0 1 -0.18533,0.18316 z m 0.49697,2.26173 a 1.0096134,1.0096134 0 0 1 1.38482,-1.06783 1.0096134,1.0096134 0 0 1 0.23234,1.73321 1.0096134,1.0096134 0 0 1 -1.61716,-0.66538 m 7.86239,-1.05399 a 1.0096134,1.0096134 0 0 1 1.38483,-1.06782 1.0096134,1.0096134 0 0 1 0.23235,1.73321 1.0096134,1.0096134 0 0 1 -1.61718,-0.66539 z"
       id="path6-7-6-3" />
    <rect
       style="opacity:1;vector-effect:none;fill:#cccccc;fill-opacity:1;stroke:#000000;stroke-width:1.000898;stroke-linecap:round;stroke-linejoin:round;stroke-miterlimit:4;stroke-dasharray:none;stroke-dashoffset:0;stroke-opacity:1;paint-order:markers fill stroke;image-rendering:auto"
       id="rect4975-4-8-0-1-1-4-6-13-6-1-2-9-5-5-8-0-7"
       width="23.999102"
       height="7.9991026"
       x="195.2299"
       y="108.88411"
       transform="rotate(9.256709)" />
    <path
       inkscape:connector-curvature="0"
       style="fill:#000000;fill-rule:evenodd;stroke:none;stroke-width:0.11538438"
       d="m 191.03117,147.52885 a 1.2980743,1.2980743 0 0 0 -1.75325,-1.40755 1.2980743,1.2980743 0 0 0 -0.81263,1.01224 l -5.27435,-0.81255 a 1.2980743,1.2980743 0 0 0 -1.75325,-1.40755 1.2980743,1.2980743 0 0 0 -0.81264,1.01225 l -1.85315,-0.2855 a 0.57692192,0.57692192 0 0 1 -0.48237,-0.65805 l 0.24508,-1.59081 a 0.86538284,0.86538284 0 0 1 0.0687,-0.23002 l 0.89589,-1.94751 a 0.57692192,0.57692192 0 0 1 0.61196,-0.32908 l 12.94924,1.99496 a 0.14423048,0.14423048 0 0 1 0.12055,0.16452 l -0.0438,0.2851 a 0.14423048,0.14423048 0 0 1 -0.13526,0.12208 v 1e-5 a 0.14423048,0.14423048 0 0 0 -0.13431,0.17131 l 0.42051,2.18465 a 0.86538284,0.86538284 0 0 1 0.006,0.29535 l -0.22313,1.44841 a 0.28846095,0.28846095 0 0 1 -0.32903,0.24117 l -1.71059,-0.26352 z m 1.616,-2.08597 -1.7065,-0.26291 a 0.21634572,0.21634572 0 0 1 -0.18089,-0.24676 l 0.24156,-1.56806 a 0.21634572,0.21634572 0 0 1 0.24678,-0.18088 l 1.14651,0.17662 a 0.21634572,0.21634572 0 0 1 0.17949,0.17294 l 0.31843,1.65432 a 0.21634572,0.21634572 0 0 1 -0.24539,0.25473 z m -2.50478,-0.3859 -1.49841,-0.23084 a 0.21634572,0.21634572 0 0 1 -0.1636,-0.30423 l 0.68958,-1.49903 a 0.21634572,0.21634572 0 0 1 0.22949,-0.12341 l 1.05039,0.16182 a 0.21634572,0.21634572 0 0 1 0.18089,0.24678 l -0.24158,1.56805 a 0.21634572,0.21634572 0 0 1 -0.24677,0.18087 z m -2.31379,-0.35646 -1.43691,-0.22136 a 0.21634572,0.21634572 0 0 1 -0.1636,-0.30424 l 0.68959,-1.49903 a 0.21634572,0.21634572 0 0 1 0.22949,-0.1234 l 1.43689,0.22136 a 0.21634572,0.21634572 0 0 1 0.16361,0.30425 l -0.68959,1.49903 a 0.21634572,0.21634572 0 0 1 -0.22948,0.12341 z m -2.2523,-0.34698 -1.43689,-0.22138 a 0.21634572,0.21634572 0 0 1 -0.16361,-0.30423 l 0.68958,-1.49903 a 0.21634572,0.21634572 0 0 1 0.22949,-0.12341 l 1.4369,0.22136 a 0.21634572,0.21634572 0 0 1 0.16362,0.30426 l -0.68959,1.49902 a 0.21634572,0.21634572 0 0 1 -0.2295,0.12342 z m -2.25228,-0.34699 -1.4369,-0.22136 a 0.21634572,0.21634572 0 0 1 -0.16362,-0.30424 l 0.68959,-1.49904 a 0.21634572,0.21634572 0 0 1 0.2295,-0.1234 l 1.4369,0.22136 a 0.21634572,0.21634572 0 0 1 0.1636,0.30426 l -0.68959,1.49902 a 0.21634572,0.21634572 0 0 1 -0.22948,0.12341 z m -2.2523,-0.34698 -1.43689,-0.22137 a 0.21634572,0.21634572 0 0 1 -0.16361,-0.30424 l 0.68958,-1.49904 a 0.21634572,0.21634572 0 0 1 0.22949,-0.12341 l 1.43691,0.22137 a 0.21634572,0.21634572 0 0 1 0.1636,0.30424 l -0.68959,1.49904 a 0.21634572,0.21634572 0 0 1 -0.22949,0.12341 z m -0.16157,2.31004 a 1.0096134,1.0096134 0 0 1 1.6299,-0.63358 1.0096134,1.0096134 0 0 1 -0.26627,1.72832 1.0096134,1.0096134 0 0 1 -1.36363,-1.09474 m 7.84023,1.20786 a 1.0096134,1.0096134 0 0 1 1.6299,-0.63357 1.0096134,1.0096134 0 0 1 -0.26626,1.72833 1.0096134,1.0096134 0 0 1 -1.36364,-1.09476 z"
       id="path6-7-6-3-0" />
  </g>
</svg>
