<?xml version="1.0" encoding="UTF-8" standalone="no"?>
<!-- Created with Inkscape (http://www.inkscape.org/) -->

<svg
   xmlns:dc="http://purl.org/dc/elements/1.1/"
   xmlns:cc="http://creativecommons.org/ns#"
   xmlns:rdf="http://www.w3.org/1999/02/22-rdf-syntax-ns#"
   xmlns:svg="http://www.w3.org/2000/svg"
   xmlns="http://www.w3.org/2000/svg"
   xmlns:sodipodi="http://sodipodi.sourceforge.net/DTD/sodipodi-0.dtd"
   xmlns:inkscape="http://www.inkscape.org/namespaces/inkscape"
   width="210mm"
   height="297mm"
   viewBox="0 0 210 297"
   version="1.1"
   id="svg1219"
   sodipodi:docname="tramwaje 7.svg"
   inkscape:version="0.92.2 (5c3e80d, 2017-08-06)"
   inkscape:export-filename="/home/kolendo@primesoft.local/Documents/tramwaje/tramwaje 7.png"
   inkscape:export-xdpi="96"
   inkscape:export-ydpi="96">
  <defs
     id="defs1213" />
  <sodipodi:namedview
     id="base"
     pagecolor="#ffffff"
     bordercolor="#666666"
     borderopacity="1.0"
     inkscape:pageopacity="0.0"
     inkscape:pageshadow="2"
     inkscape:zoom="0.49497475"
     inkscape:cx="-542.96356"
     inkscape:cy="479.10616"
     inkscape:document-units="mm"
     inkscape:current-layer="layer1"
     showgrid="false"
     inkscape:window-width="1920"
     inkscape:window-height="981"
     inkscape:window-x="1366"
     inkscape:window-y="28"
     inkscape:window-maximized="1" />
  <metadata
     id="metadata1216">
    <rdf:RDF>
      <cc:Work
         rdf:about="">
        <dc:format>image/svg+xml</dc:format>
        <dc:type
           rdf:resource="http://purl.org/dc/dcmitype/StillImage" />
        <dc:title />
      </cc:Work>
    </rdf:RDF>
  </metadata>
  <g
     inkscape:label="Layer 1"
     inkscape:groupmode="layer"
     id="layer1">
    <path
       style="fill:none;stroke:#000000;stroke-width:1.965;stroke-linecap:butt;stroke-linejoin:miter;stroke-opacity:1;stroke-miterlimit:4;stroke-dasharray:5.895,1.965;stroke-dashoffset:0"
       d="M 10.690781,172.4524 H 198.84853"
       id="path6003"
       inkscape:connector-curvature="0" />
    <path
       style="fill:none;stroke:#5599ff;stroke-width:4.91689157;stroke-linecap:butt;stroke-linejoin:miter;stroke-miterlimit:4;stroke-dasharray:none;stroke-opacity:1"
       d="m 142.81585,105.66862 9.12032,146.71504"
       id="path12612"
       inkscape:connector-curvature="0" />
    <ellipse
       style="fill:none;stroke:#000000;stroke-width:1;stroke-miterlimit:4;stroke-dasharray:none;stroke-opacity:1"
       id="path4054-2-4-8"
       cx="165.61554"
       cy="219.14261"
       rx="4.0031939"
       ry="4.0031934"
       inkscape:transform-center-x="-0.53453905"
       inkscape:transform-center-y="-0.53453905" />
    <rect
       style="fill:#00ff00;stroke:#000000;stroke-width:1.000898;stroke-linecap:round;stroke-linejoin:round;stroke-miterlimit:4;stroke-dasharray:none;stroke-opacity:1;paint-order:markers fill stroke;image-rendering:auto"
       id="rect4975-4-8-0-1-1-4"
       width="23.999102"
       height="7.9991026"
       x="174.6449"
       y="207.88026" />
    <rect
       style="fill:#ff6600;stroke:#000000;stroke-width:1.000898;stroke-linecap:round;stroke-linejoin:round;stroke-miterlimit:4;stroke-dasharray:none;stroke-opacity:1;paint-order:markers fill stroke;image-rendering:auto"
       id="rect4975-5-7-7-8-4-6-6-4-7-9-6"
       width="23.999102"
       height="7.9991026"
       x="234.21303"
       y="-169.3533"
       transform="rotate(90)" />
    <rect
       style="fill:#ff6600;stroke:#000000;stroke-width:1.000898;stroke-linecap:round;stroke-linejoin:round;stroke-miterlimit:4;stroke-dasharray:none;stroke-opacity:1;paint-order:markers fill stroke;image-rendering:auto"
       id="rect4975-5-7-7-8-4-6-6-4-7-9-6-3"
       width="23.999102"
       height="7.9991026"
       x="260.32889"
       y="-169.3533"
       transform="rotate(90)" />
    <rect
       style="fill:#ff00ff;stroke:#000000;stroke-width:1.000898;stroke-linecap:round;stroke-linejoin:round;stroke-miterlimit:4;stroke-dasharray:none;stroke-opacity:1;paint-order:markers fill stroke;image-rendering:auto"
       id="rect4975-5-7-7-8-4-6-6-4-7-9-6-34"
       width="23.999102"
       height="7.9991026"
       x="187.05611"
       y="-162.47423"
       transform="rotate(90)" />
    <rect
       style="fill:#ff00ff;stroke:#000000;stroke-width:1.000898;stroke-linecap:round;stroke-linejoin:round;stroke-miterlimit:4;stroke-dasharray:none;stroke-opacity:1;paint-order:markers fill stroke;image-rendering:auto"
       id="rect4975-5-7-7-8-4-6-6-4-7-9-6-9"
       width="23.999102"
       height="7.9991026"
       x="160.94037"
       y="-162.47423"
       transform="rotate(90)" />
    <rect
       style="fill:#00ffff;stroke:#000000;stroke-width:1.000898;stroke-linecap:round;stroke-linejoin:round;stroke-miterlimit:4;stroke-dasharray:none;stroke-opacity:1;paint-order:markers fill stroke;image-rendering:auto"
       id="rect4975-4-8-0-1-1-4-0"
       width="23.999102"
       height="7.9991026"
       x="69.591286"
       y="216.1599" />
    <rect
       style="fill:#00ffff;stroke:#000000;stroke-width:1.000898;stroke-linecap:round;stroke-linejoin:round;stroke-miterlimit:4;stroke-dasharray:none;stroke-opacity:1;paint-order:markers fill stroke;image-rendering:auto"
       id="rect4975-4-8-0-1-1-4-14"
       width="23.999102"
       height="7.9991026"
       x="11.009733"
       y="210.8683" />
    <rect
       style="fill:#00ffff;stroke:#000000;stroke-width:1.000898;stroke-linecap:round;stroke-linejoin:round;stroke-miterlimit:4;stroke-dasharray:none;stroke-opacity:1;paint-order:markers fill stroke;image-rendering:auto"
       id="rect4975-4-8-0-1-1-4-6-13"
       width="23.999102"
       height="7.9991026"
       x="78.321373"
       y="200.15814"
       inkscape:transform-center-x="-3.7861537"
       inkscape:transform-center-y="-15.07012"
       transform="rotate(10.157675)" />
    <ellipse
       style="fill:none;stroke:#000000;stroke-width:1;stroke-miterlimit:4;stroke-dasharray:none;stroke-opacity:1"
       id="path4054-2-4-8-5"
       cx="162.15169"
       cy="154.35179"
       rx="4.0031939"
       ry="4.0031934"
       inkscape:transform-center-x="-0.53453905"
       inkscape:transform-center-y="-0.53453905" />
    <ellipse
       style="fill:none;stroke:#000000;stroke-width:1;stroke-miterlimit:4;stroke-dasharray:none;stroke-opacity:1"
       id="path4054-2-4-8-5-0"
       cx="105.51781"
       cy="124.64548"
       rx="4.0031939"
       ry="4.0031934"
       inkscape:transform-center-x="-0.53453905"
       inkscape:transform-center-y="-0.53453905" />
    <rect
       style="fill:#ff00ff;stroke:#000000;stroke-width:1.000898;stroke-linecap:round;stroke-linejoin:round;stroke-miterlimit:4;stroke-dasharray:none;stroke-opacity:1;paint-order:markers fill stroke;image-rendering:auto"
       id="rect4975-4-8-0-1-1-4-14-0"
       width="23.999102"
       height="7.9991026"
       x="11.434942"
       y="151.50044" />
    <rect
       style="fill:#ff00ff;stroke:#000000;stroke-width:1.000898;stroke-linecap:round;stroke-linejoin:round;stroke-miterlimit:4;stroke-dasharray:none;stroke-opacity:1;paint-order:markers fill stroke;image-rendering:auto"
       id="rect4975-4-8-0-1-1-4-14-0-7"
       width="23.999102"
       height="7.9991026"
       x="37.021557"
       y="151.50044" />
    <rect
       style="opacity:1;vector-effect:none;fill:#ff00ff;fill-opacity:1;stroke:#000000;stroke-width:1.000898;stroke-linecap:round;stroke-linejoin:round;stroke-miterlimit:4;stroke-dasharray:none;stroke-dashoffset:0;stroke-opacity:1;paint-order:markers fill stroke;image-rendering:auto"
       id="rect4975-4-8-0-1-1-4-6-13-6"
       width="23.999102"
       height="7.9991026"
       x="-71.128891"
       y="153.7757"
       transform="rotate(-54.56587)" />
    <text
       xml:space="preserve"
       style="font-style:normal;font-variant:normal;font-weight:normal;font-stretch:normal;font-size:4.93888903px;line-height:1.25;font-family:sans-serif;-inkscape-font-specification:'sans-serif, Normal';font-variant-ligatures:normal;font-variant-caps:normal;font-variant-numeric:normal;font-feature-settings:normal;text-align:start;letter-spacing:0px;word-spacing:0px;writing-mode:lr-tb;text-anchor:start;fill:#000000;fill-opacity:1;stroke:none;stroke-width:0.26458332"
       x="77.327881"
       y="122.01006"
       id="text5378-7-9"><tspan
         sodipodi:role="line"
         id="tspan1538"
         x="77.327881"
         y="122.01006">Wilczak </tspan><tspan
         sodipodi:role="line"
         id="tspan1540"
         x="77.327881"
         y="128.18367" /></text>
    <text
       xml:space="preserve"
       style="font-style:normal;font-variant:normal;font-weight:normal;font-stretch:normal;font-size:4.93888903px;line-height:1.25;font-family:sans-serif;-inkscape-font-specification:'sans-serif, Normal';font-variant-ligatures:normal;font-variant-caps:normal;font-variant-numeric:normal;font-feature-settings:normal;text-align:start;letter-spacing:0px;word-spacing:0px;writing-mode:lr-tb;text-anchor:start;fill:#000000;fill-opacity:1;stroke:none;stroke-width:0.26458332"
       x="169.06721"
       y="155.58237"
       id="text5378-7-9-8"><tspan
         sodipodi:role="line"
         id="tspan1550"
         x="169.06721"
         y="155.58237">Zawady </tspan></text>
    <rect
       style="fill:#ffff00;stroke:#000000;stroke-width:1.000898;stroke-linecap:round;stroke-linejoin:round;stroke-miterlimit:4;stroke-dasharray:none;stroke-opacity:1;paint-order:markers fill stroke;image-rendering:auto"
       id="rect4975-4-8-0-1-1-4-3"
       width="23.999102"
       height="7.9991026"
       x="174.6449"
       y="217.46684" />
    <rect
       style="fill:none;stroke:#000000;stroke-width:0.37200001;stroke-linecap:round;stroke-linejoin:round;stroke-miterlimit:4;stroke-dasharray:0.372, 2.23200002;stroke-dashoffset:0;stroke-opacity:1;paint-order:markers fill stroke"
       id="rect5601"
       width="188.92807"
       height="278.92807"
       x="10.53865"
       y="7.5359116" />
    <rect
       style="fill:#cccccc;stroke:#000000;stroke-width:1.000898;stroke-linecap:round;stroke-linejoin:round;stroke-miterlimit:4;stroke-dasharray:none;stroke-opacity:1;paint-order:markers fill stroke;image-rendering:auto"
       id="rect4975-5-7-7-8-4-6-6-4-7-9-6-9-5"
       width="23.999102"
       height="7.9991026"
       x="126.17628"
       y="-164.91919"
       transform="rotate(89.526797)" />
    <rect
       style="fill:#cccccc;stroke:#000000;stroke-width:1.000898;stroke-linecap:round;stroke-linejoin:round;stroke-miterlimit:4;stroke-dasharray:none;stroke-opacity:1;paint-order:markers fill stroke;image-rendering:auto"
       id="rect4975-5-7-7-8-4-6-6-4-7-9-6-9-5-5"
       width="23.999102"
       height="7.9991026"
       x="100.06067"
       y="-164.93665"
       transform="rotate(89.526797)" />
    <rect
       style="fill:#ffffff;stroke:#000000;stroke-width:1.000898;stroke-linecap:round;stroke-linejoin:round;stroke-miterlimit:4;stroke-dasharray:none;stroke-opacity:1;paint-order:markers fill stroke;image-rendering:auto"
       id="rect4975-5-7-7-8-4-6-6-4-7-9-6-34-1"
       width="23.999102"
       height="7.9991026"
       x="187.05611"
       y="-172.06081"
       transform="rotate(90)" />
    <rect
       style="fill:#ffffff;stroke:#000000;stroke-width:1.000898;stroke-linecap:round;stroke-linejoin:round;stroke-miterlimit:4;stroke-dasharray:none;stroke-opacity:1;paint-order:markers fill stroke;image-rendering:auto"
       id="rect4975-5-7-7-8-4-6-6-4-7-9-6-9-4"
       width="23.999102"
       height="7.9991026"
       x="160.94037"
       y="-172.06081"
       transform="rotate(90)" />
    <path
       style="opacity:1;fill:none;fill-opacity:1;stroke:#5599ff;stroke-width:11;stroke-linecap:butt;stroke-linejoin:miter;stroke-miterlimit:4;stroke-dasharray:none;stroke-dashoffset:0;stroke-opacity:1"
       d="m 156.0854,7.2798341 -0.53454,61.4719909 -38.48681,125.082135 32.07234,60.93745 -1.60361,31.53781"
       id="path10811"
       inkscape:connector-curvature="0" />
    <rect
       style="fill:#00ff00;stroke:#000000;stroke-width:1.000898;stroke-linecap:round;stroke-linejoin:round;stroke-miterlimit:4;stroke-dasharray:none;stroke-opacity:1;paint-order:markers fill stroke;image-rendering:auto"
       id="rect4975-4-8-0-1-1-4-1"
       width="23.999102"
       height="7.9991026"
       x="108.06448"
       y="215.63074" />
    <rect
       style="opacity:1;vector-effect:none;fill:#cccccc;fill-opacity:1;stroke:#000000;stroke-width:1.000898;stroke-linecap:round;stroke-linejoin:round;stroke-miterlimit:4;stroke-dasharray:none;stroke-dashoffset:0;stroke-opacity:1;paint-order:markers fill stroke;image-rendering:auto"
       id="rect4975-4-8-0-1-1-4-6-13-6-1-2-9-5-9"
       width="23.999102"
       height="7.9991026"
       x="36.247665"
       y="155.15889"
       transform="rotate(-30.051637)" />
    <path
       inkscape:connector-curvature="0"
       style="fill:#000000;fill-rule:evenodd;stroke:none;stroke-width:0.11538438"
       d="m 126.83201,112.80238 a 1.2980743,1.2980743 0 0 0 -2.24823,0.0216 1.2980743,1.2980743 0 0 0 0.0125,1.29803 l -4.59577,2.71255 a 1.2980743,1.2980743 0 0 0 -2.24824,0.0216 1.2980743,1.2980743 0 0 0 0.0125,1.29802 l -1.61474,0.95307 a 0.57692192,0.57692192 0 0 1 -0.79008,-0.20361 l -0.81814,-1.38613 a 0.86538284,0.86538284 0 0 1 -0.0922,-0.22166 l -0.54053,-2.07441 a 0.57692192,0.57692192 0 0 1 0.26503,-0.64231 l 11.28324,-6.65967 a 0.14423048,0.14423048 0 0 1 0.19751,0.0509 l 0.14663,0.24843 a 0.14423048,0.14423048 0 0 1 -0.0273,0.18013 l 10e-6,-1e-5 a 0.14423048,0.14423048 0 0 0 0.005,0.21764 l 1.70933,1.42398 a 0.86538284,0.86538284 0 0 1 0.19136,0.22503 l 0.7449,1.26206 a 0.28846095,0.28846095 0 0 1 -0.10185,0.39504 l -1.49051,0.87974 z m -0.071,-2.63775 -1.48697,0.87765 a 0.21634572,0.21634572 0 0 1 -0.29628,-0.0763 l -0.80644,-1.36631 a 0.21634572,0.21634572 0 0 1 0.0763,-0.29629 l 0.999,-0.58964 a 0.21634572,0.21634572 0 0 1 0.24841,0.0204 l 1.2944,1.07831 a 0.21634572,0.21634572 0 0 1 -0.0285,0.35253 z m -2.18255,1.2882 -1.30562,0.77061 a 0.21634572,0.21634572 0 0 1 -0.31931,-0.13179 l -0.41608,-1.59672 a 0.21634572,0.21634572 0 0 1 0.0994,-0.24087 l 0.91526,-0.54021 a 0.21634572,0.21634572 0 0 1 0.29629,0.0763 l 0.80643,1.36631 a 0.21634572,0.21634572 0 0 1 -0.0764,0.29628 z m -2.0161,1.18996 -1.25204,0.73899 a 0.21634572,0.21634572 0 0 1 -0.31932,-0.1318 l -0.41606,-1.59673 a 0.21634572,0.21634572 0 0 1 0.0994,-0.24086 l 1.25204,-0.73898 a 0.21634572,0.21634572 0 0 1 0.31931,0.13179 l 0.41606,1.59672 a 0.21634572,0.21634572 0 0 1 -0.0994,0.24087 z m -1.96252,1.15833 -1.25203,0.73899 a 0.21634572,0.21634572 0 0 1 -0.31932,-0.1318 l -0.41607,-1.59672 a 0.21634572,0.21634572 0 0 1 0.0994,-0.24086 l 1.25203,-0.73899 a 0.21634572,0.21634572 0 0 1 0.31932,0.13179 l 0.41607,1.59672 a 0.21634572,0.21634572 0 0 1 -0.0994,0.24087 z m -1.96252,1.15833 -1.25204,0.73898 a 0.21634572,0.21634572 0 0 1 -0.31932,-0.13179 l -0.41606,-1.59672 a 0.21634572,0.21634572 0 0 1 0.0994,-0.24087 l 1.25204,-0.73898 a 0.21634572,0.21634572 0 0 1 0.31932,0.13179 l 0.41606,1.59673 a 0.21634572,0.21634572 0 0 1 -0.0994,0.24086 z m -1.96253,1.15834 -1.25202,0.73897 a 0.21634572,0.21634572 0 0 1 -0.31932,-0.13179 l -0.41612,-1.59672 a 0.21634572,0.21634572 0 0 1 0.0994,-0.24087 l 1.25204,-0.73898 a 0.21634572,0.21634572 0 0 1 0.31932,0.13179 l 0.41606,1.59672 a 0.21634572,0.21634572 0 0 1 -0.0994,0.24087 z m 1.33838,1.88973 a 1.0096134,1.0096134 0 0 1 0.85977,-1.52276 1.0096134,1.0096134 0 0 1 0.88886,1.50597 1.0096134,1.0096134 0 0 1 -1.74863,0.0168 m 6.83154,-4.03215 a 1.0096134,1.0096134 0 0 1 0.85978,-1.52276 1.0096134,1.0096134 0 0 1 0.88886,1.50596 1.0096134,1.0096134 0 0 1 -1.74864,0.0168 z"
       id="path6-6" />
    <rect
       style="opacity:1;vector-effect:none;fill:#cccccc;fill-opacity:1;stroke:#000000;stroke-width:1.000898;stroke-linecap:round;stroke-linejoin:round;stroke-miterlimit:4;stroke-dasharray:none;stroke-dashoffset:0;stroke-opacity:1;paint-order:markers fill stroke;image-rendering:auto"
       id="rect4975-4-8-0-1-1-4-6-13-6-1-2-9-5-9-9"
       width="23.999102"
       height="7.9991026"
       x="62.150928"
       y="155.03781"
       transform="rotate(-30.051637)" />
    <path
       inkscape:connector-curvature="0"
       style="fill:#000000;fill-rule:evenodd;stroke:none;stroke-width:0.11538438"
       d="m 149.19263,99.725693 a 1.2980743,1.2980743 0 0 0 -2.24822,0.0216 1.2980743,1.2980743 0 0 0 0.0125,1.298017 l -4.59575,2.71255 a 1.2980743,1.2980743 0 0 0 -2.24824,0.0216 1.2980743,1.2980743 0 0 0 0.0125,1.29802 l -1.61474,0.95306 a 0.57692192,0.57692192 0 0 1 -0.79008,-0.20359 l -0.81814,-1.38615 a 0.86538284,0.86538284 0 0 1 -0.0922,-0.22165 l -0.54053,-2.07442 a 0.57692192,0.57692192 0 0 1 0.26503,-0.64231 l 11.28321,-6.659627 a 0.14423048,0.14423048 0 0 1 0.19751,0.05089 l 0.14663,0.248418 a 0.14423048,0.14423048 0 0 1 -0.0272,0.180145 v -5e-6 a 0.14423048,0.14423048 0 0 0 0.005,0.217642 l 1.70933,1.423965 a 0.86538284,0.86538284 0 0 1 0.19135,0.22503 l 0.7449,1.262051 a 0.28846095,0.28846095 0 0 1 -0.10175,0.39504 z m -0.0711,-2.637715 -1.48696,0.877624 a 0.21634572,0.21634572 0 0 1 -0.29628,-0.0763 l -0.80644,-1.366311 a 0.21634572,0.21634572 0 0 1 0.0763,-0.296279 l 0.99898,-0.589632 a 0.21634572,0.21634572 0 0 1 0.24845,0.02005 l 1.29439,1.078301 a 0.21634572,0.21634572 0 0 1 -0.0285,0.352537 z m -2.18254,1.288174 -1.30561,0.770614 a 0.21634572,0.21634572 0 0 1 -0.31932,-0.13179 L 144.898,97.418265 a 0.21634572,0.21634572 0 0 1 0.0994,-0.240867 l 0.91525,-0.540197 a 0.21634572,0.21634572 0 0 1 0.29628,0.0764 l 0.80643,1.366301 a 0.21634572,0.21634572 0 0 1 -0.0763,0.29628 z m -2.01609,1.189951 -1.25203,0.738987 a 0.21634572,0.21634572 0 0 1 -0.31933,-0.1318 l -0.41605,-1.596711 a 0.21634572,0.21634572 0 0 1 0.0994,-0.240867 l 1.25203,-0.738967 a 0.21634572,0.21634572 0 0 1 0.31933,0.13176 l 0.41605,1.596711 a 0.21634572,0.21634572 0 0 1 -0.0994,0.240857 z m -1.96252,1.158327 -1.25203,0.73898 a 0.21634572,0.21634572 0 0 1 -0.31932,-0.13179 l -0.41607,-1.596717 a 0.21634572,0.21634572 0 0 1 0.0994,-0.24087 l 1.25202,-0.738974 a 0.21634572,0.21634572 0 0 1 0.31931,0.13179 l 0.41608,1.596701 a 0.21634572,0.21634572 0 0 1 -0.0994,0.24087 z m -1.96252,1.15833 -1.25203,0.73899 a 0.21634572,0.21634572 0 0 1 -0.31933,-0.13179 l -0.41605,-1.59673 a 0.21634572,0.21634572 0 0 1 0.0994,-0.24086 l 1.25203,-0.738987 a 0.21634572,0.21634572 0 0 1 0.31932,0.131787 l 0.41606,1.59672 a 0.21634572,0.21634572 0 0 1 -0.0994,0.24087 z m -1.96251,1.15834 -1.25204,0.73898 a 0.21634572,0.21634572 0 0 1 -0.31931,-0.13179 l -0.41607,-1.59672 a 0.21634572,0.21634572 0 0 1 0.0994,-0.24088 l 1.25202,-0.73898 a 0.21634572,0.21634572 0 0 1 0.31933,0.1318 l 0.41606,1.59673 a 0.21634572,0.21634572 0 0 1 -0.0994,0.24086 z m 1.33837,1.88973 a 1.0096134,1.0096134 0 0 1 0.85977,-1.52275 1.0096134,1.0096134 0 0 1 0.88887,1.50596 1.0096134,1.0096134 0 0 1 -1.74864,0.0168 m 6.83152,-4.03215 a 1.0096134,1.0096134 0 0 1 0.85977,-1.522754 1.0096134,1.0096134 0 0 1 0.88885,1.505954 1.0096134,1.0096134 0 0 1 -1.74862,0.0168 z"
       id="path6-6-6" />
    <rect
       style="fill:#ff00ff;stroke:#000000;stroke-width:1.000898;stroke-linecap:round;stroke-linejoin:round;stroke-miterlimit:4;stroke-dasharray:none;stroke-opacity:1;paint-order:markers fill stroke;image-rendering:auto"
       id="rect4975-4-8-0-1-1-4-14-0-7-8"
       width="23.999102"
       height="7.9991026"
       x="62.809055"
       y="151.49284" />
    <ellipse
       style="fill:none;stroke:#000000;stroke-width:1;stroke-miterlimit:4;stroke-dasharray:none;stroke-opacity:1"
       id="path4054-2-4-8-1"
       cx="101.57317"
       cy="220.02638"
       rx="4.0031939"
       ry="4.0031934"
       inkscape:transform-center-x="-0.53453905"
       inkscape:transform-center-y="-0.53453905" />
    <rect
       style="opacity:1;vector-effect:none;fill:#cccccc;fill-opacity:1;stroke:#000000;stroke-width:1.000898;stroke-linecap:round;stroke-linejoin:round;stroke-miterlimit:4;stroke-dasharray:none;stroke-dashoffset:0;stroke-opacity:1;paint-order:markers fill stroke;image-rendering:auto"
       id="rect4975-4-8-0-1-1-4-6-13-6-1-2-9-5-5"
       width="23.999102"
       height="7.9991026"
       x="-156.76941"
       y="106.36674"
       transform="rotate(-89.501399)" />
    <path
       inkscape:connector-curvature="0"
       style="fill:#000000;fill-rule:evenodd;stroke:none;stroke-width:0.11538438"
       d="m 111.14178,140.69725 a 1.2980743,1.2980743 0 0 0 -1.12418,1.94712 1.2980743,1.2980743 0 0 0 1.12418,0.64904 v 5.33657 a 1.2980743,1.2980743 0 0 0 -1.12418,1.94712 1.2980743,1.2980743 0 0 0 1.12418,0.64904 v 1.87502 a 0.57692192,0.57692192 0 0 1 -0.57693,0.57693 h -1.60958 a 0.86538284,0.86538284 0 0 1 -0.23774,-0.0333 l -2.0612,-0.58891 a 0.57692192,0.57692192 0 0 1 -0.41843,-0.55472 v -13.102 a 0.14423048,0.14423048 0 0 1 0.14423,-0.14423 h 0.28846 a 0.14423048,0.14423048 0 0 1 0.14125,0.11508 l 1e-5,-1e-5 a 0.14423048,0.14423048 0 0 0 0.18976,0.10667 l 2.09515,-0.74825 a 0.86538284,0.86538284 0 0 1 0.29106,-0.0504 h 1.46549 a 0.28846095,0.28846095 0 0 1 0.28847,0.28846 v 1.73078 z m -2.30771,-1.27955 v 1.72665 a 0.21634572,0.21634572 0 0 1 -0.21634,0.21635 h -1.58656 a 0.21634572,0.21634572 0 0 1 -0.21635,-0.21635 v -1.16003 a 0.21634572,0.21634572 0 0 1 0.14359,-0.20374 l 1.58655,-0.56662 a 0.21634572,0.21634572 0 0 1 0.28911,0.20374 z m 0,2.53435 v 1.51608 a 0.21634572,0.21634572 0 0 1 -0.27578,0.20802 l -1.58655,-0.45329 a 0.21634572,0.21634572 0 0 1 -0.15692,-0.20802 v -1.06279 a 0.21634572,0.21634572 0 0 1 0.21635,-0.21635 h 1.58656 a 0.21634572,0.21634572 0 0 1 0.21634,0.21635 z m 0,2.34109 v 1.45385 a 0.21634572,0.21634572 0 0 1 -0.27578,0.20802 l -1.58655,-0.4533 a 0.21634572,0.21634572 0 0 1 -0.15692,-0.20802 v -1.45385 a 0.21634572,0.21634572 0 0 1 0.27579,-0.20802 l 1.58655,0.4533 a 0.21634572,0.21634572 0 0 1 0.15691,0.20802 z m 0,2.27886 v 1.45385 a 0.21634572,0.21634572 0 0 1 -0.27578,0.20802 l -1.58655,-0.45329 a 0.21634572,0.21634572 0 0 1 -0.15692,-0.20802 v -1.45385 a 0.21634572,0.21634572 0 0 1 0.27579,-0.20803 l 1.58655,0.45329 a 0.21634572,0.21634572 0 0 1 0.15691,0.20803 z m 0,2.27886 v 1.45385 a 0.21634572,0.21634572 0 0 1 -0.27578,0.20803 l -1.58655,-0.45331 a 0.21634572,0.21634572 0 0 1 -0.15692,-0.20802 v -1.45385 a 0.21634572,0.21634572 0 0 1 0.27579,-0.20802 l 1.58655,0.4533 a 0.21634572,0.21634572 0 0 1 0.15691,0.20802 z m 0,2.27887 v 1.45384 a 0.21634572,0.21634572 0 0 1 -0.27578,0.20802 l -1.58655,-0.45329 a 0.21634572,0.21634572 0 0 1 -0.15692,-0.20802 v -1.45386 a 0.21634572,0.21634572 0 0 1 0.27579,-0.20802 l 1.58655,0.45331 a 0.21634572,0.21634572 0 0 1 0.15691,0.20802 z m 2.30771,-0.19205 a 1.0096134,1.0096134 0 0 1 -0.87436,-1.51443 1.0096134,1.0096134 0 0 1 1.74871,0 1.0096134,1.0096134 0 0 1 -0.87435,1.51443 m 0,-7.93273 a 1.0096134,1.0096134 0 0 1 -0.87436,-1.51443 1.0096134,1.0096134 0 0 1 1.74871,0 1.0096134,1.0096134 0 0 1 -0.87435,1.51443 z"
       id="path6-7" />
    <rect
       style="opacity:1;vector-effect:none;fill:#cccccc;fill-opacity:1;stroke:#000000;stroke-width:1.000898;stroke-linecap:round;stroke-linejoin:round;stroke-miterlimit:4;stroke-dasharray:none;stroke-dashoffset:0;stroke-opacity:1;paint-order:markers fill stroke;image-rendering:auto"
       id="rect4975-4-8-0-1-1-4-6-13-6-1-2-9-5-5-8"
       width="23.999102"
       height="7.9991026"
       x="-147.07161"
       y="147.37611"
       transform="rotate(-72.750796)" />
    <path
       inkscape:connector-curvature="0"
       style="fill:#000000;fill-rule:evenodd;stroke:none;stroke-width:0.11538438"
       d="m 107.91626,169.65765 a 1.2980743,1.2980743 0 0 0 -1.63765,1.54051 1.2980743,1.2980743 0 0 0 0.88942,0.94549 l -1.53803,5.11013 a 1.2980743,1.2980743 0 0 0 -1.63765,1.54051 1.2980743,1.2980743 0 0 0 0.88942,0.94549 l -0.54039,1.79546 a 0.57692192,0.57692192 0 0 1 -0.71873,0.38618 l -1.54128,-0.46389 a 0.86538284,0.86538284 0 0 1 -0.21806,-0.10041 l -1.80402,-1.15797 a 0.57692192,0.57692192 0 0 1 -0.240798,-0.65178 l 3.776088,-12.54606 a 0.14423048,0.14423048 0 0 1 0.17968,-0.0965 l 0.27622,0.0831 a 0.14423048,0.14423048 0 0 1 0.10209,0.1509 l 1e-5,-1e-5 a 0.14423048,0.14423048 0 0 0 0.15097,0.15684 l 2.2219,-0.11267 a 0.86538284,0.86538284 0 0 1 0.29323,0.0356 l 1.40331,0.42236 a 0.28846095,0.28846095 0 0 1 0.19309,0.35936 l -0.49882,1.65734 z m -1.84101,-1.89035 -0.49763,1.65338 a 0.21634572,0.21634572 0 0 1 -0.26952,0.14482 l -1.51924,-0.45725 a 0.21634572,0.21634572 0 0 1 -0.14481,-0.26953 l 0.33432,-1.11081 a 0.21634572,0.21634572 0 0 1 0.19622,-0.15371 l 1.68253,-0.0853 a 0.21634572,0.21634572 0 0 1 0.21813,0.27842 z m -0.73042,2.42681 -0.43694,1.45175 a 0.21634572,0.21634572 0 0 1 -0.32403,0.11971 l -1.38859,-0.89131 a 0.21634572,0.21634572 0 0 1 -0.0903,-0.24442 l 0.3063,-1.01769 a 0.21634572,0.21634572 0 0 1 0.26953,-0.14482 l 1.51923,0.45726 a 0.21634572,0.21634572 0 0 1 0.14481,0.26952 z m -0.67472,2.24175 -0.419,1.39217 a 0.21634572,0.21634572 0 0 1 -0.32403,0.11971 l -1.38859,-0.89132 a 0.21634572,0.21634572 0 0 1 -0.0903,-0.24442 l 0.41901,-1.39216 a 0.21634572,0.21634572 0 0 1 0.32404,-0.11971 l 1.38859,0.89132 a 0.21634572,0.21634572 0 0 1 0.0903,0.24441 z m -0.65678,2.18217 -0.41901,1.39216 a 0.21634572,0.21634572 0 0 1 -0.32403,0.11971 l -1.38859,-0.89131 a 0.21634572,0.21634572 0 0 1 -0.0903,-0.24442 l 0.419,-1.39216 a 0.21634572,0.21634572 0 0 1 0.32405,-0.11972 l 1.38859,0.89131 a 0.21634572,0.21634572 0 0 1 0.0903,0.24443 z m -0.65678,2.18216 -0.41901,1.39216 a 0.21634572,0.21634572 0 0 1 -0.32403,0.11972 l -1.38859,-0.89132 a 0.21634572,0.21634572 0 0 1 -0.0903,-0.24442 l 0.41901,-1.39216 a 0.21634572,0.21634572 0 0 1 0.32405,-0.11971 l 1.38858,0.89132 a 0.21634572,0.21634572 0 0 1 0.0903,0.24441 z m -0.65678,2.18218 -0.41901,1.39215 a 0.21634572,0.21634572 0 0 1 -0.32403,0.11971 l -1.3886,-0.89131 a 0.21634572,0.21634572 0 0 1 -0.0903,-0.24442 l 0.41901,-1.39217 a 0.21634572,0.21634572 0 0 1 0.32404,-0.11971 l 1.38859,0.89133 a 0.21634572,0.21634572 0 0 1 0.0903,0.24442 z m 2.26514,0.48119 a 1.0096134,1.0096134 0 0 1 -0.4008,-1.70216 1.0096134,1.0096134 0 0 1 1.67451,0.50399 1.0096134,1.0096134 0 0 1 -1.27371,1.19817 m 2.28626,-7.59613 a 1.0096134,1.0096134 0 0 1 -0.40079,-1.70217 1.0096134,1.0096134 0 0 1 1.67451,0.50399 1.0096134,1.0096134 0 0 1 -1.27372,1.19818 z"
       id="path6-7-6" />
    <rect
       style="fill:#cccccc;stroke:#000000;stroke-width:1.000898;stroke-linecap:round;stroke-linejoin:round;stroke-miterlimit:4;stroke-dasharray:none;stroke-opacity:1;paint-order:markers fill stroke;image-rendering:auto"
       id="rect4975-5-7-7-8-4-6-6-4-7-9-6-9-5-2"
       width="23.999102"
       height="7.9991026"
       x="189.9601"
       y="-104.1985"
       transform="rotate(89.526797)" />
    <text
       xml:space="preserve"
       style="font-style:normal;font-variant:normal;font-weight:normal;font-stretch:normal;font-size:4.93888903px;line-height:1.25;font-family:sans-serif;-inkscape-font-specification:'sans-serif, Normal';font-variant-ligatures:normal;font-variant-caps:normal;font-variant-numeric:normal;font-feature-settings:normal;text-align:start;letter-spacing:0px;word-spacing:0px;writing-mode:lr-tb;text-anchor:start;fill:#000000;fill-opacity:1;stroke:none;stroke-width:0.26458332"
       x="152.91811"
       y="157.40598"
       id="text5378-7-9-5"
       transform="rotate(23.827684)"><tspan
         sodipodi:role="line"
         id="tspan10803"
         x="152.91811"
         y="157.40598">Garbary</tspan><tspan
         sodipodi:role="line"
         id="tspan10805"
         x="152.91811"
         y="163.57959" /></text>
    <rect
       style="fill:#00ff00;stroke:#000000;stroke-width:1.000898;stroke-linecap:round;stroke-linejoin:round;stroke-miterlimit:4;stroke-dasharray:none;stroke-opacity:1;paint-order:markers fill stroke;image-rendering:auto"
       id="rect4975-4-8-0-1-1-4-6-1"
       width="23.999102"
       height="7.9991026"
       x="134.7093"
       y="215.63074" />
    <text
       xml:space="preserve"
       style="font-style:normal;font-variant:normal;font-weight:normal;font-stretch:normal;font-size:4.93888903px;line-height:1.25;font-family:sans-serif;-inkscape-font-specification:'sans-serif, Normal';font-variant-ligatures:normal;font-variant-caps:normal;font-variant-numeric:normal;font-feature-settings:normal;text-align:start;letter-spacing:0px;word-spacing:0px;writing-mode:lr-tb;text-anchor:start;fill:#000000;fill-opacity:1;stroke:none;stroke-width:0.26458332"
       x="281.12085"
       y="21.610144"
       id="text5378-7-9-6"
       transform="rotate(48.892342)"><tspan
         sodipodi:role="line"
         id="tspan1560"
         x="281.12085"
         y="21.610144">Rondo Śródka </tspan><tspan
         sodipodi:role="line"
         id="tspan1562"
         x="281.12085"
         y="27.783754" /></text>
    <rect
       style="opacity:1;vector-effect:none;fill:#cccccc;fill-opacity:1;stroke:#000000;stroke-width:1.000898;stroke-linecap:round;stroke-linejoin:round;stroke-miterlimit:4;stroke-dasharray:none;stroke-dashoffset:0;stroke-opacity:1;paint-order:markers fill stroke;image-rendering:auto"
       id="rect4975-4-8-0-1-1-4-6-13-6-1-2-9-5-5-81"
       width="23.999102"
       height="7.9991026"
       x="-251.57663"
       y="99.851357"
       transform="rotate(-89.501399)" />
    <path
       inkscape:connector-curvature="0"
       style="fill:#000000;fill-rule:evenodd;stroke:none;stroke-width:0.11538438"
       d="m 103.80168,235.44409 a 1.2980743,1.2980743 0 0 0 -1.12418,1.94712 1.2980743,1.2980743 0 0 0 1.12418,0.64904 v 5.33657 a 1.2980743,1.2980743 0 0 0 -1.12418,1.94712 1.2980743,1.2980743 0 0 0 1.12418,0.64904 v 1.87502 a 0.57692192,0.57692192 0 0 1 -0.57693,0.57693 h -1.60958 a 0.86538284,0.86538284 0 0 1 -0.23774,-0.0333 l -2.061194,-0.58891 A 0.57692192,0.57692192 0 0 1 98.897801,247.248 v -13.102 a 0.14423048,0.14423048 0 0 1 0.144235,-0.14423 h 0.28846 a 0.14423048,0.14423048 0 0 1 0.141247,0.11508 l 1e-5,-1e-5 a 0.14423048,0.14423048 0 0 0 0.18976,0.10667 l 2.095147,-0.74825 a 0.86538284,0.86538284 0 0 1 0.29106,-0.0504 h 1.46549 a 0.28846095,0.28846095 0 0 1 0.28847,0.28846 v 1.73078 z m -2.30771,-1.27955 v 1.72665 a 0.21634572,0.21634572 0 0 1 -0.21634,0.21635 h -1.586557 a 0.21634572,0.21634572 0 0 1 -0.21635,-0.21635 v -1.16003 a 0.21634572,0.21634572 0 0 1 0.14359,-0.20374 l 1.586547,-0.56662 a 0.21634572,0.21634572 0 0 1 0.28911,0.20374 z m 0,2.53435 v 1.51608 a 0.21634572,0.21634572 0 0 1 -0.27578,0.20802 l -1.586547,-0.45329 a 0.21634572,0.21634572 0 0 1 -0.15692,-0.20802 v -1.06279 a 0.21634572,0.21634572 0 0 1 0.21635,-0.21635 h 1.586557 a 0.21634572,0.21634572 0 0 1 0.21634,0.21635 z m 0,2.34109 v 1.45385 a 0.21634572,0.21634572 0 0 1 -0.27578,0.20802 l -1.586547,-0.4533 a 0.21634572,0.21634572 0 0 1 -0.15692,-0.20802 v -1.45385 a 0.21634572,0.21634572 0 0 1 0.27579,-0.20802 l 1.586547,0.4533 a 0.21634572,0.21634572 0 0 1 0.15691,0.20802 z m 0,2.27886 v 1.45385 a 0.21634572,0.21634572 0 0 1 -0.27578,0.20802 l -1.586547,-0.45329 a 0.21634572,0.21634572 0 0 1 -0.15692,-0.20802 v -1.45385 a 0.21634572,0.21634572 0 0 1 0.27579,-0.20803 l 1.586547,0.45329 a 0.21634572,0.21634572 0 0 1 0.15691,0.20803 z m 0,2.27886 v 1.45385 a 0.21634572,0.21634572 0 0 1 -0.27578,0.20803 l -1.586547,-0.45331 a 0.21634572,0.21634572 0 0 1 -0.15692,-0.20802 v -1.45385 a 0.21634572,0.21634572 0 0 1 0.27579,-0.20802 l 1.586547,0.4533 a 0.21634572,0.21634572 0 0 1 0.15691,0.20802 z m 0,2.27887 v 1.45384 a 0.21634572,0.21634572 0 0 1 -0.27578,0.20802 l -1.586547,-0.45329 a 0.21634572,0.21634572 0 0 1 -0.15692,-0.20802 v -1.45386 a 0.21634572,0.21634572 0 0 1 0.27579,-0.20802 l 1.586547,0.45331 a 0.21634572,0.21634572 0 0 1 0.15691,0.20802 z m 2.30771,-0.19205 a 1.0096134,1.0096134 0 0 1 -0.87436,-1.51443 1.0096134,1.0096134 0 0 1 1.74871,0 1.0096134,1.0096134 0 0 1 -0.87435,1.51443 m 0,-7.93273 a 1.0096134,1.0096134 0 0 1 -0.87436,-1.51443 1.0096134,1.0096134 0 0 1 1.74871,0 1.0096134,1.0096134 0 0 1 -0.87435,1.51443 z"
       id="path6-7-1" />
    <rect
       style="opacity:1;vector-effect:none;fill:#cccccc;fill-opacity:1;stroke:#000000;stroke-width:1.000898;stroke-linecap:round;stroke-linejoin:round;stroke-miterlimit:4;stroke-dasharray:none;stroke-dashoffset:0;stroke-opacity:1;paint-order:markers fill stroke;image-rendering:auto"
       id="rect4975-4-8-0-1-1-4-6-13-6-1-2-9-5-5-8-2"
       width="23.999102"
       height="7.9991026"
       x="-283.21429"
       y="93.807312"
       transform="rotate(-90.87501)" />
    <path
       inkscape:connector-curvature="0"
       style="fill:#000000;fill-rule:evenodd;stroke:none;stroke-width:0.11538438"
       d="m 103.85511,264.61442 a 1.2980743,1.2980743 0 0 0 -1.07718,1.97352 1.2980743,1.2980743 0 0 0 1.13942,0.62189 l 0.12792,5.33504 a 1.2980743,1.2980743 0 0 0 -1.07718,1.97352 1.2980743,1.2980743 0 0 0 1.13941,0.6219 l 0.045,1.87448 a 0.57692192,0.57692192 0 0 1 -0.56293,0.5906 l -1.60913,0.0386 a 0.86538284,0.86538284 0 0 1 -0.23847,-0.0276 l -2.074742,-0.53933 a 0.57692192,0.57692192 0 0 1 -0.431605,-0.54453 l -0.31407,-13.09824 a 0.14423048,0.14423048 0 0 1 0.140746,-0.14761 l 0.288366,-0.007 a 0.14423048,0.14423048 0 0 1 0.143966,0.11165 l 7e-6,-10e-6 a 0.14423048,0.14423048 0 0 0 0.192269,0.10209 l 2.076633,-0.79827 a 0.86538284,0.86538284 0 0 1 0.28975,-0.0574 l 1.46508,-0.0351 a 0.28846095,0.28846095 0 0 1 0.2953,0.28146 l 0.0415,1.73028 z m -2.33773,-1.22386 0.0414,1.72615 a 0.21634572,0.21634572 0 0 1 -0.21109,0.22148 l -1.586113,0.038 a 0.21634572,0.21634572 0 0 1 -0.22147,-0.21111 l -0.02782,-1.1597 a 0.21634572,0.21634572 0 0 1 0.138669,-0.20712 l 1.572524,-0.60447 a 0.21634572,0.21634572 0 0 1 0.29392,0.19675 z m 0.0607,2.53362 0.0363,1.51565 a 0.21634572,0.21634572 0 0 1 -0.27072,0.21457 l -1.596962,-0.41513 a 0.21634572,0.21634572 0 0 1 -0.161853,-0.2042 l -0.02548,-1.06248 a 0.21634572,0.21634572 0 0 1 0.211107,-0.22148 l 1.586098,-0.038 a 0.21634572,0.21634572 0 0 1 0.22147,0.2111 z m 0.0561,2.34042 0.0349,1.45344 a 0.21634572,0.21634572 0 0 1 -0.27072,0.21457 l -1.596965,-0.41514 a 0.21634572,0.21634572 0 0 1 -0.161854,-0.2042 l -0.03485,-1.45344 a 0.21634572,0.21634572 0 0 1 0.270723,-0.21457 l 1.596966,0.41514 a 0.21634572,0.21634572 0 0 1 0.16185,0.20419 z m 0.0546,2.27821 0.0348,1.45343 a 0.21634572,0.21634572 0 0 1 -0.27071,0.21457 l -1.596972,-0.41513 a 0.21634572,0.21634572 0 0 1 -0.161853,-0.2042 l -0.03486,-1.45343 a 0.21634572,0.21634572 0 0 1 0.27073,-0.21458 l 1.596965,0.41512 a 0.21634572,0.21634572 0 0 1 0.16186,0.20422 z m 0.0546,2.2782 0.0349,1.45343 a 0.21634572,0.21634572 0 0 1 -0.27071,0.21458 l -1.596972,-0.41514 a 0.21634572,0.21634572 0 0 1 -0.161853,-0.2042 l -0.03485,-1.45343 a 0.21634572,0.21634572 0 0 1 0.270733,-0.21458 l 1.596962,0.41514 a 0.21634572,0.21634572 0 0 1 0.16185,0.2042 z m 0.0546,2.27822 0.0349,1.45342 a 0.21634572,0.21634572 0 0 1 -0.27072,0.21457 l -1.596972,-0.41512 a 0.21634572,0.21634572 0 0 1 -0.161853,-0.20421 l -0.03485,-1.45344 a 0.21634572,0.21634572 0 0 1 0.270725,-0.21457 l 1.59697,0.41515 a 0.21634572,0.21634572 0 0 1 0.16185,0.2042 z m 2.30244,-0.24732 a 1.0096134,1.0096134 0 0 1 -0.91042,-1.49303 1.0096134,1.0096134 0 0 1 1.74821,-0.0419 1.0096134,1.0096134 0 0 1 -0.83779,1.53495 m -0.19015,-7.93045 a 1.0096134,1.0096134 0 0 1 -0.91041,-1.49304 1.0096134,1.0096134 0 0 1 1.7482,-0.0419 1.0096134,1.0096134 0 0 1 -0.83779,1.53496 z"
       id="path6-7-6-6" />
    <g
       transform="matrix(0.01585904,0,0,0.01585904,130.57487,190.13244)"
       id="g13095">
      <g
         transform="matrix(1,0,0,-1,0,1920)"
         id="g13093">
        <path
           inkscape:connector-curvature="0"
           d="m 68.8,930 v 548.8 H 29.6 v 39.2 l 156.8,154.8 v 119.6 H 108 v 39.2 h 78.4 v 78.4 h 39.2 v -78.4 H 304 v -39.2 H 225.6 V 1672.8 L 382.4,1518 v -39.2 h -39.2 v -274.4 h 588 V 969.2 h 39.2 V 930 Z m 313.6,313.6 v 156.8 h 431.2 l 117.6,-117.6 v -39.2 z m 39.2,-235.2 h 39.2 V 1126 h -39.2 z m 78.4,0 h 39.2 V 1126 H 500 Z m 78.4,0 h 39.2 V 1126 h -39.2 z m 78.4,0 H 696 V 1126 h -39.2 z m 78.4,0 h 39.2 V 1126 h -39.2 z m 78.4,0 h 39.2 V 1126 h -39.2 z"
           id="path13091" />
      </g>
    </g>
  </g>
</svg>
