<?xml version="1.0" encoding="UTF-8" standalone="no"?>
<!-- Created with Inkscape (http://www.inkscape.org/) -->

<svg
   xmlns:dc="http://purl.org/dc/elements/1.1/"
   xmlns:cc="http://creativecommons.org/ns#"
   xmlns:rdf="http://www.w3.org/1999/02/22-rdf-syntax-ns#"
   xmlns:svg="http://www.w3.org/2000/svg"
   xmlns="http://www.w3.org/2000/svg"
   xmlns:sodipodi="http://sodipodi.sourceforge.net/DTD/sodipodi-0.dtd"
   xmlns:inkscape="http://www.inkscape.org/namespaces/inkscape"
   width="210mm"
   height="297mm"
   viewBox="0 0 210 297"
   version="1.1"
   id="svg3775"
   inkscape:version="0.92.2 (5c3e80d, 2017-08-06)"
   sodipodi:docname="tramwaje 4.svg"
   inkscape:export-filename="/home/kolendo@primesoft.local/Documents/tramwaje/tramwaje 4.png"
   inkscape:export-xdpi="96"
   inkscape:export-ydpi="96">
  <defs
     id="defs3769" />
  <sodipodi:namedview
     id="base"
     pagecolor="#ffffff"
     bordercolor="#666666"
     borderopacity="1.0"
     inkscape:pageopacity="0.0"
     inkscape:pageshadow="2"
     inkscape:zoom="0.49497475"
     inkscape:cx="214.91512"
     inkscape:cy="570.78232"
     inkscape:document-units="mm"
     inkscape:current-layer="layer1"
     showgrid="false"
     inkscape:window-width="1920"
     inkscape:window-height="981"
     inkscape:window-x="1366"
     inkscape:window-y="28"
     inkscape:window-maximized="1" />
  <metadata
     id="metadata3772">
    <rdf:RDF>
      <cc:Work
         rdf:about="">
        <dc:format>image/svg+xml</dc:format>
        <dc:type
           rdf:resource="http://purl.org/dc/dcmitype/StillImage" />
        <dc:title />
      </cc:Work>
    </rdf:RDF>
  </metadata>
  <g
     inkscape:label="Layer 1"
     inkscape:groupmode="layer"
     id="layer1">
    <rect
       style="fill:none;stroke:#000000;stroke-width:1.000898;stroke-linecap:round;stroke-linejoin:round;stroke-miterlimit:4;stroke-dasharray:none;stroke-opacity:1;paint-order:markers fill stroke;image-rendering:auto"
       id="rect4975-4"
       width="23.999102"
       height="7.9991026"
       x="6.9832196"
       y="40.859581"
       transform="rotate(-5.0781591)" />
    <rect
       style="fill:#ffff00;stroke:#000000;stroke-width:1.000898;stroke-linecap:round;stroke-linejoin:round;stroke-miterlimit:4;stroke-dasharray:none;stroke-opacity:1;paint-order:markers fill stroke;image-rendering:auto"
       id="rect4975-4-7"
       width="23.999102"
       height="7.9991026"
       x="24.911234"
       y="268.95258"
       transform="rotate(2.9327557)" />
    <rect
       style="fill:#ffff00;stroke:#000000;stroke-width:1.000898;stroke-linecap:round;stroke-linejoin:round;stroke-miterlimit:4;stroke-dasharray:none;stroke-opacity:1;paint-order:markers fill stroke;image-rendering:auto"
       id="rect4975-4-6"
       width="23.999102"
       height="7.9991026"
       x="48.910328"
       y="268.95258"
       transform="rotate(2.9327557)" />
    <rect
       style="fill:#ffff00;stroke:#000000;stroke-width:1.000898;stroke-linecap:round;stroke-linejoin:round;stroke-miterlimit:4;stroke-dasharray:none;stroke-opacity:1;paint-order:markers fill stroke;image-rendering:auto"
       id="rect4975-4-7-9"
       width="23.999102"
       height="7.9991026"
       x="96.908539"
       y="268.95258"
       transform="rotate(2.9327557)" />
    <rect
       style="fill:#ff6600;stroke:#000000;stroke-width:1.000898;stroke-linecap:round;stroke-linejoin:round;stroke-miterlimit:4;stroke-dasharray:none;stroke-opacity:1;paint-order:markers fill stroke;image-rendering:auto"
       id="rect4975-5-7-0-9-8-11-0"
       width="23.999102"
       height="7.9991026"
       x="199.65822"
       y="-111.72277"
       transform="rotate(90)" />
    <rect
       style="fill:#ffff00;stroke:#000000;stroke-width:1.000898;stroke-linecap:round;stroke-linejoin:round;stroke-miterlimit:4;stroke-dasharray:none;stroke-opacity:1;paint-order:markers fill stroke;image-rendering:auto"
       id="rect4975-5-7-0-9-8-11-0-3"
       width="23.999102"
       height="7.9991026"
       x="164.62225"
       y="-109.60612"
       transform="rotate(90)" />
    <ellipse
       style="fill:none;stroke:#000000;stroke-width:1;stroke-miterlimit:4;stroke-dasharray:none;stroke-opacity:1"
       id="path4054-42-8-7-6-4"
       cx="109.3863"
       cy="-70.675964"
       rx="4.0031939"
       ry="4.0031934"
       transform="scale(1,-1)" />
    <rect
       style="fill:#ffff00;stroke:#000000;stroke-width:1.000898;stroke-linecap:round;stroke-linejoin:round;stroke-miterlimit:4;stroke-dasharray:none;stroke-opacity:1;paint-order:markers fill stroke;image-rendering:auto"
       id="rect4975-5-7-0-9-8-11-0-3-7"
       width="23.999102"
       height="7.9991026"
       x="139.03568"
       y="-109.60612"
       transform="rotate(90)" />
    <ellipse
       style="fill:none;stroke:#000000;stroke-width:1;stroke-miterlimit:4;stroke-dasharray:none;stroke-opacity:1"
       id="path4054-42-8-7-6-4-8"
       cx="112.33449"
       cy="-193.9639"
       rx="4.0031939"
       ry="4.0031934"
       transform="scale(1,-1)" />
    <ellipse
       style="fill:none;stroke:#000000;stroke-width:1;stroke-miterlimit:4;stroke-dasharray:none;stroke-opacity:1"
       id="path4054-42-8-7-6-4-9"
       cx="109.23512"
       cy="-132.88284"
       rx="4.0031939"
       ry="4.0031934"
       transform="scale(1,-1)" />
    <rect
       style="fill:#ff6600;stroke:#000000;stroke-width:1.000898;stroke-linecap:round;stroke-linejoin:round;stroke-miterlimit:4;stroke-dasharray:none;stroke-opacity:1;paint-order:markers fill stroke;image-rendering:auto"
       id="rect4975-5-7-0-9-8-11-0-4"
       width="23.999102"
       height="7.9991026"
       x="223.65732"
       y="-111.72277"
       transform="rotate(90)" />
    <rect
       style="fill:#ff6600;stroke:#000000;stroke-width:1.000898;stroke-linecap:round;stroke-linejoin:round;stroke-miterlimit:4;stroke-dasharray:none;stroke-opacity:1;paint-order:markers fill stroke;image-rendering:auto"
       id="rect4975-5-7-0-9-8-11-0-84"
       width="23.999102"
       height="7.9991026"
       x="247.65642"
       y="-111.72277"
       transform="rotate(90)" />
    <rect
       style="fill:#00ffff;stroke:#000000;stroke-width:1.000898;stroke-linecap:round;stroke-linejoin:round;stroke-miterlimit:4;stroke-dasharray:none;stroke-opacity:1;paint-order:markers fill stroke;image-rendering:auto"
       id="rect4975-5-7-0-9-8-11-0-41"
       width="23.999102"
       height="7.9991026"
       x="199.76921"
       y="-119.9626"
       transform="rotate(90)" />
    <rect
       style="fill:#00ffff;stroke:#000000;stroke-width:1.000898;stroke-linecap:round;stroke-linejoin:round;stroke-miterlimit:4;stroke-dasharray:none;stroke-opacity:1;paint-order:markers fill stroke;image-rendering:auto"
       id="rect4975-5-7-0-9-8-11-0-4-4"
       width="23.999102"
       height="7.9991026"
       x="223.76831"
       y="-119.9626"
       transform="rotate(90)" />
    <rect
       style="fill:#00ffff;stroke:#000000;stroke-width:1.000898;stroke-linecap:round;stroke-linejoin:round;stroke-miterlimit:4;stroke-dasharray:none;stroke-opacity:1;paint-order:markers fill stroke;image-rendering:auto"
       id="rect4975-5-7-0-9-8-11-0-84-0"
       width="23.999102"
       height="7.9991026"
       x="247.76741"
       y="-119.9626"
       transform="rotate(90)" />
    <rect
       style="fill:#333333;stroke:#000000;stroke-width:1.000898;stroke-linecap:round;stroke-linejoin:round;stroke-miterlimit:4;stroke-dasharray:none;stroke-opacity:1;paint-order:markers fill stroke;image-rendering:auto;fill-opacity:1"
       id="rect4975-5-7-0-9-8-11-0-3-7-2"
       width="23.999102"
       height="7.9991026"
       x="139.03568"
       y="-119.19273"
       transform="rotate(90)" />
    <rect
       style="fill:#00ff00;stroke:#000000;stroke-width:1.000898;stroke-linecap:round;stroke-linejoin:round;stroke-miterlimit:4;stroke-dasharray:none;stroke-opacity:1;paint-order:markers fill stroke;image-rendering:auto"
       id="rect4975-5-7-0-9-8-11-0-3-2"
       width="23.999102"
       height="7.9991026"
       x="103.77853"
       y="-107.9502"
       transform="rotate(90)" />
    <rect
       style="fill:#00ff00;stroke:#000000;stroke-width:1.000898;stroke-linecap:round;stroke-linejoin:round;stroke-miterlimit:4;stroke-dasharray:none;stroke-opacity:1;paint-order:markers fill stroke;image-rendering:auto"
       id="rect4975-5-7-0-9-8-11-0-3-7-1"
       width="23.999102"
       height="7.9991026"
       x="77.662811"
       y="-107.9502"
       transform="rotate(90)" />
    <rect
       style="fill:#ff0000;stroke:#000000;stroke-width:1.000898;stroke-linecap:round;stroke-linejoin:round;stroke-miterlimit:4;stroke-dasharray:none;stroke-opacity:1;paint-order:markers fill stroke;image-rendering:auto"
       id="rect4975-5-7-0-9-8-11-0-3-0-1"
       width="23.999102"
       height="7.9991026"
       x="103.77853"
       y="-117.53689"
       transform="rotate(90)" />
    <rect
       style="fill:#ff0000;stroke:#000000;stroke-width:1.000898;stroke-linecap:round;stroke-linejoin:round;stroke-miterlimit:4;stroke-dasharray:none;stroke-opacity:1;paint-order:markers fill stroke;image-rendering:auto"
       id="rect4975-5-7-0-9-8-11-0-3-7-2-0"
       width="23.999102"
       height="7.9991026"
       x="77.662811"
       y="-117.53689"
       transform="rotate(90)" />
    <ellipse
       style="fill:none;stroke:#000000;stroke-width:1;stroke-miterlimit:4;stroke-dasharray:none;stroke-opacity:1"
       id="path4054-42-8-7-6-4-7"
       cx="113.27261"
       cy="-278.40359"
       rx="4.0031939"
       ry="4.0031934"
       transform="scale(1,-1)" />
    <rect
       style="fill:#333333;stroke:#000000;stroke-width:1.000898;stroke-linecap:round;stroke-linejoin:round;stroke-miterlimit:4;stroke-dasharray:none;stroke-opacity:1;paint-order:markers fill stroke;image-rendering:auto;fill-opacity:1"
       id="rect4975-5-7-0-9-8-11-0-3-73"
       width="23.999102"
       height="7.9991026"
       x="164.62225"
       y="-119.19273"
       transform="rotate(90)" />
    <rect
       style="fill:none;stroke:#000000;stroke-width:1.000898;stroke-linecap:round;stroke-linejoin:round;stroke-miterlimit:4;stroke-dasharray:none;stroke-opacity:1;paint-order:markers fill stroke;image-rendering:auto"
       id="rect4975-4-8"
       width="23.999102"
       height="7.9991026"
       x="32.567741"
       y="40.906422"
       transform="rotate(-5.0781591)" />
    <rect
       style="fill:none;stroke:#000000;stroke-width:1.000898;stroke-linecap:round;stroke-linejoin:round;stroke-miterlimit:4;stroke-dasharray:none;stroke-opacity:1;paint-order:markers fill stroke;image-rendering:auto"
       id="rect4975-4-4"
       width="23.999102"
       height="7.9991026"
       x="100.41359"
       y="-3.2628734"
       transform="rotate(31.974852)" />
    <rect
       style="fill:#ff00ff;stroke:#000000;stroke-width:1.000898;stroke-linecap:round;stroke-linejoin:round;stroke-miterlimit:4;stroke-dasharray:none;stroke-opacity:1;paint-order:markers fill stroke;image-rendering:auto"
       id="rect4975-4-85"
       width="23.999102"
       height="7.9991026"
       x="127.58738"
       y="41.62722"
       transform="rotate(12.119495)" />
    <rect
       style="fill:#ff00ff;stroke:#000000;stroke-width:1.000898;stroke-linecap:round;stroke-linejoin:round;stroke-miterlimit:4;stroke-dasharray:none;stroke-opacity:1;paint-order:markers fill stroke;image-rendering:auto"
       id="rect4975-4-1"
       width="23.999102"
       height="7.9991026"
       x="153.24977"
       y="41.811295"
       transform="rotate(12.119495)" />
    <rect
       style="fill:#ff00ff;stroke:#000000;stroke-width:1.000898;stroke-linecap:round;stroke-linejoin:round;stroke-miterlimit:4;stroke-dasharray:none;stroke-opacity:1;paint-order:markers fill stroke;image-rendering:auto"
       id="rect4975-4-03"
       width="23.999102"
       height="7.9991026"
       x="137.61928"
       y="120.13081"
       transform="rotate(-15.629448)" />
    <ellipse
       style="fill:none;stroke:#000000;stroke-width:1;stroke-miterlimit:4;stroke-dasharray:none;stroke-opacity:1"
       id="path4054-42-8-7-6-4-1"
       cx="194.05296"
       cy="-73.691666"
       rx="4.0031939"
       ry="4.0031934"
       transform="scale(1,-1)" />
    <rect
       style="fill:#333333;stroke:#000000;stroke-width:1.000898;stroke-linecap:round;stroke-linejoin:round;stroke-miterlimit:4;stroke-dasharray:none;stroke-opacity:1;paint-order:markers fill stroke;image-rendering:auto"
       id="rect4975-5-7-0-9-8-11-0-3-0-1-5"
       width="23.999102"
       height="7.9991026"
       x="44.07711"
       y="-198.06245"
       transform="rotate(90)" />
    <rect
       style="fill:#333333;stroke:#000000;stroke-width:1.000898;stroke-linecap:round;stroke-linejoin:round;stroke-miterlimit:4;stroke-dasharray:none;stroke-opacity:1;paint-order:markers fill stroke;image-rendering:auto"
       id="rect4975-5-7-0-9-8-11-0-3-0-1-1"
       width="23.999102"
       height="7.9991026"
       x="17.961342"
       y="-198.06245"
       transform="rotate(90)" />
    <ellipse
       style="fill:none;stroke:#000000;stroke-width:1;stroke-miterlimit:4;stroke-dasharray:none;stroke-opacity:1"
       id="path4054-42-8-7-6-4-96"
       cx="193.45369"
       cy="-12.308334"
       rx="4.0031939"
       ry="4.0031934"
       transform="scale(1,-1)" />
    <text
       xml:space="preserve"
       style="font-style:normal;font-variant:normal;font-weight:normal;font-stretch:normal;font-size:4.93888903px;line-height:1.25;font-family:sans-serif;-inkscape-font-specification:'sans-serif, Normal';font-variant-ligatures:normal;font-variant-caps:normal;font-variant-numeric:normal;font-feature-settings:normal;text-align:start;letter-spacing:0px;word-spacing:0px;writing-mode:lr-tb;text-anchor:start;fill:#000000;fill-opacity:1;stroke:none;stroke-width:0.26458332"
       x="121.49753"
       y="280.46918"
       id="text5378-7-0"><tspan
         sodipodi:role="line"
         id="tspan4244"
         x="121.49753"
         y="280.46918">Rondo Żegrze </tspan></text>
    <text
       xml:space="preserve"
       style="font-style:normal;font-variant:normal;font-weight:normal;font-stretch:normal;font-size:4.93888903px;line-height:1.25;font-family:sans-serif;-inkscape-font-specification:'sans-serif, Normal';font-variant-ligatures:normal;font-variant-caps:normal;font-variant-numeric:normal;font-feature-settings:normal;text-align:start;letter-spacing:0px;word-spacing:0px;writing-mode:lr-tb;text-anchor:start;fill:#000000;fill-opacity:1;stroke:none;stroke-width:0.26458332"
       x="120.90532"
       y="134.90497"
       id="text5378-7-0-9"><tspan
         sodipodi:role="line"
         id="tspan4288"
         x="120.90532"
         y="134.90497">Żegrze 2</tspan></text>
    <text
       xml:space="preserve"
       style="font-style:normal;font-variant:normal;font-weight:normal;font-stretch:normal;font-size:4.93888903px;line-height:1.25;font-family:sans-serif;-inkscape-font-specification:'sans-serif, Normal';font-variant-ligatures:normal;font-variant-caps:normal;font-variant-numeric:normal;font-feature-settings:normal;text-align:start;letter-spacing:0px;word-spacing:0px;writing-mode:lr-tb;text-anchor:start;fill:#000000;fill-opacity:1;stroke:none;stroke-width:0.26458332"
       x="119.91288"
       y="195.03052"
       id="text5378-7-0-9-0"><tspan
         sodipodi:role="line"
         id="tspan4308"
         x="119.91288"
         y="195.03052">Żegrze 1</tspan></text>
    <text
       xml:space="preserve"
       style="font-style:normal;font-variant:normal;font-weight:normal;font-stretch:normal;font-size:4.93888903px;line-height:1.25;font-family:sans-serif;-inkscape-font-specification:'sans-serif, Normal';font-variant-ligatures:normal;font-variant-caps:normal;font-variant-numeric:normal;font-feature-settings:normal;text-align:start;letter-spacing:0px;word-spacing:0px;writing-mode:lr-tb;text-anchor:start;fill:#000000;fill-opacity:1;stroke:none;stroke-width:0.26458332"
       x="37.475929"
       y="125.56377"
       id="text5378-7-0-9-7"
       transform="rotate(-42.588286)"><tspan
         sodipodi:role="line"
         id="tspan4318"
         x="37.475929"
         y="125.56377">Lecha </tspan></text>
    <text
       xml:space="preserve"
       style="font-style:normal;font-variant:normal;font-weight:normal;font-stretch:normal;font-size:4.93888903px;line-height:1.25;font-family:sans-serif;-inkscape-font-specification:'sans-serif, Normal';font-variant-ligatures:normal;font-variant-caps:normal;font-variant-numeric:normal;font-feature-settings:normal;text-align:start;letter-spacing:0px;word-spacing:0px;writing-mode:lr-tb;text-anchor:start;fill:#000000;fill-opacity:1;stroke:none;stroke-width:0.26458332"
       x="89.586838"
       y="179.46002"
       id="text5378-7-0-9-70"
       transform="rotate(-34.360607)"
       inkscape:transform-center-x="8.5526248"
       inkscape:transform-center-y="8.0180858"><tspan
         sodipodi:role="line"
         id="tspan4328"
         x="89.586838"
         y="179.46002">Szwedzka </tspan></text>
    <text
       xml:space="preserve"
       style="font-style:normal;font-variant:normal;font-weight:normal;font-stretch:normal;font-size:4.93888903px;line-height:1.25;font-family:sans-serif;-inkscape-font-specification:'sans-serif, Normal';font-variant-ligatures:normal;font-variant-caps:normal;font-variant-numeric:normal;font-feature-settings:normal;text-align:start;letter-spacing:0px;word-spacing:0px;writing-mode:lr-tb;text-anchor:start;fill:#000000;fill-opacity:1;stroke:none;stroke-width:0.26458332"
       x="163.90558"
       y="15.922292"
       id="text5378-7-0-9-79"><tspan
         sodipodi:role="line"
         id="tspan4338"
         x="163.90558"
         y="15.922292">Franowo </tspan><tspan
         sodipodi:role="line"
         id="tspan4340"
         x="163.90558"
         y="22.095901" /></text>
    <rect
       style="fill:none;stroke:#000000;stroke-width:0.37200001;stroke-linecap:round;stroke-linejoin:round;stroke-miterlimit:4;stroke-dasharray:0.372, 2.23200002;stroke-dashoffset:0;stroke-opacity:1;paint-order:markers fill stroke"
       id="rect5601"
       width="188.92807"
       height="278.92807"
       x="10.53865"
       y="7.5359116" />
    <rect
       style="fill:none;stroke:#000000;stroke-width:1.000898;stroke-linecap:round;stroke-linejoin:round;stroke-miterlimit:4;stroke-dasharray:none;stroke-opacity:1;paint-order:markers fill stroke;image-rendering:auto"
       id="rect4975-4-4-3"
       width="23.9991"
       height="7.9991026"
       x="74.956284"
       y="-3.6001997"
       transform="rotate(31.974852)" />
    <rect
       style="fill:#ffff00;stroke:#000000;stroke-width:1.000898;stroke-linecap:round;stroke-linejoin:round;stroke-miterlimit:4;stroke-dasharray:none;stroke-opacity:1;paint-order:markers fill stroke;image-rendering:auto"
       id="rect4975-4-7-9-8"
       width="23.999102"
       height="7.9991026"
       x="72.909431"
       y="268.95258"
       transform="rotate(2.9327557)" />
    <rect
       style="opacity:1;vector-effect:none;fill:#cccccc;fill-opacity:1;stroke:#000000;stroke-width:1.000898;stroke-linecap:round;stroke-linejoin:round;stroke-miterlimit:4;stroke-dasharray:none;stroke-dashoffset:0;stroke-opacity:1;paint-order:markers fill stroke;image-rendering:auto"
       id="rect4975-4-8-0-1-1-4-6-13-6-1-2-9-5-9"
       width="23.999102"
       height="7.9991026"
       x="-67.184135"
       y="105.08392"
       transform="rotate(-37.671857)" />
    <path
       inkscape:connector-curvature="0"
       style="fill:#000000;fill-rule:evenodd;stroke:none;stroke-width:0.11538438"
       d="m 28.198764,118.5631 a 1.2980743,1.2980743 0 0 0 -2.225511,0.31954 1.2980743,1.2980743 0 0 0 0.184516,1.2849 l -4.195483,3.29803 a 1.2980743,1.2980743 0 0 0 -2.225519,0.31954 1.2980743,1.2980743 0 0 0 0.184513,1.2849 l -1.474097,1.15877 a 0.57692192,0.57692192 0 0 1 -0.810101,-0.097 l -0.994723,-1.26539 a 0.86538284,0.86538284 0 0 1 -0.120776,-0.20748 l -0.810837,-1.98441 a 0.57692192,0.57692192 0 0 1 0.177516,-0.67178 l 10.300479,-8.0971 a 0.14423048,0.14423048 0 0 1 0.202515,0.0243 l 0.178282,0.2268 a 0.14423048,0.14423048 0 0 1 -0.0032,0.18216 l 6e-6,-2e-5 a 0.14423048,0.14423048 0 0 0 0.03381,0.21506 l 1.883066,1.18474 a 0.86538284,0.86538284 0 0 1 0.219507,0.19766 l 0.905681,1.15214 a 0.28846095,0.28846095 0 0 1 -0.04857,0.40506 l -1.360687,1.06962 z m -0.420153,-2.60504 -1.357458,1.06708 a 0.21634572,0.21634572 0 0 1 -0.30378,-0.0363 l -0.980502,-1.2473 a 0.21634572,0.21634572 0 0 1 0.03634,-0.30379 l 0.911983,-0.71691 a 0.21634572,0.21634572 0 0 1 0.248923,-0.0127 l 1.425958,0.89714 a 0.21634572,0.21634572 0 0 1 0.0185,0.35319 z m -1.992453,1.56624 -1.191904,0.93694 a 0.21634572,0.21634572 0 0 1 -0.333965,-0.0883 l -0.624142,-1.52745 a 0.21634572,0.21634572 0 0 1 0.06658,-0.25192 l 0.835539,-0.65681 a 0.21634572,0.21634572 0 0 1 0.303794,0.0363 l 0.980488,1.2473 a 0.21634572,0.21634572 0 0 1 -0.03644,0.30379 z m -1.840501,1.4468 -1.142986,0.8985 a 0.21634572,0.21634572 0 0 1 -0.333978,-0.0883 l -0.624123,-1.52746 a 0.21634572,0.21634572 0 0 1 0.06658,-0.25191 l 1.142991,-0.89848 a 0.21634572,0.21634572 0 0 1 0.333965,0.0883 l 0.624122,1.52745 a 0.21634572,0.21634572 0 0 1 -0.06658,0.25192 z m -1.791585,1.40835 -1.142981,0.89848 a 0.21634572,0.21634572 0 0 1 -0.333974,-0.0883 l -0.624134,-1.52745 a 0.21634572,0.21634572 0 0 1 0.06658,-0.25191 l 1.142978,-0.89849 a 0.21634572,0.21634572 0 0 1 0.333977,0.0883 l 0.62413,1.52744 a 0.21634572,0.21634572 0 0 1 -0.06658,0.25193 z m -1.791588,1.40834 -1.142988,0.89848 a 0.21634572,0.21634572 0 0 1 -0.333976,-0.0883 l -0.624122,-1.52745 a 0.21634572,0.21634572 0 0 1 0.06658,-0.25193 l 1.142992,-0.89847 a 0.21634572,0.21634572 0 0 1 0.333977,0.0883 l 0.624119,1.52745 a 0.21634572,0.21634572 0 0 1 -0.06658,0.25192 z m -1.791596,1.40835 -1.142971,0.89847 a 0.21634572,0.21634572 0 0 1 -0.333973,-0.0883 l -0.624181,-1.52744 a 0.21634572,0.21634572 0 0 1 0.06658,-0.25193 l 1.142992,-0.89847 a 0.21634572,0.21634572 0 0 1 0.333972,0.0883 l 0.624122,1.52745 a 0.21634572,0.21634572 0 0 1 -0.06658,0.25193 z m 1.577153,1.69557 a 1.0096134,1.0096134 0 0 1 0.650247,-1.62333 1.0096134,1.0096134 0 0 1 1.080711,1.3748 1.0096134,1.0096134 0 0 1 -1.730956,0.24854 m 6.236521,-4.90245 a 1.0096134,1.0096134 0 0 1 0.650256,-1.62333 1.0096134,1.0096134 0 0 1 1.08071,1.37479 1.0096134,1.0096134 0 0 1 -1.730966,0.24854 z"
       id="path6-6" />
    <rect
       style="opacity:1;vector-effect:none;fill:#cccccc;fill-opacity:1;stroke:#000000;stroke-width:1.000898;stroke-linecap:round;stroke-linejoin:round;stroke-miterlimit:4;stroke-dasharray:none;stroke-dashoffset:0;stroke-opacity:1;paint-order:markers fill stroke;image-rendering:auto"
       id="rect4975-4-8-0-1-1-4-6-13-6-1-2-9-5-9-6"
       width="23.999102"
       height="7.9991026"
       x="-40.958313"
       y="104.79758"
       transform="rotate(-37.671856)" />
    <rect
       style="opacity:1;vector-effect:none;fill:#cccccc;fill-opacity:1;stroke:#000000;stroke-width:1.000898;stroke-linecap:round;stroke-linejoin:round;stroke-miterlimit:4;stroke-dasharray:none;stroke-dashoffset:0;stroke-opacity:1;paint-order:markers fill stroke;image-rendering:auto"
       id="rect4975-4-8-0-1-1-4-6-13-6-1-2-9-5-9-7"
       width="23.999102"
       height="7.9991026"
       x="-15.151327"
       y="104.18784"
       transform="rotate(-37.671856)" />
    <rect
       style="opacity:1;vector-effect:none;fill:#cccccc;fill-opacity:1;stroke:#000000;stroke-width:1.000898;stroke-linecap:round;stroke-linejoin:round;stroke-miterlimit:4;stroke-dasharray:none;stroke-dashoffset:0;stroke-opacity:1;paint-order:markers fill stroke;image-rendering:auto"
       id="rect4975-4-8-0-1-1-4-6-13-6-1-2-9-5-9-2"
       width="23.999102"
       height="7.9991026"
       x="49.29298"
       y="93.42984"
       transform="rotate(-16.811519)" />
    <rect
       style="opacity:1;vector-effect:none;fill:#cccccc;fill-opacity:1;stroke:#000000;stroke-width:1.000898;stroke-linecap:round;stroke-linejoin:round;stroke-miterlimit:4;stroke-dasharray:none;stroke-dashoffset:0;stroke-opacity:1;paint-order:markers fill stroke;image-rendering:auto"
       id="rect4975-4-8-0-1-1-4-6-13-6-1-2-9-5-9-5"
       width="23.999102"
       height="7.9991026"
       x="98.807213"
       y="89.036781"
       transform="rotate(40.970775)" />
    <path
       inkscape:connector-curvature="0"
       style="fill:#000000;fill-rule:evenodd;stroke:none;stroke-width:0.11538438"
       d="m 25.164171,147.71492 a 1.2980743,1.2980743 0 0 0 -0.751547,-2.11901 1.2980743,1.2980743 0 0 0 -1.223403,0.43393 l -4.059655,-3.46385 a 1.2980743,1.2980743 0 0 0 -0.75155,-2.11901 1.2980743,1.2980743 0 0 0 -1.223404,0.43394 l -1.426369,-1.21704 a 0.57692192,0.57692192 0 0 1 -0.06443,-0.81334 l 1.044724,-1.22444 a 0.86538284,0.86538284 0 0 1 0.179633,-0.15927 l 1.785874,-1.18574 a 0.57692192,0.57692192 0 0 1 0.693581,0.0417 l 9.966997,8.50422 a 0.14423048,0.14423048 0 0 1 0.01606,0.20334 l -0.187251,0.21945 a 0.14423048,0.14423048 0 0 1 -0.179221,0.0327 h 2e-5 a 0.14423048,0.14423048 0 0 0 -0.20419,0.0755 l -0.790711,2.0795 a 0.86538284,0.86538284 0 0 1 -0.150576,0.25413 l -0.951216,1.11484 a 0.28846095,0.28846095 0 0 1 -0.406692,0.0321 l -1.316644,-1.12339 z m 2.47129,-0.92494 -1.313507,-1.12073 a 0.21634572,0.21634572 0 0 1 -0.02423,-0.30498 l 1.029786,-1.20693 a 0.21634572,0.21634572 0 0 1 0.304989,-0.0242 l 0.882465,0.75295 a 0.21634572,0.21634572 0 0 1 0.06147,0.24155 l -0.598751,1.5747 a 0.21634572,0.21634572 0 0 1 -0.342631,0.0877 z m -1.927941,-1.64499 -1.153313,-0.98405 a 0.21634572,0.21634572 0 0 1 0.0208,-0.34483 l 1.374628,-0.91272 a 0.21634572,0.21634572 0 0 1 0.260102,0.0157 l 0.808491,0.68982 a 0.21634572,0.21634572 0 0 1 0.02423,0.30501 l -1.02979,1.20691 a 0.21634572,0.21634572 0 0 1 -0.305016,0.0241 z m -1.780915,-1.51955 -1.105992,-0.94366 a 0.21634572,0.21634572 0 0 1 0.0208,-0.34483 l 1.374632,-0.9127 a 0.21634572,0.21634572 0 0 1 0.260093,0.0156 l 1.105972,0.94368 a 0.21634572,0.21634572 0 0 1 -0.0208,0.34481 l -1.374631,0.9127 a 0.21634572,0.21634572 0 0 1 -0.260102,-0.0157 z m -1.733586,-1.47915 -1.10597,-0.94367 a 0.21634572,0.21634572 0 0 1 0.0208,-0.34482 l 1.374631,-0.91272 a 0.21634572,0.21634572 0 0 1 0.260094,0.0157 l 1.10598,0.94366 a 0.21634572,0.21634572 0 0 1 -0.0208,0.34483 l -1.37462,0.9127 a 0.21634572,0.21634572 0 0 1 -0.26011,-0.0156 z m -1.733573,-1.47917 -1.105974,-0.94367 a 0.21634572,0.21634572 0 0 1 0.0208,-0.34482 l 1.374635,-0.91271 a 0.21634572,0.21634572 0 0 1 0.26011,0.0157 l 1.105961,0.94368 a 0.21634572,0.21634572 0 0 1 -0.0208,0.34482 l -1.374636,0.91271 a 0.21634572,0.21634572 0 0 1 -0.26011,-0.0157 z m -1.733588,-1.47917 -1.105958,-0.94366 a 0.21634572,0.21634572 0 0 1 0.0208,-0.34482 l 1.374612,-0.91276 a 0.21634572,0.21634572 0 0 1 0.26011,0.0157 l 1.105962,0.94368 a 0.21634572,0.21634572 0 0 1 -0.0208,0.34482 l -1.374635,0.9127 a 0.21634572,0.21634572 0 0 1 -0.26011,-0.0157 z m -1.351783,1.88018 a 1.0096134,1.0096134 0 0 1 1.719594,0.31783 1.0096134,1.0096134 0 0 1 -1.135056,1.33028 1.0096134,1.0096134 0 0 1 -0.584545,-1.64812 m 6.034593,5.14898 a 1.0096134,1.0096134 0 0 1 1.719598,0.31784 1.0096134,1.0096134 0 0 1 -1.135048,1.33028 1.0096134,1.0096134 0 0 1 -0.58455,-1.64812 z"
       id="path6-6-1" />
    <rect
       style="opacity:1;vector-effect:none;fill:#cccccc;fill-opacity:1;stroke:#000000;stroke-width:1.000898;stroke-linecap:round;stroke-linejoin:round;stroke-miterlimit:4;stroke-dasharray:none;stroke-dashoffset:0;stroke-opacity:1;paint-order:markers fill stroke;image-rendering:auto"
       id="rect4975-4-8-0-1-1-4-6-13-6-1-2-9-5-9-6-3"
       width="23.999102"
       height="7.9991026"
       x="127.27254"
       y="88.908211"
       transform="rotate(40.970775)" />
    <rect
       style="opacity:1;vector-effect:none;fill:#cccccc;fill-opacity:1;stroke:#000000;stroke-width:1.000898;stroke-linecap:round;stroke-linejoin:round;stroke-miterlimit:4;stroke-dasharray:none;stroke-dashoffset:0;stroke-opacity:1;paint-order:markers fill stroke;image-rendering:auto"
       id="rect4975-4-8-0-1-1-4-6-13-6-1-2-9-5-9-7-7"
       width="23.999102"
       height="7.9991026"
       x="154.22537"
       y="88.004066"
       transform="rotate(40.970775)" />
    <rect
       style="opacity:1;vector-effect:none;fill:#cccccc;fill-opacity:1;stroke:#000000;stroke-width:1.000898;stroke-linecap:round;stroke-linejoin:round;stroke-miterlimit:4;stroke-dasharray:none;stroke-dashoffset:0;stroke-opacity:1;paint-order:markers fill stroke;image-rendering:auto"
       id="rect4975-4-8-0-1-1-4-6-13-6-1-2-9-5-9-7-7-5"
       width="23.999102"
       height="7.9991026"
       x="122.90192"
       y="158.71913"
       transform="rotate(14.64903)"
       inkscape:transform-center-x="-7.2309877"
       inkscape:transform-center-y="8.9126477" />
  </g>
</svg>
