<?xml version="1.0" encoding="UTF-8" standalone="no"?>
<!-- Created with Inkscape (http://www.inkscape.org/) -->

<svg
   xmlns:dc="http://purl.org/dc/elements/1.1/"
   xmlns:cc="http://creativecommons.org/ns#"
   xmlns:rdf="http://www.w3.org/1999/02/22-rdf-syntax-ns#"
   xmlns:svg="http://www.w3.org/2000/svg"
   xmlns="http://www.w3.org/2000/svg"
   xmlns:sodipodi="http://sodipodi.sourceforge.net/DTD/sodipodi-0.dtd"
   xmlns:inkscape="http://www.inkscape.org/namespaces/inkscape"
   width="210mm"
   height="297mm"
   viewBox="0 0 210 297"
   version="1.1"
   id="svg1602"
   inkscape:version="0.92.2 (5c3e80d, 2017-08-06)"
   sodipodi:docname="tramwaje 5.svg"
   inkscape:export-filename="/home/kolendo@primesoft.local/Documents/tramwaje/tramwaje 5.png"
   inkscape:export-xdpi="96"
   inkscape:export-ydpi="96">
  <defs
     id="defs1596" />
  <sodipodi:namedview
     id="base"
     pagecolor="#ffffff"
     bordercolor="#666666"
     borderopacity="1.0"
     inkscape:pageopacity="0.0"
     inkscape:pageshadow="2"
     inkscape:zoom="0.54161802"
     inkscape:cx="436.47652"
     inkscape:cy="670.89866"
     inkscape:document-units="mm"
     inkscape:current-layer="layer1"
     showgrid="false"
     inkscape:window-width="1920"
     inkscape:window-height="981"
     inkscape:window-x="1366"
     inkscape:window-y="28"
     inkscape:window-maximized="1" />
  <metadata
     id="metadata1599">
    <rdf:RDF>
      <cc:Work
         rdf:about="">
        <dc:format>image/svg+xml</dc:format>
        <dc:type
           rdf:resource="http://purl.org/dc/dcmitype/StillImage" />
        <dc:title />
      </cc:Work>
    </rdf:RDF>
  </metadata>
  <g
     inkscape:label="Layer 1"
     inkscape:groupmode="layer"
     id="layer1">
    <ellipse
       style="fill:none;stroke:#000000;stroke-width:1;stroke-miterlimit:4;stroke-dasharray:none;stroke-opacity:1"
       id="path4054-20-3-0-5-2-7-7-2-0"
       cx="105.07738"
       cy="35.591656"
       rx="4.0031939"
       ry="4.0031934" />
    <ellipse
       style="fill:none;stroke:#000000;stroke-width:1;stroke-miterlimit:4;stroke-dasharray:none;stroke-opacity:1"
       id="path4054-20-3-0-5-2-7-7-2-0-6"
       cx="106.68841"
       cy="200.62752"
       rx="4.0031939"
       ry="4.0031934" />
    <rect
       style="fill:#ff6600;stroke:#000000;stroke-width:1.000898;stroke-linecap:round;stroke-linejoin:round;stroke-miterlimit:4;stroke-dasharray:none;stroke-opacity:1;paint-order:markers fill stroke;image-rendering:auto"
       id="rect4975-4-8-0-1-1-5"
       width="23.999102"
       height="7.9991026"
       x="138.2563"
       y="-202.20143"
       transform="scale(1,-1)" />
    <rect
       style="fill:#ff6600;stroke:#000000;stroke-width:1.000898;stroke-linecap:round;stroke-linejoin:round;stroke-miterlimit:4;stroke-dasharray:none;stroke-opacity:1;paint-order:markers fill stroke;image-rendering:auto"
       id="rect4975-4-8-0-1-1-5-0"
       width="23.999102"
       height="7.9991026"
       x="162.2554"
       y="-202.20143"
       transform="scale(1,-1)" />
    <rect
       style="fill:#333333;fill-opacity:1;stroke:#000000;stroke-width:1.000898;stroke-linecap:round;stroke-linejoin:round;stroke-miterlimit:4;stroke-dasharray:none;stroke-opacity:1;paint-order:markers fill stroke;image-rendering:auto"
       id="rect4975-5-7-0-9-8-11-0-3-7-2"
       width="23.999102"
       height="7.9991026"
       x="144.08749"
       y="-104.20284"
       transform="rotate(90)" />
    <rect
       style="fill:#333333;stroke:#000000;stroke-width:1.000898;stroke-linecap:round;stroke-linejoin:round;stroke-miterlimit:4;stroke-dasharray:none;stroke-opacity:1;paint-order:markers fill stroke;image-rendering:auto;fill-opacity:1"
       id="rect4975-5-7-0-9-8-11-0-3-7-2-0-3-1"
       width="23.999102"
       height="7.9991026"
       x="-193.67317"
       y="-104.20284"
       transform="matrix(0,-1,-1,0,0,0)" />
    <rect
       style="fill:#ff6600;stroke:#000000;stroke-width:1.000898;stroke-linecap:round;stroke-linejoin:round;stroke-miterlimit:4;stroke-dasharray:none;stroke-opacity:1;paint-order:markers fill stroke;image-rendering:auto"
       id="rect4975-4-8-0-1-1-7"
       width="23.999102"
       height="7.9991026"
       x="114.257"
       y="194.20233" />
    <rect
       style="opacity:1;vector-effect:none;fill:none;fill-opacity:1;stroke:#000000;stroke-width:1.000898;stroke-linecap:round;stroke-linejoin:round;stroke-miterlimit:4;stroke-dasharray:none;stroke-dashoffset:0;stroke-opacity:1;paint-order:markers fill stroke"
       id="rect2061"
       width="27.970238"
       height="10.583333"
       x="455.83929"
       y="340.84525" />
    <rect
       style="fill:#333333;fill-opacity:1;stroke:#000000;stroke-width:1.000898;stroke-linecap:round;stroke-linejoin:round;stroke-miterlimit:4;stroke-dasharray:none;stroke-opacity:1;paint-order:markers fill stroke;image-rendering:auto"
       id="rect4975-5-7-0-9-8-11-0-3-7-2-0-8"
       width="23.999102"
       height="7.9991026"
       x="-65.740128"
       y="-104.20294"
       transform="matrix(0,-1,-1,0,0,0)" />
    <rect
       style="fill:#333333;fill-opacity:1;stroke:#000000;stroke-width:1.000898;stroke-linecap:round;stroke-linejoin:round;stroke-miterlimit:4;stroke-dasharray:none;stroke-opacity:1;paint-order:markers fill stroke;image-rendering:auto"
       id="rect4975-5-7-0-9-8-11-0-3-7-2-0-1"
       width="23.999102"
       height="7.9991026"
       x="-91.326729"
       y="-104.20284"
       transform="matrix(0,-1,-1,0,0,0)" />
    <rect
       style="fill:#333333;fill-opacity:1;stroke:#000000;stroke-width:1.000898;stroke-linecap:round;stroke-linejoin:round;stroke-miterlimit:4;stroke-dasharray:none;stroke-opacity:1;paint-order:markers fill stroke;image-rendering:auto"
       id="rect4975-5-7-0-9-8-11-0-3-7-2-0-32"
       width="23.999102"
       height="7.9991026"
       x="-116.91335"
       y="-104.20284"
       transform="matrix(0,-1,-1,0,0,0)" />
    <rect
       style="fill:#333333;fill-opacity:1;stroke:#000000;stroke-width:1.000898;stroke-linecap:round;stroke-linejoin:round;stroke-miterlimit:4;stroke-dasharray:none;stroke-opacity:1;paint-order:markers fill stroke;image-rendering:auto"
       id="rect4975-5-7-0-9-8-11-0-3-7-2-0-30"
       width="23.999102"
       height="7.9991026"
       x="-142.50002"
       y="-104.20284"
       transform="matrix(0,-1,-1,0,0,0)" />
    <text
       xml:space="preserve"
       style="font-style:normal;font-variant:normal;font-weight:normal;font-stretch:normal;font-size:4.93888903px;line-height:1.25;font-family:sans-serif;-inkscape-font-specification:'sans-serif, Normal';font-variant-ligatures:normal;font-variant-caps:normal;font-variant-numeric:normal;font-feature-settings:normal;text-align:start;letter-spacing:0px;word-spacing:0px;writing-mode:lr-tb;text-anchor:start;fill:#666666;fill-opacity:1;stroke:none;stroke-width:0.26458332"
       x="68.872948"
       y="38.337624"
       id="text5378-7-9"><tspan
         sodipodi:role="line"
         id="tspan2137"
         x="68.872948"
         y="38.337624">Piątkowska </tspan><tspan
         sodipodi:role="line"
         id="tspan2139"
         x="68.872948"
         y="44.511234" /></text>
    <text
       xml:space="preserve"
       style="font-style:normal;font-variant:normal;font-weight:normal;font-stretch:normal;font-size:4.93888903px;line-height:1.25;font-family:sans-serif;-inkscape-font-specification:'sans-serif, Normal';font-variant-ligatures:normal;font-variant-caps:normal;font-variant-numeric:normal;font-feature-settings:normal;text-align:start;letter-spacing:0px;word-spacing:0px;writing-mode:lr-tb;text-anchor:start;fill:#000000;fill-opacity:1;stroke:none;stroke-width:0.26458332"
       x="80.061028"
       y="201.16978"
       id="text5378-7-9-7"><tspan
         sodipodi:role="line"
         id="tspan6291"
         x="80.061028"
         y="201.16978">Sołacz</tspan><tspan
         sodipodi:role="line"
         id="tspan6293"
         x="80.061028"
         y="207.3434"></tspan></text>
    <path
       style="opacity:1;vector-effect:none;fill:#d40000;fill-opacity:1;stroke:#000000;stroke-width:5.40417385;stroke-linecap:round;stroke-linejoin:round;stroke-miterlimit:4;stroke-dasharray:none;stroke-dashoffset:0;stroke-opacity:1;paint-order:markers fill stroke"
       d=""
       id="path2141"
       inkscape:connector-curvature="0"
       transform="scale(0.26458333)" />
    <rect
       style="fill:#ffffff;stroke:#000000;stroke-width:1.000898;stroke-linecap:round;stroke-linejoin:round;stroke-miterlimit:4;stroke-dasharray:none;stroke-opacity:1;paint-order:markers fill stroke;image-rendering:auto"
       id="rect4975-5-7-0-9-8-11-0-3-7-2-6"
       width="23.999102"
       height="7.9991026"
       x="144.08749"
       y="-114.3187"
       transform="rotate(90)" />
    <rect
       style="fill:#ffffff;stroke:#000000;stroke-width:1.000898;stroke-linecap:round;stroke-linejoin:round;stroke-miterlimit:4;stroke-dasharray:none;stroke-opacity:1;paint-order:markers fill stroke;image-rendering:auto"
       id="rect4975-5-7-0-9-8-11-0-3-7-2-0-3-1-1"
       width="23.999102"
       height="7.9991026"
       x="-193.67317"
       y="-114.3187"
       transform="matrix(0,-1,-1,0,0,0)" />
    <rect
       style="fill:#ffffff;stroke:#000000;stroke-width:1.000898;stroke-linecap:round;stroke-linejoin:round;stroke-miterlimit:4;stroke-dasharray:none;stroke-opacity:1;paint-order:markers fill stroke;image-rendering:auto"
       id="rect4975-5-7-0-9-8-11-0-3-7-2-0-8-6"
       width="23.999102"
       height="7.9991026"
       x="-65.740128"
       y="-114.31879"
       transform="matrix(0,-1,-1,0,0,0)" />
    <rect
       style="fill:#ffffff;stroke:#000000;stroke-width:1.000898;stroke-linecap:round;stroke-linejoin:round;stroke-miterlimit:4;stroke-dasharray:none;stroke-opacity:1;paint-order:markers fill stroke;image-rendering:auto"
       id="rect4975-5-7-0-9-8-11-0-3-7-2-0-1-5"
       width="23.999102"
       height="7.9991026"
       x="-91.326729"
       y="-114.31879"
       transform="matrix(0,-1,-1,0,0,0)" />
    <rect
       style="fill:#ffffff;stroke:#000000;stroke-width:1.000898;stroke-linecap:round;stroke-linejoin:round;stroke-miterlimit:4;stroke-dasharray:none;stroke-opacity:1;paint-order:markers fill stroke;image-rendering:auto"
       id="rect4975-5-7-0-9-8-11-0-3-7-2-0-32-3"
       width="23.999102"
       height="7.9991026"
       x="-116.91335"
       y="-114.31879"
       transform="matrix(0,-1,-1,0,0,0)" />
    <rect
       style="fill:#ffffff;stroke:#000000;stroke-width:1.000898;stroke-linecap:round;stroke-linejoin:round;stroke-miterlimit:4;stroke-dasharray:none;stroke-opacity:1;paint-order:markers fill stroke;image-rendering:auto"
       id="rect4975-5-7-0-9-8-11-0-3-7-2-0-30-0"
       width="23.999102"
       height="7.9991026"
       x="-142.50002"
       y="-114.31879"
       transform="matrix(0,-1,-1,0,0,0)" />
    <rect
       style="fill:#ff00ff;stroke:#000000;stroke-width:1.000898;stroke-linecap:round;stroke-linejoin:round;stroke-miterlimit:4;stroke-dasharray:none;stroke-opacity:1;paint-order:markers fill stroke;image-rendering:auto"
       id="rect4975-4-8-0-1-1-5-3"
       width="23.999102"
       height="7.9991026"
       x="138.2563"
       y="-211.78801"
       transform="scale(1,-1)" />
    <rect
       style="fill:#ff00ff;stroke:#000000;stroke-width:1.000898;stroke-linecap:round;stroke-linejoin:round;stroke-miterlimit:4;stroke-dasharray:none;stroke-opacity:1;paint-order:markers fill stroke;image-rendering:auto"
       id="rect4975-4-8-0-1-1-5-0-1"
       width="23.999102"
       height="7.9991026"
       x="162.25542"
       y="-211.78801"
       transform="scale(1,-1)" />
    <rect
       style="fill:#ff00ff;stroke:#000000;stroke-width:1.000898;stroke-linecap:round;stroke-linejoin:round;stroke-miterlimit:4;stroke-dasharray:none;stroke-opacity:1;paint-order:markers fill stroke;image-rendering:auto"
       id="rect4975-4-8-0-1-1-7-1"
       width="23.999102"
       height="7.9991026"
       x="114.257"
       y="203.78891" />
    <rect
       style="fill:none;stroke:#000000;stroke-width:0.37200001;stroke-linecap:round;stroke-linejoin:round;stroke-miterlimit:4;stroke-dasharray:0.372, 2.23200002;stroke-dashoffset:0;stroke-opacity:1;paint-order:markers fill stroke"
       id="rect5601"
       width="188.92807"
       height="278.92807"
       x="10.53865"
       y="7.5359116" />
    <ellipse
       style="fill:none;stroke:#000000;stroke-width:1;stroke-miterlimit:4;stroke-dasharray:none;stroke-opacity:1"
       id="path4054-20-3-0-5-2-7-7-2-0-6-9"
       cx="192.69637"
       cy="200.80705"
       rx="4.0031939"
       ry="4.0031934" />
    <text
       xml:space="preserve"
       style="font-style:normal;font-variant:normal;font-weight:normal;font-stretch:normal;font-size:4.93888903px;line-height:1.25;font-family:sans-serif;-inkscape-font-specification:'sans-serif, Normal';font-variant-ligatures:normal;font-variant-caps:normal;font-variant-numeric:normal;font-feature-settings:normal;text-align:start;letter-spacing:0px;word-spacing:0px;writing-mode:lr-tb;text-anchor:start;fill:#000000;fill-opacity:1;stroke:none;stroke-width:0.26458332"
       x="185.11905"
       y="191.29529"
       id="text5378-7-9-7-2"><tspan
         sodipodi:role="line"
         id="tspan6319"
         x="185.11905"
         y="191.29529">Klin</tspan><tspan
         sodipodi:role="line"
         id="tspan6321"
         x="185.11905"
         y="197.4689"></tspan></text>
    <rect
       style="opacity:1;vector-effect:none;fill:#cccccc;fill-opacity:1;stroke:#000000;stroke-width:1.000898;stroke-linecap:round;stroke-linejoin:round;stroke-miterlimit:4;stroke-dasharray:none;stroke-dashoffset:0;stroke-opacity:1;paint-order:markers fill stroke;image-rendering:auto"
       id="rect4975-4-8-0-1-1-4-6-13-6-1-2-9-5-9-9-2"
       width="23.999102"
       height="7.9991026"
       x="171.60623"
       y="35.433357"
       transform="rotate(-1.6331603)"
       inkscape:transform-center-x="-98.889725"
       inkscape:transform-center-y="8.0180858" />
    <path
       inkscape:connector-curvature="0"
       style="fill:#000000;fill-rule:evenodd;stroke:none;stroke-width:0.11538438"
       d="m 189.75572,36.034862 a 1.2980743,1.2980743 0 0 0 -1.98757,-1.05095 1.2980743,1.2980743 0 0 0 -0.60674,1.14755 l -5.33282,0.19852 a 1.2980743,1.2980743 0 0 0 -1.98759,-1.05095 1.2980743,1.2980743 0 0 0 -0.60674,1.14754 l -1.87371,0.0697 a 0.57692192,0.57692192 0 0 1 -0.59797,-0.55506 l -0.0599,-1.60847 a 0.86538284,0.86538284 0 0 1 0.0244,-0.23882 l 0.51183,-2.08168 a 0.57692192,0.57692192 0 0 1 0.53877,-0.43878 l 13.09284,-0.48734 a 0.14423048,0.14423048 0 0 1 0.14948,0.13877 l 0.0107,0.28826 a 0.14423048,0.14423048 0 0 1 -0.10966,0.1455 l 1e-5,-10e-6 a 0.14423048,0.14423048 0 0 0 -0.0992,0.19379 l 0.82566,2.06586 a 0.86538284,0.86538284 0 0 1 0.0612,0.28898 l 0.0545,1.46447 a 0.28846095,0.28846095 0 0 1 -0.27749,0.29901 z m 1.19277,-2.35369 -1.72543,0.0642 a 0.21634572,0.21634572 0 0 1 -0.22426,-0.20811 l -0.059,-1.58546 a 0.21634572,0.21634572 0 0 1 0.2081,-0.22426 l 1.15922,-0.0431 a 0.21634572,0.21634572 0 0 1 0.20897,0.13582 l 0.62524,1.56437 a 0.21634572,0.21634572 0 0 1 -0.19283,0.2965 z m -2.53258,0.0943 -1.51501,0.0564 a 0.21634572,0.21634572 0 0 1 -0.21812,-0.26788 l 0.39397,-1.6023 a 0.21634572,0.21634572 0 0 1 0.20205,-0.16454 l 1.06204,-0.0395 a 0.21634572,0.21634572 0 0 1 0.22421,0.2082 l 0.059,1.58544 a 0.21634572,0.21634572 0 0 1 -0.20811,0.22427 z m -2.33943,0.0871 -1.45285,0.0541 a 0.21634572,0.21634572 0 0 1 -0.21811,-0.26789 l 0.39396,-1.6023 a 0.21634572,0.21634572 0 0 1 0.20206,-0.16454 l 1.45282,-0.0541 a 0.21634572,0.21634572 0 0 1 0.21815,0.26785 l -0.39398,1.6023 a 0.21634572,0.21634572 0 0 1 -0.20205,0.16452 z m -2.27727,0.0848 -1.45285,0.0541 a 0.21634572,0.21634572 0 0 1 -0.21812,-0.26788 l 0.39396,-1.60231 a 0.21634572,0.21634572 0 0 1 0.20206,-0.16454 l 1.45282,-0.0541 a 0.21634572,0.21634572 0 0 1 0.21812,0.26787 l -0.39395,1.6023 a 0.21634572,0.21634572 0 0 1 -0.20205,0.16454 z m -2.27727,0.0848 -1.45284,0.0541 a 0.21634572,0.21634572 0 0 1 -0.21813,-0.26788 l 0.39399,-1.60232 a 0.21634572,0.21634572 0 0 1 0.20205,-0.16453 l 1.45282,-0.0541 a 0.21634572,0.21634572 0 0 1 0.21812,0.26788 l -0.39396,1.60231 a 0.21634572,0.21634572 0 0 1 -0.20205,0.16454 z m -2.27727,0.0848 -1.45284,0.0541 a 0.21634572,0.21634572 0 0 1 -0.21811,-0.26788 l 0.39396,-1.60248 a 0.21634572,0.21634572 0 0 1 0.20206,-0.16455 l 1.45282,-0.0541 a 0.21634572,0.21634572 0 0 1 0.21812,0.26789 l -0.39397,1.60232 a 0.21634572,0.21634572 0 0 1 -0.20205,0.16453 z m 0.27775,2.29893 a 1.0096134,1.0096134 0 0 1 1.48084,-0.93006 1.0096134,1.0096134 0 0 1 0.0651,1.74749 1.0096134,1.0096134 0 0 1 -1.54591,-0.81742 m 7.92718,-0.29507 a 1.0096134,1.0096134 0 0 1 1.48086,-0.93008 1.0096134,1.0096134 0 0 1 0.065,1.74749 1.0096134,1.0096134 0 0 1 -1.5459,-0.81741 z"
       id="path6-6-6-6"
       inkscape:transform-center-x="-98.467746"
       inkscape:transform-center-y="8.0709479" />
    <rect
       style="opacity:1;vector-effect:none;fill:#cccccc;fill-opacity:1;stroke:#000000;stroke-width:1.000898;stroke-linecap:round;stroke-linejoin:round;stroke-miterlimit:4;stroke-dasharray:none;stroke-dashoffset:0;stroke-opacity:1;paint-order:markers fill stroke;image-rendering:auto"
       id="rect4975-4-8-0-1-1-4-6-13-6-1-2-9-5-9-9-2-9"
       width="23.999102"
       height="7.9991026"
       x="117.88855"
       y="35.531929"
       transform="rotate(-1.6331603)"
       inkscape:transform-center-x="-98.889725"
       inkscape:transform-center-y="8.0180858" />
    <rect
       style="opacity:1;vector-effect:none;fill:#cccccc;fill-opacity:1;stroke:#000000;stroke-width:1.000898;stroke-linecap:round;stroke-linejoin:round;stroke-miterlimit:4;stroke-dasharray:none;stroke-dashoffset:0;stroke-opacity:1;paint-order:markers fill stroke;image-rendering:auto"
       id="rect4975-4-8-0-1-1-4-6-13-6-1-2-9-5-9-9-2-9-8"
       width="23.999102"
       height="7.9991026"
       x="144.54738"
       y="35.078373"
       transform="rotate(-1.6331603)"
       inkscape:transform-center-x="-98.889725"
       inkscape:transform-center-y="8.0180858" />
    <rect
       style="opacity:1;vector-effect:none;fill:#cccccc;fill-opacity:1;stroke:#000000;stroke-width:1.000898;stroke-linecap:round;stroke-linejoin:round;stroke-miterlimit:4;stroke-dasharray:none;stroke-dashoffset:0;stroke-opacity:1;paint-order:markers fill stroke;image-rendering:auto"
       id="rect4975-4-8-0-1-1-4-6-13-6-1-2-9-5-9-9-2-2"
       width="23.999102"
       height="7.9991026"
       x="-229.44258"
       y="105.8614"
       transform="rotate(-88.947393)"
       inkscape:transform-center-x="-12.643081"
       inkscape:transform-center-y="-98.40538" />
    <path
       inkscape:connector-curvature="0"
       style="fill:#000000;fill-rule:evenodd;stroke:none;stroke-width:0.11538438"
       d="m 107.9357,214.41671 a 1.2980743,1.2980743 0 0 0 -1.14294,1.93613 1.2980743,1.2980743 0 0 0 1.11787,0.65985 l -0.0516,5.33627 a 1.2980743,1.2980743 0 0 0 -1.14294,1.93616 1.2980743,1.2980743 0 0 0 1.11786,0.65984 l -0.0182,1.87493 a 0.57692192,0.57692192 0 0 1 -0.58248,0.5713 l -1.60952,-0.0155 a 0.86538284,0.86538284 0 0 1 -0.2374,-0.0356 l -2.05543,-0.60882 a 0.57692192,0.57692192 0 0 1 -0.41306,-0.55874 l 0.12671,-13.1013 a 0.14423048,0.14423048 0 0 1 0.14564,-0.1428 l 0.28844,0.003 a 0.14423048,0.14423048 0 0 1 0.14021,0.11636 h -1e-5 a 0.14423048,0.14423048 0 0 0 0.18893,0.10816 l 2.10229,-0.72794 a 0.86538284,0.86538284 0 0 1 0.29152,-0.0477 l 1.46542,0.0142 a 0.28846095,0.28846095 0 0 1 0.28568,0.2912 z m -2.29523,-1.30176 -0.0167,1.72655 a 0.21634572,0.21634572 0 0 1 -0.21839,0.21427 l -1.58649,-0.0154 a 0.21634572,0.21634572 0 0 1 -0.21427,-0.21838 l 0.0113,-1.15996 a 0.21634572,0.21634572 0 0 1 0.14547,-0.20238 l 1.59196,-0.55125 a 0.21634572,0.21634572 0 0 1 0.28714,0.20651 z m -0.0245,2.53422 -0.0147,1.51599 a 0.21634572,0.21634572 0 0 1 -0.27781,0.20533 l -1.58208,-0.46862 a 0.21634572,0.21634572 0 0 1 -0.15489,-0.20953 l 0.0103,-1.06273 a 0.21634572,0.21634572 0 0 1 0.21847,-0.21421 l 1.58648,0.0154 a 0.21634572,0.21634572 0 0 1 0.21427,0.21839 z m -0.0226,2.34095 -0.014,1.45379 a 0.21634572,0.21634572 0 0 1 -0.2778,0.20531 l -1.58209,-0.4686 a 0.21634572,0.21634572 0 0 1 -0.1549,-0.20955 l 0.014,-1.45376 a 0.21634572,0.21634572 0 0 1 0.27779,-0.20532 l 1.5821,0.46864 a 0.21634572,0.21634572 0 0 1 0.15486,0.20953 z m -0.022,2.27873 -0.014,1.4538 a 0.21634572,0.21634572 0 0 1 -0.2778,0.20532 l -1.5821,-0.46861 a 0.21634572,0.21634572 0 0 1 -0.1549,-0.20955 l 0.014,-1.45376 a 0.21634572,0.21634572 0 0 1 0.2778,-0.20531 l 1.58209,0.46859 a 0.21634572,0.21634572 0 0 1 0.15489,0.20953 z m -0.022,2.27875 -0.014,1.45378 a 0.21634572,0.21634572 0 0 1 -0.27781,0.20532 l -1.58211,-0.46863 a 0.21634572,0.21634572 0 0 1 -0.15488,-0.20954 l 0.014,-1.45377 a 0.21634572,0.21634572 0 0 1 0.27781,-0.20531 l 1.58209,0.4686 a 0.21634572,0.21634572 0 0 1 0.15489,0.20954 z m -0.022,2.27874 -0.014,1.45378 a 0.21634572,0.21634572 0 0 1 -0.2778,0.20532 l -1.58227,-0.46862 a 0.21634572,0.21634572 0 0 1 -0.15491,-0.20954 l 0.014,-1.45377 a 0.21634572,0.21634572 0 0 1 0.27781,-0.20532 l 1.58211,0.46862 a 0.21634572,0.21634572 0 0 1 0.15488,0.20955 z m 2.30943,-0.16972 a 1.0096134,1.0096134 0 0 1 -0.85965,-1.5228 1.0096134,1.0096134 0 0 1 1.74863,0.0169 1.0096134,1.0096134 0 0 1 -0.88896,1.50591 m 0.0767,-7.9323 a 1.0096134,1.0096134 0 0 1 -0.85967,-1.52282 1.0096134,1.0096134 0 0 1 1.74863,0.017 1.0096134,1.0096134 0 0 1 -0.88896,1.5059 z"
       id="path6-6-6-6-2"
       inkscape:transform-center-x="-12.720479"
       inkscape:transform-center-y="-97.945023" />
    <rect
       style="opacity:1;vector-effect:none;fill:#cccccc;fill-opacity:1;stroke:#000000;stroke-width:1.000898;stroke-linecap:round;stroke-linejoin:round;stroke-miterlimit:4;stroke-dasharray:none;stroke-dashoffset:0;stroke-opacity:1;paint-order:markers fill stroke;image-rendering:auto"
       id="rect4975-4-8-0-1-1-4-6-13-6-1-2-9-5-9-9-2-9-0"
       width="23.999102"
       height="7.9991026"
       x="-283.16022"
       y="105.95988"
       transform="rotate(-88.947393)"
       inkscape:transform-center-x="-12.643081"
       inkscape:transform-center-y="-98.405382" />
    <rect
       style="opacity:1;vector-effect:none;fill:#cccccc;fill-opacity:1;stroke:#000000;stroke-width:1.000898;stroke-linecap:round;stroke-linejoin:round;stroke-miterlimit:4;stroke-dasharray:none;stroke-dashoffset:0;stroke-opacity:1;paint-order:markers fill stroke;image-rendering:auto"
       id="rect4975-4-8-0-1-1-4-6-13-6-1-2-9-5-9-9-2-2-2"
       width="23.999102"
       height="7.9991026"
       x="-255.61334"
       y="106.07911"
       transform="rotate(-88.947392)"
       inkscape:transform-center-x="-12.643088"
       inkscape:transform-center-y="-98.405382" />
    <path
       inkscape:connector-curvature="0"
       style="fill:#000000;fill-rule:evenodd;stroke:none;stroke-width:0.11538438"
       d="m 107.67266,240.5871 a 1.2980743,1.2980743 0 0 0 -1.14293,1.93614 1.2980743,1.2980743 0 0 0 1.11787,0.65985 l -0.0516,5.33627 a 1.2980743,1.2980743 0 0 0 -1.14294,1.93616 1.2980743,1.2980743 0 0 0 1.11786,0.65985 l -0.0182,1.87491 a 0.57692192,0.57692192 0 0 1 -0.58246,0.5713 l -1.60952,-0.0155 a 0.86538284,0.86538284 0 0 1 -0.23742,-0.0355 l -2.05542,-0.60882 a 0.57692192,0.57692192 0 0 1 -0.41305,-0.55874 l 0.12671,-13.1013 a 0.14423048,0.14423048 0 0 1 0.14562,-0.1428 l 0.28845,0.003 a 0.14423048,0.14423048 0 0 1 0.14019,0.11637 l -2e-5,-1e-5 a 0.14423048,0.14423048 0 0 0 0.18893,0.10817 l 2.1023,-0.72795 a 0.86538284,0.86538284 0 0 1 0.29151,-0.0477 l 1.46542,0.0142 a 0.28846095,0.28846095 0 0 1 0.28568,0.29118 z m -2.29522,-1.30176 -0.0167,1.72656 a 0.21634572,0.21634572 0 0 1 -0.21839,0.21426 l -1.58648,-0.0154 a 0.21634572,0.21634572 0 0 1 -0.21428,-0.21838 l 0.0113,-1.15997 a 0.21634572,0.21634572 0 0 1 0.14546,-0.20238 l 1.59197,-0.55124 a 0.21634572,0.21634572 0 0 1 0.28713,0.20651 z m -0.0245,2.53422 -0.0147,1.516 a 0.21634572,0.21634572 0 0 1 -0.27781,0.20532 l -1.58208,-0.4686 a 0.21634572,0.21634572 0 0 1 -0.15489,-0.20955 l 0.0103,-1.06272 a 0.21634572,0.21634572 0 0 1 0.21848,-0.21422 l 1.58647,0.0154 a 0.21634572,0.21634572 0 0 1 0.21426,0.21839 z m -0.0226,2.34095 -0.014,1.45379 a 0.21634572,0.21634572 0 0 1 -0.27782,0.20532 l -1.58209,-0.46861 a 0.21634572,0.21634572 0 0 1 -0.15489,-0.20955 l 0.014,-1.45375 a 0.21634572,0.21634572 0 0 1 0.27781,-0.20533 l 1.58209,0.46864 a 0.21634572,0.21634572 0 0 1 0.15488,0.20952 z m -0.022,2.27874 -0.014,1.4538 a 0.21634572,0.21634572 0 0 1 -0.27782,0.20531 l -1.5821,-0.46861 a 0.21634572,0.21634572 0 0 1 -0.15488,-0.20954 l 0.014,-1.45377 a 0.21634572,0.21634572 0 0 1 0.27781,-0.20531 l 1.58208,0.46859 a 0.21634572,0.21634572 0 0 1 0.1549,0.20954 z m -0.022,2.27874 -0.014,1.45378 a 0.21634572,0.21634572 0 0 1 -0.27783,0.20533 l -1.5821,-0.46863 a 0.21634572,0.21634572 0 0 1 -0.15489,-0.20955 l 0.014,-1.45375 a 0.21634572,0.21634572 0 0 1 0.2778,-0.20533 l 1.58211,0.46861 a 0.21634572,0.21634572 0 0 1 0.15488,0.20954 z m -0.022,2.27875 -0.014,1.45377 a 0.21634572,0.21634572 0 0 1 -0.27782,0.20533 l -1.58227,-0.46861 a 0.21634572,0.21634572 0 0 1 -0.15489,-0.20956 l 0.014,-1.45377 a 0.21634572,0.21634572 0 0 1 0.27783,-0.20532 l 1.58211,0.46862 a 0.21634572,0.21634572 0 0 1 0.15488,0.20953 z m 2.30944,-0.16972 a 1.0096134,1.0096134 0 0 1 -0.85965,-1.5228 1.0096134,1.0096134 0 0 1 1.74863,0.0169 1.0096134,1.0096134 0 0 1 -0.88898,1.50592 m 0.0767,-7.93231 a 1.0096134,1.0096134 0 0 1 -0.85967,-1.52282 1.0096134,1.0096134 0 0 1 1.74864,0.017 1.0096134,1.0096134 0 0 1 -0.88897,1.50591 z"
       id="path6-6-6-6-2-5"
       inkscape:transform-center-x="-12.720501"
       inkscape:transform-center-y="-97.944982" />
  </g>
</svg>
